<?xml version="1.0" encoding="UTF-8" standalone="no"?>
<!-- Created with Inkscape (http://www.inkscape.org/) -->

<svg
   xmlns:dc="http://purl.org/dc/elements/1.1/"
   xmlns:cc="http://creativecommons.org/ns#"
   xmlns:rdf="http://www.w3.org/1999/02/22-rdf-syntax-ns#"
   xmlns:svg="http://www.w3.org/2000/svg"
   xmlns="http://www.w3.org/2000/svg"
   xmlns:sodipodi="http://sodipodi.sourceforge.net/DTD/sodipodi-0.dtd"
   xmlns:inkscape="http://www.inkscape.org/namespaces/inkscape"
   width="210mm"
   height="297mm"
   viewBox="0 0 744.09448819 1052.3622047"
   id="svg5410"
   version="1.1"
   inkscape:version="0.91 r13725"
   sodipodi:docname="star.svg">
  <defs
     id="defs5412" />
  <sodipodi:namedview
     id="base"
     pagecolor="#ffffff"
     bordercolor="#666666"
     borderopacity="1.0"
     inkscape:pageopacity="0.0"
     inkscape:pageshadow="2"
     inkscape:zoom="0.5"
     inkscape:cx="63.840234"
     inkscape:cy="672.38172"
     inkscape:document-units="px"
     inkscape:current-layer="layer1"
     showgrid="false"
     inkscape:window-width="2560"
     inkscape:window-height="1387"
     inkscape:window-x="0"
     inkscape:window-y="302"
     inkscape:window-maximized="1"
     showguides="false" />
  <metadata
     id="metadata5415">
    <rdf:RDF>
      <cc:Work
         rdf:about="">
        <dc:format>image/svg+xml</dc:format>
        <dc:type
           rdf:resource="http://purl.org/dc/dcmitype/StillImage" />
        <dc:title></dc:title>
      </cc:Work>
    </rdf:RDF>
  </metadata>
  <g
     inkscape:label="Layer 1"
     inkscape:groupmode="layer"
     id="layer1">
    <g
       id="g6195"
       transform="translate(-310.18992,-214.96784)">
      <path
         style="fill:#fdda00"
         d="M 536.68406,968.97909 C 534.72901,968.38437 532.94331,966.75851 532.00556,964.71934 530.76514,962.02201 531.76302,953.68994 537.45656,919.20506 541.05154,897.43082 543.08886,884.60116 544.25538,876.39077 544.46636,874.90577 544.82301,872.47883 545.04793,870.99756 545.27284,869.51627 546.1401,863.61484 546.97517,857.88328 547.81023,852.15169 548.89765,844.80078 549.39167,841.54792 551.28225,829.0992 551.63785,826.47637 552.1284,821.36221 552.7011,815.39161 552.61837,811.82678 551.82181,808.15113 550.86772,803.74854 549.48815,801.64663 542.09763,793.33538 537.64696,788.33025 505.35315,755.52343 477.54989,727.76221 450.21006,700.46373 444.82077,694.86837 443.52959,692.44104 442.66961,690.82433 442.71214,687.46778 443.61484,685.71249 444.76535,683.47537 446.62492,682.23522 450.07247,681.40589 452.798,680.75024 461.09587,679.23981 468.15716,678.11401 469.8543,677.84343 473.03644,677.32996 475.22858,676.97297 477.42073,676.61598 481.47073,675.98122 484.22858,675.56239 512.18272,671.31707 519.11402,670.22386 533.98572,667.71465 541.90572,666.37836 550.41072,664.93481 552.88572,664.50677 555.36072,664.07872 563.57644,662.69568 571.14286,661.43334 596.59015,657.18785 600.24187,655.83976 605.56657,648.72534 610.52602,642.09891 612.40685,638.86948 621.16177,621.94793 622.40571,619.54365 625.06793,614.45222 627.07782,610.63365 629.08771,606.81508 632.78716,599.7565 635.29882,594.94793 637.81048,590.13936 640.41454,585.16365 641.08562,583.89079 641.7567,582.61793 647.024,572.20365 652.79073,560.74794 672.9823,520.63704 675.46218,516.09676 678.07181,514.46203 681.1729,512.51944 683.48299,512.57795 686.67377,514.67992 689.04651,516.24298 692.10075,521.92071 714.49846,566.40508 719.55429,576.44651 723.77529,584.77793 723.87846,584.91936 723.98165,585.06079 725.08215,587.14365 726.32399,589.54793 727.56586,591.95222 729.18869,595.0765 729.93029,596.49079 731.48166,599.44936 735.54858,607.20081 739.40804,614.55508 740.87391,617.34829 743.08963,621.60079 744.33188,624.00507 750.42488,635.79751 752.16983,638.95852 754.5521,642.51936 760.12375,650.84737 761.95949,652.86686 765.71786,654.80265 770.91757,657.48082 774.5897,658.33134 797.55714,662.17711 806.89142,663.74009 821.00856,666.11806 828.92856,667.46149 836.84856,668.80492 850.50285,671.00539 859.27142,672.35144 905.24249,679.40835 915.04819,681.11574 917.77833,682.53876 920.86924,684.14983 922.2654,687.78737 921.22122,691.50877 920.52197,694.00094 916.99027,697.73671 887.55595,727.11935 860.62188,754.00611 827.53364,787.56016 823.32429,792.25523 815.22295,801.29141 813.5973,803.70914 812.63602,808.15113 811.43002,813.72398 811.82298,820.18189 814.41781,837.43363 815.2687,843.09078 816.7655,853.21578 817.74401,859.93363 821.44133,885.317 822.82764,894.2443 826.59497,916.92988 830.38137,939.73046 832.88867,956.93887 832.97725,960.73363 833.09734,965.87851 830.62787,968.83267 825.93833,969.1541 823.3624,969.33066 822.2087,968.86474 808.87142,962.26149 798.77571,957.26315 793.38823,954.51524 772.35714,943.63728 758.27852,936.35535 701.41305,908.02685 697.52857,906.36015 692.07596,904.02062 685.72924,902.3622 682.22857,902.3622 678.83218,902.3622 672.70187,903.93576 667.24531,906.20818 663.72307,907.67505 599.04941,939.95299 585.80001,946.85666 569.32962,955.43867 546.80697,966.71153 543.43442,968.06114 540.47013,969.24739 538.46328,969.5203 536.68406,968.97909 Z"
         id="path6199"
         inkscape:connector-curvature="0" />
      <path
         style="fill:#030200"
         d="M 640.17039,784.87508 C 635.21657,783.62009 632.39674,779.04935 631.03187,770.06221 629.70282,761.31092 630.10767,727.18111 631.70544,713.27902 632.65648,705.00411 635.18936,699.99438 639.4933,697.87556 641.86957,696.70573 646.25104,696.62205 648.55459,697.7025 653.56225,700.05128 655.87849,705.78942 656.49034,717.36216 657.20706,730.91821 657.00265,757.99131 656.13031,765.04792 654.65357,776.99373 652.55771,781.80117 647.80556,784.14302 646.02683,785.01959 642.1921,785.38725 640.17039,784.87508 Z M 718.04497,784.74782 C 711.83466,782.71641 708.94252,775.69454 707.90886,760.1383 707.47997,753.68342 707.46434,721.84643 707.88749,716.5765 708.77772,705.48942 711.10656,699.9396 715.78571,697.75422 718.21345,696.62037 722.53011,696.67743 724.96383,697.87556 729.5957,700.15581 732.10341,705.61439 733.01433,715.39925 734.55755,731.97596 734.83241,761.06044 733.52726,769.67649 732.27685,777.93111 730.01119,782.32111 726.01933,784.22394 724.20974,785.08653 719.93836,785.36714 718.04497,784.74782 Z"
         id="path6197"
         inkscape:connector-curvature="0" />
    </g>
  </g>
</svg>
