G04 #@! TF.GenerationSoftware,KiCad,Pcbnew,5.1.2*
G04 #@! TF.CreationDate,2019-07-29T04:25:53-07:00*
G04 #@! TF.ProjectId,Star_Badge,53746172-5f42-4616-9467-652e6b696361,rev?*
G04 #@! TF.SameCoordinates,Original*
G04 #@! TF.FileFunction,Paste,Bot*
G04 #@! TF.FilePolarity,Positive*
%FSLAX46Y46*%
G04 Gerber Fmt 4.6, Leading zero omitted, Abs format (unit mm)*
G04 Created by KiCad (PCBNEW 5.1.2) date 2019-07-29 04:25:53*
%MOMM*%
%LPD*%
G04 APERTURE LIST*
%ADD10R,3.290799X1.126800*%
%ADD11R,6.400800X5.689600*%
%ADD12R,0.400000X1.350000*%
%ADD13R,0.700000X0.500000*%
%ADD14R,1.100000X0.200000*%
%ADD15R,0.450000X1.450000*%
%ADD16C,0.100000*%
%ADD17C,0.950000*%
%ADD18C,1.150000*%
%ADD19R,1.900000X0.800000*%
%ADD20C,0.600000*%
%ADD21C,0.900000*%
%ADD22R,1.560000X0.650000*%
G04 APERTURE END LIST*
D10*
X116246800Y-148714000D03*
D11*
X122800000Y-151000000D03*
D10*
X116246800Y-153286000D03*
D12*
X101550000Y-155500000D03*
X100900000Y-155500000D03*
X98950000Y-155500000D03*
X99600000Y-155500000D03*
X100250000Y-155500000D03*
D13*
X54250000Y-107875000D03*
X54250000Y-112125000D03*
X57750000Y-107875000D03*
X57750000Y-112125000D03*
D14*
X57750000Y-107525000D03*
X54250000Y-112475000D03*
X54250000Y-107525000D03*
X57750000Y-112475000D03*
D15*
X102925000Y-130050000D03*
X102275000Y-130050000D03*
X101625000Y-130050000D03*
X100975000Y-130050000D03*
X100325000Y-130050000D03*
X99675000Y-130050000D03*
X99025000Y-130050000D03*
X98375000Y-130050000D03*
X97725000Y-130050000D03*
X97075000Y-130050000D03*
X97075000Y-135950000D03*
X97725000Y-135950000D03*
X98375000Y-135950000D03*
X99025000Y-135950000D03*
X99675000Y-135950000D03*
X100325000Y-135950000D03*
X100975000Y-135950000D03*
X101625000Y-135950000D03*
X102275000Y-135950000D03*
X102925000Y-135950000D03*
D16*
G36*
X95185779Y-152026144D02*
G01*
X95208834Y-152029563D01*
X95231443Y-152035227D01*
X95253387Y-152043079D01*
X95274457Y-152053044D01*
X95294448Y-152065026D01*
X95313168Y-152078910D01*
X95330438Y-152094562D01*
X95346090Y-152111832D01*
X95359974Y-152130552D01*
X95371956Y-152150543D01*
X95381921Y-152171613D01*
X95389773Y-152193557D01*
X95395437Y-152216166D01*
X95398856Y-152239221D01*
X95400000Y-152262500D01*
X95400000Y-152737500D01*
X95398856Y-152760779D01*
X95395437Y-152783834D01*
X95389773Y-152806443D01*
X95381921Y-152828387D01*
X95371956Y-152849457D01*
X95359974Y-152869448D01*
X95346090Y-152888168D01*
X95330438Y-152905438D01*
X95313168Y-152921090D01*
X95294448Y-152934974D01*
X95274457Y-152946956D01*
X95253387Y-152956921D01*
X95231443Y-152964773D01*
X95208834Y-152970437D01*
X95185779Y-152973856D01*
X95162500Y-152975000D01*
X94587500Y-152975000D01*
X94564221Y-152973856D01*
X94541166Y-152970437D01*
X94518557Y-152964773D01*
X94496613Y-152956921D01*
X94475543Y-152946956D01*
X94455552Y-152934974D01*
X94436832Y-152921090D01*
X94419562Y-152905438D01*
X94403910Y-152888168D01*
X94390026Y-152869448D01*
X94378044Y-152849457D01*
X94368079Y-152828387D01*
X94360227Y-152806443D01*
X94354563Y-152783834D01*
X94351144Y-152760779D01*
X94350000Y-152737500D01*
X94350000Y-152262500D01*
X94351144Y-152239221D01*
X94354563Y-152216166D01*
X94360227Y-152193557D01*
X94368079Y-152171613D01*
X94378044Y-152150543D01*
X94390026Y-152130552D01*
X94403910Y-152111832D01*
X94419562Y-152094562D01*
X94436832Y-152078910D01*
X94455552Y-152065026D01*
X94475543Y-152053044D01*
X94496613Y-152043079D01*
X94518557Y-152035227D01*
X94541166Y-152029563D01*
X94564221Y-152026144D01*
X94587500Y-152025000D01*
X95162500Y-152025000D01*
X95185779Y-152026144D01*
X95185779Y-152026144D01*
G37*
D17*
X94875000Y-152500000D03*
D16*
G36*
X93435779Y-152026144D02*
G01*
X93458834Y-152029563D01*
X93481443Y-152035227D01*
X93503387Y-152043079D01*
X93524457Y-152053044D01*
X93544448Y-152065026D01*
X93563168Y-152078910D01*
X93580438Y-152094562D01*
X93596090Y-152111832D01*
X93609974Y-152130552D01*
X93621956Y-152150543D01*
X93631921Y-152171613D01*
X93639773Y-152193557D01*
X93645437Y-152216166D01*
X93648856Y-152239221D01*
X93650000Y-152262500D01*
X93650000Y-152737500D01*
X93648856Y-152760779D01*
X93645437Y-152783834D01*
X93639773Y-152806443D01*
X93631921Y-152828387D01*
X93621956Y-152849457D01*
X93609974Y-152869448D01*
X93596090Y-152888168D01*
X93580438Y-152905438D01*
X93563168Y-152921090D01*
X93544448Y-152934974D01*
X93524457Y-152946956D01*
X93503387Y-152956921D01*
X93481443Y-152964773D01*
X93458834Y-152970437D01*
X93435779Y-152973856D01*
X93412500Y-152975000D01*
X92837500Y-152975000D01*
X92814221Y-152973856D01*
X92791166Y-152970437D01*
X92768557Y-152964773D01*
X92746613Y-152956921D01*
X92725543Y-152946956D01*
X92705552Y-152934974D01*
X92686832Y-152921090D01*
X92669562Y-152905438D01*
X92653910Y-152888168D01*
X92640026Y-152869448D01*
X92628044Y-152849457D01*
X92618079Y-152828387D01*
X92610227Y-152806443D01*
X92604563Y-152783834D01*
X92601144Y-152760779D01*
X92600000Y-152737500D01*
X92600000Y-152262500D01*
X92601144Y-152239221D01*
X92604563Y-152216166D01*
X92610227Y-152193557D01*
X92618079Y-152171613D01*
X92628044Y-152150543D01*
X92640026Y-152130552D01*
X92653910Y-152111832D01*
X92669562Y-152094562D01*
X92686832Y-152078910D01*
X92705552Y-152065026D01*
X92725543Y-152053044D01*
X92746613Y-152043079D01*
X92768557Y-152035227D01*
X92791166Y-152029563D01*
X92814221Y-152026144D01*
X92837500Y-152025000D01*
X93412500Y-152025000D01*
X93435779Y-152026144D01*
X93435779Y-152026144D01*
G37*
D17*
X93125000Y-152500000D03*
D16*
G36*
X101885779Y-152026144D02*
G01*
X101908834Y-152029563D01*
X101931443Y-152035227D01*
X101953387Y-152043079D01*
X101974457Y-152053044D01*
X101994448Y-152065026D01*
X102013168Y-152078910D01*
X102030438Y-152094562D01*
X102046090Y-152111832D01*
X102059974Y-152130552D01*
X102071956Y-152150543D01*
X102081921Y-152171613D01*
X102089773Y-152193557D01*
X102095437Y-152216166D01*
X102098856Y-152239221D01*
X102100000Y-152262500D01*
X102100000Y-152737500D01*
X102098856Y-152760779D01*
X102095437Y-152783834D01*
X102089773Y-152806443D01*
X102081921Y-152828387D01*
X102071956Y-152849457D01*
X102059974Y-152869448D01*
X102046090Y-152888168D01*
X102030438Y-152905438D01*
X102013168Y-152921090D01*
X101994448Y-152934974D01*
X101974457Y-152946956D01*
X101953387Y-152956921D01*
X101931443Y-152964773D01*
X101908834Y-152970437D01*
X101885779Y-152973856D01*
X101862500Y-152975000D01*
X101287500Y-152975000D01*
X101264221Y-152973856D01*
X101241166Y-152970437D01*
X101218557Y-152964773D01*
X101196613Y-152956921D01*
X101175543Y-152946956D01*
X101155552Y-152934974D01*
X101136832Y-152921090D01*
X101119562Y-152905438D01*
X101103910Y-152888168D01*
X101090026Y-152869448D01*
X101078044Y-152849457D01*
X101068079Y-152828387D01*
X101060227Y-152806443D01*
X101054563Y-152783834D01*
X101051144Y-152760779D01*
X101050000Y-152737500D01*
X101050000Y-152262500D01*
X101051144Y-152239221D01*
X101054563Y-152216166D01*
X101060227Y-152193557D01*
X101068079Y-152171613D01*
X101078044Y-152150543D01*
X101090026Y-152130552D01*
X101103910Y-152111832D01*
X101119562Y-152094562D01*
X101136832Y-152078910D01*
X101155552Y-152065026D01*
X101175543Y-152053044D01*
X101196613Y-152043079D01*
X101218557Y-152035227D01*
X101241166Y-152029563D01*
X101264221Y-152026144D01*
X101287500Y-152025000D01*
X101862500Y-152025000D01*
X101885779Y-152026144D01*
X101885779Y-152026144D01*
G37*
D17*
X101575000Y-152500000D03*
D16*
G36*
X100135779Y-152026144D02*
G01*
X100158834Y-152029563D01*
X100181443Y-152035227D01*
X100203387Y-152043079D01*
X100224457Y-152053044D01*
X100244448Y-152065026D01*
X100263168Y-152078910D01*
X100280438Y-152094562D01*
X100296090Y-152111832D01*
X100309974Y-152130552D01*
X100321956Y-152150543D01*
X100331921Y-152171613D01*
X100339773Y-152193557D01*
X100345437Y-152216166D01*
X100348856Y-152239221D01*
X100350000Y-152262500D01*
X100350000Y-152737500D01*
X100348856Y-152760779D01*
X100345437Y-152783834D01*
X100339773Y-152806443D01*
X100331921Y-152828387D01*
X100321956Y-152849457D01*
X100309974Y-152869448D01*
X100296090Y-152888168D01*
X100280438Y-152905438D01*
X100263168Y-152921090D01*
X100244448Y-152934974D01*
X100224457Y-152946956D01*
X100203387Y-152956921D01*
X100181443Y-152964773D01*
X100158834Y-152970437D01*
X100135779Y-152973856D01*
X100112500Y-152975000D01*
X99537500Y-152975000D01*
X99514221Y-152973856D01*
X99491166Y-152970437D01*
X99468557Y-152964773D01*
X99446613Y-152956921D01*
X99425543Y-152946956D01*
X99405552Y-152934974D01*
X99386832Y-152921090D01*
X99369562Y-152905438D01*
X99353910Y-152888168D01*
X99340026Y-152869448D01*
X99328044Y-152849457D01*
X99318079Y-152828387D01*
X99310227Y-152806443D01*
X99304563Y-152783834D01*
X99301144Y-152760779D01*
X99300000Y-152737500D01*
X99300000Y-152262500D01*
X99301144Y-152239221D01*
X99304563Y-152216166D01*
X99310227Y-152193557D01*
X99318079Y-152171613D01*
X99328044Y-152150543D01*
X99340026Y-152130552D01*
X99353910Y-152111832D01*
X99369562Y-152094562D01*
X99386832Y-152078910D01*
X99405552Y-152065026D01*
X99425543Y-152053044D01*
X99446613Y-152043079D01*
X99468557Y-152035227D01*
X99491166Y-152029563D01*
X99514221Y-152026144D01*
X99537500Y-152025000D01*
X100112500Y-152025000D01*
X100135779Y-152026144D01*
X100135779Y-152026144D01*
G37*
D17*
X99825000Y-152500000D03*
D16*
G36*
X92124505Y-138076204D02*
G01*
X92148773Y-138079804D01*
X92172572Y-138085765D01*
X92195671Y-138094030D01*
X92217850Y-138104520D01*
X92238893Y-138117132D01*
X92258599Y-138131747D01*
X92276777Y-138148223D01*
X92293253Y-138166401D01*
X92307868Y-138186107D01*
X92320480Y-138207150D01*
X92330970Y-138229329D01*
X92339235Y-138252428D01*
X92345196Y-138276227D01*
X92348796Y-138300495D01*
X92350000Y-138324999D01*
X92350000Y-138975001D01*
X92348796Y-138999505D01*
X92345196Y-139023773D01*
X92339235Y-139047572D01*
X92330970Y-139070671D01*
X92320480Y-139092850D01*
X92307868Y-139113893D01*
X92293253Y-139133599D01*
X92276777Y-139151777D01*
X92258599Y-139168253D01*
X92238893Y-139182868D01*
X92217850Y-139195480D01*
X92195671Y-139205970D01*
X92172572Y-139214235D01*
X92148773Y-139220196D01*
X92124505Y-139223796D01*
X92100001Y-139225000D01*
X91199999Y-139225000D01*
X91175495Y-139223796D01*
X91151227Y-139220196D01*
X91127428Y-139214235D01*
X91104329Y-139205970D01*
X91082150Y-139195480D01*
X91061107Y-139182868D01*
X91041401Y-139168253D01*
X91023223Y-139151777D01*
X91006747Y-139133599D01*
X90992132Y-139113893D01*
X90979520Y-139092850D01*
X90969030Y-139070671D01*
X90960765Y-139047572D01*
X90954804Y-139023773D01*
X90951204Y-138999505D01*
X90950000Y-138975001D01*
X90950000Y-138324999D01*
X90951204Y-138300495D01*
X90954804Y-138276227D01*
X90960765Y-138252428D01*
X90969030Y-138229329D01*
X90979520Y-138207150D01*
X90992132Y-138186107D01*
X91006747Y-138166401D01*
X91023223Y-138148223D01*
X91041401Y-138131747D01*
X91061107Y-138117132D01*
X91082150Y-138104520D01*
X91104329Y-138094030D01*
X91127428Y-138085765D01*
X91151227Y-138079804D01*
X91175495Y-138076204D01*
X91199999Y-138075000D01*
X92100001Y-138075000D01*
X92124505Y-138076204D01*
X92124505Y-138076204D01*
G37*
D18*
X91650000Y-138650000D03*
D16*
G36*
X92124505Y-140126204D02*
G01*
X92148773Y-140129804D01*
X92172572Y-140135765D01*
X92195671Y-140144030D01*
X92217850Y-140154520D01*
X92238893Y-140167132D01*
X92258599Y-140181747D01*
X92276777Y-140198223D01*
X92293253Y-140216401D01*
X92307868Y-140236107D01*
X92320480Y-140257150D01*
X92330970Y-140279329D01*
X92339235Y-140302428D01*
X92345196Y-140326227D01*
X92348796Y-140350495D01*
X92350000Y-140374999D01*
X92350000Y-141025001D01*
X92348796Y-141049505D01*
X92345196Y-141073773D01*
X92339235Y-141097572D01*
X92330970Y-141120671D01*
X92320480Y-141142850D01*
X92307868Y-141163893D01*
X92293253Y-141183599D01*
X92276777Y-141201777D01*
X92258599Y-141218253D01*
X92238893Y-141232868D01*
X92217850Y-141245480D01*
X92195671Y-141255970D01*
X92172572Y-141264235D01*
X92148773Y-141270196D01*
X92124505Y-141273796D01*
X92100001Y-141275000D01*
X91199999Y-141275000D01*
X91175495Y-141273796D01*
X91151227Y-141270196D01*
X91127428Y-141264235D01*
X91104329Y-141255970D01*
X91082150Y-141245480D01*
X91061107Y-141232868D01*
X91041401Y-141218253D01*
X91023223Y-141201777D01*
X91006747Y-141183599D01*
X90992132Y-141163893D01*
X90979520Y-141142850D01*
X90969030Y-141120671D01*
X90960765Y-141097572D01*
X90954804Y-141073773D01*
X90951204Y-141049505D01*
X90950000Y-141025001D01*
X90950000Y-140374999D01*
X90951204Y-140350495D01*
X90954804Y-140326227D01*
X90960765Y-140302428D01*
X90969030Y-140279329D01*
X90979520Y-140257150D01*
X90992132Y-140236107D01*
X91006747Y-140216401D01*
X91023223Y-140198223D01*
X91041401Y-140181747D01*
X91061107Y-140167132D01*
X91082150Y-140154520D01*
X91104329Y-140144030D01*
X91127428Y-140135765D01*
X91151227Y-140129804D01*
X91175495Y-140126204D01*
X91199999Y-140125000D01*
X92100001Y-140125000D01*
X92124505Y-140126204D01*
X92124505Y-140126204D01*
G37*
D18*
X91650000Y-140700000D03*
D16*
G36*
X86474505Y-138101204D02*
G01*
X86498773Y-138104804D01*
X86522572Y-138110765D01*
X86545671Y-138119030D01*
X86567850Y-138129520D01*
X86588893Y-138142132D01*
X86608599Y-138156747D01*
X86626777Y-138173223D01*
X86643253Y-138191401D01*
X86657868Y-138211107D01*
X86670480Y-138232150D01*
X86680970Y-138254329D01*
X86689235Y-138277428D01*
X86695196Y-138301227D01*
X86698796Y-138325495D01*
X86700000Y-138349999D01*
X86700000Y-139000001D01*
X86698796Y-139024505D01*
X86695196Y-139048773D01*
X86689235Y-139072572D01*
X86680970Y-139095671D01*
X86670480Y-139117850D01*
X86657868Y-139138893D01*
X86643253Y-139158599D01*
X86626777Y-139176777D01*
X86608599Y-139193253D01*
X86588893Y-139207868D01*
X86567850Y-139220480D01*
X86545671Y-139230970D01*
X86522572Y-139239235D01*
X86498773Y-139245196D01*
X86474505Y-139248796D01*
X86450001Y-139250000D01*
X85549999Y-139250000D01*
X85525495Y-139248796D01*
X85501227Y-139245196D01*
X85477428Y-139239235D01*
X85454329Y-139230970D01*
X85432150Y-139220480D01*
X85411107Y-139207868D01*
X85391401Y-139193253D01*
X85373223Y-139176777D01*
X85356747Y-139158599D01*
X85342132Y-139138893D01*
X85329520Y-139117850D01*
X85319030Y-139095671D01*
X85310765Y-139072572D01*
X85304804Y-139048773D01*
X85301204Y-139024505D01*
X85300000Y-139000001D01*
X85300000Y-138349999D01*
X85301204Y-138325495D01*
X85304804Y-138301227D01*
X85310765Y-138277428D01*
X85319030Y-138254329D01*
X85329520Y-138232150D01*
X85342132Y-138211107D01*
X85356747Y-138191401D01*
X85373223Y-138173223D01*
X85391401Y-138156747D01*
X85411107Y-138142132D01*
X85432150Y-138129520D01*
X85454329Y-138119030D01*
X85477428Y-138110765D01*
X85501227Y-138104804D01*
X85525495Y-138101204D01*
X85549999Y-138100000D01*
X86450001Y-138100000D01*
X86474505Y-138101204D01*
X86474505Y-138101204D01*
G37*
D18*
X86000000Y-138675000D03*
D16*
G36*
X86474505Y-140151204D02*
G01*
X86498773Y-140154804D01*
X86522572Y-140160765D01*
X86545671Y-140169030D01*
X86567850Y-140179520D01*
X86588893Y-140192132D01*
X86608599Y-140206747D01*
X86626777Y-140223223D01*
X86643253Y-140241401D01*
X86657868Y-140261107D01*
X86670480Y-140282150D01*
X86680970Y-140304329D01*
X86689235Y-140327428D01*
X86695196Y-140351227D01*
X86698796Y-140375495D01*
X86700000Y-140399999D01*
X86700000Y-141050001D01*
X86698796Y-141074505D01*
X86695196Y-141098773D01*
X86689235Y-141122572D01*
X86680970Y-141145671D01*
X86670480Y-141167850D01*
X86657868Y-141188893D01*
X86643253Y-141208599D01*
X86626777Y-141226777D01*
X86608599Y-141243253D01*
X86588893Y-141257868D01*
X86567850Y-141270480D01*
X86545671Y-141280970D01*
X86522572Y-141289235D01*
X86498773Y-141295196D01*
X86474505Y-141298796D01*
X86450001Y-141300000D01*
X85549999Y-141300000D01*
X85525495Y-141298796D01*
X85501227Y-141295196D01*
X85477428Y-141289235D01*
X85454329Y-141280970D01*
X85432150Y-141270480D01*
X85411107Y-141257868D01*
X85391401Y-141243253D01*
X85373223Y-141226777D01*
X85356747Y-141208599D01*
X85342132Y-141188893D01*
X85329520Y-141167850D01*
X85319030Y-141145671D01*
X85310765Y-141122572D01*
X85304804Y-141098773D01*
X85301204Y-141074505D01*
X85300000Y-141050001D01*
X85300000Y-140399999D01*
X85301204Y-140375495D01*
X85304804Y-140351227D01*
X85310765Y-140327428D01*
X85319030Y-140304329D01*
X85329520Y-140282150D01*
X85342132Y-140261107D01*
X85356747Y-140241401D01*
X85373223Y-140223223D01*
X85391401Y-140206747D01*
X85411107Y-140192132D01*
X85432150Y-140179520D01*
X85454329Y-140169030D01*
X85477428Y-140160765D01*
X85501227Y-140154804D01*
X85525495Y-140151204D01*
X85549999Y-140150000D01*
X86450001Y-140150000D01*
X86474505Y-140151204D01*
X86474505Y-140151204D01*
G37*
D18*
X86000000Y-140725000D03*
D16*
G36*
X103824505Y-138101204D02*
G01*
X103848773Y-138104804D01*
X103872572Y-138110765D01*
X103895671Y-138119030D01*
X103917850Y-138129520D01*
X103938893Y-138142132D01*
X103958599Y-138156747D01*
X103976777Y-138173223D01*
X103993253Y-138191401D01*
X104007868Y-138211107D01*
X104020480Y-138232150D01*
X104030970Y-138254329D01*
X104039235Y-138277428D01*
X104045196Y-138301227D01*
X104048796Y-138325495D01*
X104050000Y-138349999D01*
X104050000Y-139000001D01*
X104048796Y-139024505D01*
X104045196Y-139048773D01*
X104039235Y-139072572D01*
X104030970Y-139095671D01*
X104020480Y-139117850D01*
X104007868Y-139138893D01*
X103993253Y-139158599D01*
X103976777Y-139176777D01*
X103958599Y-139193253D01*
X103938893Y-139207868D01*
X103917850Y-139220480D01*
X103895671Y-139230970D01*
X103872572Y-139239235D01*
X103848773Y-139245196D01*
X103824505Y-139248796D01*
X103800001Y-139250000D01*
X102899999Y-139250000D01*
X102875495Y-139248796D01*
X102851227Y-139245196D01*
X102827428Y-139239235D01*
X102804329Y-139230970D01*
X102782150Y-139220480D01*
X102761107Y-139207868D01*
X102741401Y-139193253D01*
X102723223Y-139176777D01*
X102706747Y-139158599D01*
X102692132Y-139138893D01*
X102679520Y-139117850D01*
X102669030Y-139095671D01*
X102660765Y-139072572D01*
X102654804Y-139048773D01*
X102651204Y-139024505D01*
X102650000Y-139000001D01*
X102650000Y-138349999D01*
X102651204Y-138325495D01*
X102654804Y-138301227D01*
X102660765Y-138277428D01*
X102669030Y-138254329D01*
X102679520Y-138232150D01*
X102692132Y-138211107D01*
X102706747Y-138191401D01*
X102723223Y-138173223D01*
X102741401Y-138156747D01*
X102761107Y-138142132D01*
X102782150Y-138129520D01*
X102804329Y-138119030D01*
X102827428Y-138110765D01*
X102851227Y-138104804D01*
X102875495Y-138101204D01*
X102899999Y-138100000D01*
X103800001Y-138100000D01*
X103824505Y-138101204D01*
X103824505Y-138101204D01*
G37*
D18*
X103350000Y-138675000D03*
D16*
G36*
X103824505Y-140151204D02*
G01*
X103848773Y-140154804D01*
X103872572Y-140160765D01*
X103895671Y-140169030D01*
X103917850Y-140179520D01*
X103938893Y-140192132D01*
X103958599Y-140206747D01*
X103976777Y-140223223D01*
X103993253Y-140241401D01*
X104007868Y-140261107D01*
X104020480Y-140282150D01*
X104030970Y-140304329D01*
X104039235Y-140327428D01*
X104045196Y-140351227D01*
X104048796Y-140375495D01*
X104050000Y-140399999D01*
X104050000Y-141050001D01*
X104048796Y-141074505D01*
X104045196Y-141098773D01*
X104039235Y-141122572D01*
X104030970Y-141145671D01*
X104020480Y-141167850D01*
X104007868Y-141188893D01*
X103993253Y-141208599D01*
X103976777Y-141226777D01*
X103958599Y-141243253D01*
X103938893Y-141257868D01*
X103917850Y-141270480D01*
X103895671Y-141280970D01*
X103872572Y-141289235D01*
X103848773Y-141295196D01*
X103824505Y-141298796D01*
X103800001Y-141300000D01*
X102899999Y-141300000D01*
X102875495Y-141298796D01*
X102851227Y-141295196D01*
X102827428Y-141289235D01*
X102804329Y-141280970D01*
X102782150Y-141270480D01*
X102761107Y-141257868D01*
X102741401Y-141243253D01*
X102723223Y-141226777D01*
X102706747Y-141208599D01*
X102692132Y-141188893D01*
X102679520Y-141167850D01*
X102669030Y-141145671D01*
X102660765Y-141122572D01*
X102654804Y-141098773D01*
X102651204Y-141074505D01*
X102650000Y-141050001D01*
X102650000Y-140399999D01*
X102651204Y-140375495D01*
X102654804Y-140351227D01*
X102660765Y-140327428D01*
X102669030Y-140304329D01*
X102679520Y-140282150D01*
X102692132Y-140261107D01*
X102706747Y-140241401D01*
X102723223Y-140223223D01*
X102741401Y-140206747D01*
X102761107Y-140192132D01*
X102782150Y-140179520D01*
X102804329Y-140169030D01*
X102827428Y-140160765D01*
X102851227Y-140154804D01*
X102875495Y-140151204D01*
X102899999Y-140150000D01*
X103800001Y-140150000D01*
X103824505Y-140151204D01*
X103824505Y-140151204D01*
G37*
D18*
X103350000Y-140725000D03*
D16*
G36*
X109674505Y-138101204D02*
G01*
X109698773Y-138104804D01*
X109722572Y-138110765D01*
X109745671Y-138119030D01*
X109767850Y-138129520D01*
X109788893Y-138142132D01*
X109808599Y-138156747D01*
X109826777Y-138173223D01*
X109843253Y-138191401D01*
X109857868Y-138211107D01*
X109870480Y-138232150D01*
X109880970Y-138254329D01*
X109889235Y-138277428D01*
X109895196Y-138301227D01*
X109898796Y-138325495D01*
X109900000Y-138349999D01*
X109900000Y-139000001D01*
X109898796Y-139024505D01*
X109895196Y-139048773D01*
X109889235Y-139072572D01*
X109880970Y-139095671D01*
X109870480Y-139117850D01*
X109857868Y-139138893D01*
X109843253Y-139158599D01*
X109826777Y-139176777D01*
X109808599Y-139193253D01*
X109788893Y-139207868D01*
X109767850Y-139220480D01*
X109745671Y-139230970D01*
X109722572Y-139239235D01*
X109698773Y-139245196D01*
X109674505Y-139248796D01*
X109650001Y-139250000D01*
X108749999Y-139250000D01*
X108725495Y-139248796D01*
X108701227Y-139245196D01*
X108677428Y-139239235D01*
X108654329Y-139230970D01*
X108632150Y-139220480D01*
X108611107Y-139207868D01*
X108591401Y-139193253D01*
X108573223Y-139176777D01*
X108556747Y-139158599D01*
X108542132Y-139138893D01*
X108529520Y-139117850D01*
X108519030Y-139095671D01*
X108510765Y-139072572D01*
X108504804Y-139048773D01*
X108501204Y-139024505D01*
X108500000Y-139000001D01*
X108500000Y-138349999D01*
X108501204Y-138325495D01*
X108504804Y-138301227D01*
X108510765Y-138277428D01*
X108519030Y-138254329D01*
X108529520Y-138232150D01*
X108542132Y-138211107D01*
X108556747Y-138191401D01*
X108573223Y-138173223D01*
X108591401Y-138156747D01*
X108611107Y-138142132D01*
X108632150Y-138129520D01*
X108654329Y-138119030D01*
X108677428Y-138110765D01*
X108701227Y-138104804D01*
X108725495Y-138101204D01*
X108749999Y-138100000D01*
X109650001Y-138100000D01*
X109674505Y-138101204D01*
X109674505Y-138101204D01*
G37*
D18*
X109200000Y-138675000D03*
D16*
G36*
X109674505Y-140151204D02*
G01*
X109698773Y-140154804D01*
X109722572Y-140160765D01*
X109745671Y-140169030D01*
X109767850Y-140179520D01*
X109788893Y-140192132D01*
X109808599Y-140206747D01*
X109826777Y-140223223D01*
X109843253Y-140241401D01*
X109857868Y-140261107D01*
X109870480Y-140282150D01*
X109880970Y-140304329D01*
X109889235Y-140327428D01*
X109895196Y-140351227D01*
X109898796Y-140375495D01*
X109900000Y-140399999D01*
X109900000Y-141050001D01*
X109898796Y-141074505D01*
X109895196Y-141098773D01*
X109889235Y-141122572D01*
X109880970Y-141145671D01*
X109870480Y-141167850D01*
X109857868Y-141188893D01*
X109843253Y-141208599D01*
X109826777Y-141226777D01*
X109808599Y-141243253D01*
X109788893Y-141257868D01*
X109767850Y-141270480D01*
X109745671Y-141280970D01*
X109722572Y-141289235D01*
X109698773Y-141295196D01*
X109674505Y-141298796D01*
X109650001Y-141300000D01*
X108749999Y-141300000D01*
X108725495Y-141298796D01*
X108701227Y-141295196D01*
X108677428Y-141289235D01*
X108654329Y-141280970D01*
X108632150Y-141270480D01*
X108611107Y-141257868D01*
X108591401Y-141243253D01*
X108573223Y-141226777D01*
X108556747Y-141208599D01*
X108542132Y-141188893D01*
X108529520Y-141167850D01*
X108519030Y-141145671D01*
X108510765Y-141122572D01*
X108504804Y-141098773D01*
X108501204Y-141074505D01*
X108500000Y-141050001D01*
X108500000Y-140399999D01*
X108501204Y-140375495D01*
X108504804Y-140351227D01*
X108510765Y-140327428D01*
X108519030Y-140304329D01*
X108529520Y-140282150D01*
X108542132Y-140261107D01*
X108556747Y-140241401D01*
X108573223Y-140223223D01*
X108591401Y-140206747D01*
X108611107Y-140192132D01*
X108632150Y-140179520D01*
X108654329Y-140169030D01*
X108677428Y-140160765D01*
X108701227Y-140154804D01*
X108725495Y-140151204D01*
X108749999Y-140150000D01*
X109650001Y-140150000D01*
X109674505Y-140151204D01*
X109674505Y-140151204D01*
G37*
D18*
X109200000Y-140725000D03*
D16*
G36*
X96560779Y-140051144D02*
G01*
X96583834Y-140054563D01*
X96606443Y-140060227D01*
X96628387Y-140068079D01*
X96649457Y-140078044D01*
X96669448Y-140090026D01*
X96688168Y-140103910D01*
X96705438Y-140119562D01*
X96721090Y-140136832D01*
X96734974Y-140155552D01*
X96746956Y-140175543D01*
X96756921Y-140196613D01*
X96764773Y-140218557D01*
X96770437Y-140241166D01*
X96773856Y-140264221D01*
X96775000Y-140287500D01*
X96775000Y-140862500D01*
X96773856Y-140885779D01*
X96770437Y-140908834D01*
X96764773Y-140931443D01*
X96756921Y-140953387D01*
X96746956Y-140974457D01*
X96734974Y-140994448D01*
X96721090Y-141013168D01*
X96705438Y-141030438D01*
X96688168Y-141046090D01*
X96669448Y-141059974D01*
X96649457Y-141071956D01*
X96628387Y-141081921D01*
X96606443Y-141089773D01*
X96583834Y-141095437D01*
X96560779Y-141098856D01*
X96537500Y-141100000D01*
X96062500Y-141100000D01*
X96039221Y-141098856D01*
X96016166Y-141095437D01*
X95993557Y-141089773D01*
X95971613Y-141081921D01*
X95950543Y-141071956D01*
X95930552Y-141059974D01*
X95911832Y-141046090D01*
X95894562Y-141030438D01*
X95878910Y-141013168D01*
X95865026Y-140994448D01*
X95853044Y-140974457D01*
X95843079Y-140953387D01*
X95835227Y-140931443D01*
X95829563Y-140908834D01*
X95826144Y-140885779D01*
X95825000Y-140862500D01*
X95825000Y-140287500D01*
X95826144Y-140264221D01*
X95829563Y-140241166D01*
X95835227Y-140218557D01*
X95843079Y-140196613D01*
X95853044Y-140175543D01*
X95865026Y-140155552D01*
X95878910Y-140136832D01*
X95894562Y-140119562D01*
X95911832Y-140103910D01*
X95930552Y-140090026D01*
X95950543Y-140078044D01*
X95971613Y-140068079D01*
X95993557Y-140060227D01*
X96016166Y-140054563D01*
X96039221Y-140051144D01*
X96062500Y-140050000D01*
X96537500Y-140050000D01*
X96560779Y-140051144D01*
X96560779Y-140051144D01*
G37*
D17*
X96300000Y-140575000D03*
D16*
G36*
X96560779Y-138301144D02*
G01*
X96583834Y-138304563D01*
X96606443Y-138310227D01*
X96628387Y-138318079D01*
X96649457Y-138328044D01*
X96669448Y-138340026D01*
X96688168Y-138353910D01*
X96705438Y-138369562D01*
X96721090Y-138386832D01*
X96734974Y-138405552D01*
X96746956Y-138425543D01*
X96756921Y-138446613D01*
X96764773Y-138468557D01*
X96770437Y-138491166D01*
X96773856Y-138514221D01*
X96775000Y-138537500D01*
X96775000Y-139112500D01*
X96773856Y-139135779D01*
X96770437Y-139158834D01*
X96764773Y-139181443D01*
X96756921Y-139203387D01*
X96746956Y-139224457D01*
X96734974Y-139244448D01*
X96721090Y-139263168D01*
X96705438Y-139280438D01*
X96688168Y-139296090D01*
X96669448Y-139309974D01*
X96649457Y-139321956D01*
X96628387Y-139331921D01*
X96606443Y-139339773D01*
X96583834Y-139345437D01*
X96560779Y-139348856D01*
X96537500Y-139350000D01*
X96062500Y-139350000D01*
X96039221Y-139348856D01*
X96016166Y-139345437D01*
X95993557Y-139339773D01*
X95971613Y-139331921D01*
X95950543Y-139321956D01*
X95930552Y-139309974D01*
X95911832Y-139296090D01*
X95894562Y-139280438D01*
X95878910Y-139263168D01*
X95865026Y-139244448D01*
X95853044Y-139224457D01*
X95843079Y-139203387D01*
X95835227Y-139181443D01*
X95829563Y-139158834D01*
X95826144Y-139135779D01*
X95825000Y-139112500D01*
X95825000Y-138537500D01*
X95826144Y-138514221D01*
X95829563Y-138491166D01*
X95835227Y-138468557D01*
X95843079Y-138446613D01*
X95853044Y-138425543D01*
X95865026Y-138405552D01*
X95878910Y-138386832D01*
X95894562Y-138369562D01*
X95911832Y-138353910D01*
X95930552Y-138340026D01*
X95950543Y-138328044D01*
X95971613Y-138318079D01*
X95993557Y-138310227D01*
X96016166Y-138304563D01*
X96039221Y-138301144D01*
X96062500Y-138300000D01*
X96537500Y-138300000D01*
X96560779Y-138301144D01*
X96560779Y-138301144D01*
G37*
D17*
X96300000Y-138825000D03*
D19*
X96300000Y-147750000D03*
X93300000Y-146800000D03*
X93300000Y-148700000D03*
X103450000Y-148700000D03*
X106450000Y-149650000D03*
X106450000Y-147750000D03*
D16*
G36*
X79674505Y-150051204D02*
G01*
X79698773Y-150054804D01*
X79722572Y-150060765D01*
X79745671Y-150069030D01*
X79767850Y-150079520D01*
X79788893Y-150092132D01*
X79808599Y-150106747D01*
X79826777Y-150123223D01*
X79843253Y-150141401D01*
X79857868Y-150161107D01*
X79870480Y-150182150D01*
X79880970Y-150204329D01*
X79889235Y-150227428D01*
X79895196Y-150251227D01*
X79898796Y-150275495D01*
X79900000Y-150299999D01*
X79900000Y-150950001D01*
X79898796Y-150974505D01*
X79895196Y-150998773D01*
X79889235Y-151022572D01*
X79880970Y-151045671D01*
X79870480Y-151067850D01*
X79857868Y-151088893D01*
X79843253Y-151108599D01*
X79826777Y-151126777D01*
X79808599Y-151143253D01*
X79788893Y-151157868D01*
X79767850Y-151170480D01*
X79745671Y-151180970D01*
X79722572Y-151189235D01*
X79698773Y-151195196D01*
X79674505Y-151198796D01*
X79650001Y-151200000D01*
X78749999Y-151200000D01*
X78725495Y-151198796D01*
X78701227Y-151195196D01*
X78677428Y-151189235D01*
X78654329Y-151180970D01*
X78632150Y-151170480D01*
X78611107Y-151157868D01*
X78591401Y-151143253D01*
X78573223Y-151126777D01*
X78556747Y-151108599D01*
X78542132Y-151088893D01*
X78529520Y-151067850D01*
X78519030Y-151045671D01*
X78510765Y-151022572D01*
X78504804Y-150998773D01*
X78501204Y-150974505D01*
X78500000Y-150950001D01*
X78500000Y-150299999D01*
X78501204Y-150275495D01*
X78504804Y-150251227D01*
X78510765Y-150227428D01*
X78519030Y-150204329D01*
X78529520Y-150182150D01*
X78542132Y-150161107D01*
X78556747Y-150141401D01*
X78573223Y-150123223D01*
X78591401Y-150106747D01*
X78611107Y-150092132D01*
X78632150Y-150079520D01*
X78654329Y-150069030D01*
X78677428Y-150060765D01*
X78701227Y-150054804D01*
X78725495Y-150051204D01*
X78749999Y-150050000D01*
X79650001Y-150050000D01*
X79674505Y-150051204D01*
X79674505Y-150051204D01*
G37*
D18*
X79200000Y-150625000D03*
D16*
G36*
X79674505Y-148001204D02*
G01*
X79698773Y-148004804D01*
X79722572Y-148010765D01*
X79745671Y-148019030D01*
X79767850Y-148029520D01*
X79788893Y-148042132D01*
X79808599Y-148056747D01*
X79826777Y-148073223D01*
X79843253Y-148091401D01*
X79857868Y-148111107D01*
X79870480Y-148132150D01*
X79880970Y-148154329D01*
X79889235Y-148177428D01*
X79895196Y-148201227D01*
X79898796Y-148225495D01*
X79900000Y-148249999D01*
X79900000Y-148900001D01*
X79898796Y-148924505D01*
X79895196Y-148948773D01*
X79889235Y-148972572D01*
X79880970Y-148995671D01*
X79870480Y-149017850D01*
X79857868Y-149038893D01*
X79843253Y-149058599D01*
X79826777Y-149076777D01*
X79808599Y-149093253D01*
X79788893Y-149107868D01*
X79767850Y-149120480D01*
X79745671Y-149130970D01*
X79722572Y-149139235D01*
X79698773Y-149145196D01*
X79674505Y-149148796D01*
X79650001Y-149150000D01*
X78749999Y-149150000D01*
X78725495Y-149148796D01*
X78701227Y-149145196D01*
X78677428Y-149139235D01*
X78654329Y-149130970D01*
X78632150Y-149120480D01*
X78611107Y-149107868D01*
X78591401Y-149093253D01*
X78573223Y-149076777D01*
X78556747Y-149058599D01*
X78542132Y-149038893D01*
X78529520Y-149017850D01*
X78519030Y-148995671D01*
X78510765Y-148972572D01*
X78504804Y-148948773D01*
X78501204Y-148924505D01*
X78500000Y-148900001D01*
X78500000Y-148249999D01*
X78501204Y-148225495D01*
X78504804Y-148201227D01*
X78510765Y-148177428D01*
X78519030Y-148154329D01*
X78529520Y-148132150D01*
X78542132Y-148111107D01*
X78556747Y-148091401D01*
X78573223Y-148073223D01*
X78591401Y-148056747D01*
X78611107Y-148042132D01*
X78632150Y-148029520D01*
X78654329Y-148019030D01*
X78677428Y-148010765D01*
X78701227Y-148004804D01*
X78725495Y-148001204D01*
X78749999Y-148000000D01*
X79650001Y-148000000D01*
X79674505Y-148001204D01*
X79674505Y-148001204D01*
G37*
D18*
X79200000Y-148575000D03*
D16*
G36*
X137245881Y-100000289D02*
G01*
X137251705Y-100001153D01*
X137257417Y-100002584D01*
X137262961Y-100004567D01*
X137268284Y-100007085D01*
X137273334Y-100010112D01*
X137278064Y-100013619D01*
X137282426Y-100017574D01*
X137286381Y-100021936D01*
X137289888Y-100026666D01*
X137292915Y-100031716D01*
X137295433Y-100037039D01*
X137297416Y-100042583D01*
X137298847Y-100048295D01*
X137299711Y-100054119D01*
X137300000Y-100060000D01*
X137300000Y-100540000D01*
X137299711Y-100545881D01*
X137298847Y-100551705D01*
X137297416Y-100557417D01*
X137295433Y-100562961D01*
X137292915Y-100568284D01*
X137289888Y-100573334D01*
X137286381Y-100578064D01*
X137282426Y-100582426D01*
X137278064Y-100586381D01*
X137273334Y-100589888D01*
X137268284Y-100592915D01*
X137262961Y-100595433D01*
X137257417Y-100597416D01*
X137251705Y-100598847D01*
X137245881Y-100599711D01*
X137240000Y-100600000D01*
X136560000Y-100600000D01*
X136554119Y-100599711D01*
X136548295Y-100598847D01*
X136542583Y-100597416D01*
X136537039Y-100595433D01*
X136531716Y-100592915D01*
X136526666Y-100589888D01*
X136521936Y-100586381D01*
X136517574Y-100582426D01*
X136513619Y-100578064D01*
X136510112Y-100573334D01*
X136507085Y-100568284D01*
X136504567Y-100562961D01*
X136502584Y-100557417D01*
X136501153Y-100551705D01*
X136500289Y-100545881D01*
X136500000Y-100540000D01*
X136500000Y-100060000D01*
X136500289Y-100054119D01*
X136501153Y-100048295D01*
X136502584Y-100042583D01*
X136504567Y-100037039D01*
X136507085Y-100031716D01*
X136510112Y-100026666D01*
X136513619Y-100021936D01*
X136517574Y-100017574D01*
X136521936Y-100013619D01*
X136526666Y-100010112D01*
X136531716Y-100007085D01*
X136537039Y-100004567D01*
X136542583Y-100002584D01*
X136548295Y-100001153D01*
X136554119Y-100000289D01*
X136560000Y-100000000D01*
X137240000Y-100000000D01*
X137245881Y-100000289D01*
X137245881Y-100000289D01*
G37*
D20*
X136900000Y-100300000D03*
D16*
G36*
X135818822Y-99700433D02*
G01*
X135827558Y-99701729D01*
X135836126Y-99703875D01*
X135844442Y-99706851D01*
X135852426Y-99710627D01*
X135860001Y-99715168D01*
X135867095Y-99720429D01*
X135873640Y-99726360D01*
X135879571Y-99732905D01*
X135884832Y-99739999D01*
X135889373Y-99747574D01*
X135893149Y-99755558D01*
X135896125Y-99763874D01*
X135898271Y-99772442D01*
X135899567Y-99781178D01*
X135900000Y-99790000D01*
X135900000Y-100510000D01*
X135899567Y-100518822D01*
X135898271Y-100527558D01*
X135896125Y-100536126D01*
X135893149Y-100544442D01*
X135889373Y-100552426D01*
X135884832Y-100560001D01*
X135879571Y-100567095D01*
X135873640Y-100573640D01*
X135867095Y-100579571D01*
X135860001Y-100584832D01*
X135852426Y-100589373D01*
X135844442Y-100593149D01*
X135836126Y-100596125D01*
X135827558Y-100598271D01*
X135818822Y-100599567D01*
X135810000Y-100600000D01*
X134990000Y-100600000D01*
X134981178Y-100599567D01*
X134972442Y-100598271D01*
X134963874Y-100596125D01*
X134955558Y-100593149D01*
X134947574Y-100589373D01*
X134939999Y-100584832D01*
X134932905Y-100579571D01*
X134926360Y-100573640D01*
X134920429Y-100567095D01*
X134915168Y-100560001D01*
X134910627Y-100552426D01*
X134906851Y-100544442D01*
X134903875Y-100536126D01*
X134901729Y-100527558D01*
X134900433Y-100518822D01*
X134900000Y-100510000D01*
X134900000Y-99790000D01*
X134900433Y-99781178D01*
X134901729Y-99772442D01*
X134903875Y-99763874D01*
X134906851Y-99755558D01*
X134910627Y-99747574D01*
X134915168Y-99739999D01*
X134920429Y-99732905D01*
X134926360Y-99726360D01*
X134932905Y-99720429D01*
X134939999Y-99715168D01*
X134947574Y-99710627D01*
X134955558Y-99706851D01*
X134963874Y-99703875D01*
X134972442Y-99701729D01*
X134981178Y-99700433D01*
X134990000Y-99700000D01*
X135810000Y-99700000D01*
X135818822Y-99700433D01*
X135818822Y-99700433D01*
G37*
D21*
X135400000Y-100150000D03*
D16*
G36*
X138818822Y-99700433D02*
G01*
X138827558Y-99701729D01*
X138836126Y-99703875D01*
X138844442Y-99706851D01*
X138852426Y-99710627D01*
X138860001Y-99715168D01*
X138867095Y-99720429D01*
X138873640Y-99726360D01*
X138879571Y-99732905D01*
X138884832Y-99739999D01*
X138889373Y-99747574D01*
X138893149Y-99755558D01*
X138896125Y-99763874D01*
X138898271Y-99772442D01*
X138899567Y-99781178D01*
X138900000Y-99790000D01*
X138900000Y-100510000D01*
X138899567Y-100518822D01*
X138898271Y-100527558D01*
X138896125Y-100536126D01*
X138893149Y-100544442D01*
X138889373Y-100552426D01*
X138884832Y-100560001D01*
X138879571Y-100567095D01*
X138873640Y-100573640D01*
X138867095Y-100579571D01*
X138860001Y-100584832D01*
X138852426Y-100589373D01*
X138844442Y-100593149D01*
X138836126Y-100596125D01*
X138827558Y-100598271D01*
X138818822Y-100599567D01*
X138810000Y-100600000D01*
X137990000Y-100600000D01*
X137981178Y-100599567D01*
X137972442Y-100598271D01*
X137963874Y-100596125D01*
X137955558Y-100593149D01*
X137947574Y-100589373D01*
X137939999Y-100584832D01*
X137932905Y-100579571D01*
X137926360Y-100573640D01*
X137920429Y-100567095D01*
X137915168Y-100560001D01*
X137910627Y-100552426D01*
X137906851Y-100544442D01*
X137903875Y-100536126D01*
X137901729Y-100527558D01*
X137900433Y-100518822D01*
X137900000Y-100510000D01*
X137900000Y-99790000D01*
X137900433Y-99781178D01*
X137901729Y-99772442D01*
X137903875Y-99763874D01*
X137906851Y-99755558D01*
X137910627Y-99747574D01*
X137915168Y-99739999D01*
X137920429Y-99732905D01*
X137926360Y-99726360D01*
X137932905Y-99720429D01*
X137939999Y-99715168D01*
X137947574Y-99710627D01*
X137955558Y-99706851D01*
X137963874Y-99703875D01*
X137972442Y-99701729D01*
X137981178Y-99700433D01*
X137990000Y-99700000D01*
X138810000Y-99700000D01*
X138818822Y-99700433D01*
X138818822Y-99700433D01*
G37*
D21*
X138400000Y-100150000D03*
D16*
G36*
X132382857Y-85734621D02*
G01*
X132388691Y-85735422D01*
X132394418Y-85736790D01*
X132399983Y-85738713D01*
X132405333Y-85741172D01*
X132410416Y-85744144D01*
X132415183Y-85747600D01*
X132419589Y-85751506D01*
X132423591Y-85755826D01*
X132732129Y-86123527D01*
X132735688Y-86128218D01*
X132738770Y-86133235D01*
X132741345Y-86138530D01*
X132743389Y-86144052D01*
X132744882Y-86149747D01*
X132745809Y-86155562D01*
X132746162Y-86161439D01*
X132745938Y-86167323D01*
X132745137Y-86173157D01*
X132743769Y-86178884D01*
X132741846Y-86184449D01*
X132739387Y-86189799D01*
X132736415Y-86194882D01*
X132732959Y-86199649D01*
X132729053Y-86204055D01*
X132724733Y-86208057D01*
X132203823Y-86645152D01*
X132199132Y-86648711D01*
X132194115Y-86651793D01*
X132188820Y-86654368D01*
X132183298Y-86656412D01*
X132177603Y-86657905D01*
X132171788Y-86658832D01*
X132165910Y-86659185D01*
X132160027Y-86658961D01*
X132154193Y-86658160D01*
X132148466Y-86656792D01*
X132142901Y-86654869D01*
X132137551Y-86652410D01*
X132132468Y-86649438D01*
X132127701Y-86645982D01*
X132123295Y-86642076D01*
X132119293Y-86637756D01*
X131810755Y-86270055D01*
X131807196Y-86265364D01*
X131804114Y-86260347D01*
X131801539Y-86255052D01*
X131799495Y-86249530D01*
X131798002Y-86243835D01*
X131797075Y-86238020D01*
X131796722Y-86232143D01*
X131796946Y-86226259D01*
X131797747Y-86220425D01*
X131799115Y-86214698D01*
X131801038Y-86209133D01*
X131803497Y-86203783D01*
X131806469Y-86198700D01*
X131809925Y-86193933D01*
X131813831Y-86189527D01*
X131818151Y-86185525D01*
X132339061Y-85748430D01*
X132343752Y-85744871D01*
X132348769Y-85741789D01*
X132354064Y-85739214D01*
X132359586Y-85737170D01*
X132365281Y-85735677D01*
X132371096Y-85734750D01*
X132376974Y-85734397D01*
X132382857Y-85734621D01*
X132382857Y-85734621D01*
G37*
D20*
X132271442Y-86196791D03*
D16*
G36*
X133607446Y-84718539D02*
G01*
X133616196Y-84719740D01*
X133624787Y-84721793D01*
X133633134Y-84724677D01*
X133641159Y-84728366D01*
X133648784Y-84732824D01*
X133655935Y-84738007D01*
X133662544Y-84743867D01*
X133668546Y-84750346D01*
X134131353Y-85301898D01*
X134136691Y-85308934D01*
X134141314Y-85316460D01*
X134145178Y-85324403D01*
X134148244Y-85332685D01*
X134150483Y-85341229D01*
X134151874Y-85349951D01*
X134152404Y-85358767D01*
X134152067Y-85367593D01*
X134150866Y-85376343D01*
X134148813Y-85384934D01*
X134145929Y-85393281D01*
X134142240Y-85401306D01*
X134137782Y-85408931D01*
X134132599Y-85416082D01*
X134126739Y-85422691D01*
X134120260Y-85428693D01*
X133492103Y-85955779D01*
X133485067Y-85961117D01*
X133477541Y-85965740D01*
X133469598Y-85969604D01*
X133461315Y-85972670D01*
X133452772Y-85974909D01*
X133444050Y-85976300D01*
X133435234Y-85976830D01*
X133426408Y-85976493D01*
X133417658Y-85975292D01*
X133409067Y-85973239D01*
X133400720Y-85970355D01*
X133392695Y-85966666D01*
X133385070Y-85962208D01*
X133377919Y-85957025D01*
X133371310Y-85951165D01*
X133365308Y-85944686D01*
X132902501Y-85393134D01*
X132897163Y-85386098D01*
X132892540Y-85378572D01*
X132888676Y-85370629D01*
X132885610Y-85362347D01*
X132883371Y-85353803D01*
X132881980Y-85345081D01*
X132881450Y-85336265D01*
X132881787Y-85327439D01*
X132882988Y-85318689D01*
X132885041Y-85310098D01*
X132887925Y-85301751D01*
X132891614Y-85293726D01*
X132896072Y-85286101D01*
X132901255Y-85278950D01*
X132907115Y-85272341D01*
X132913594Y-85266339D01*
X133541751Y-84739253D01*
X133548787Y-84733915D01*
X133556313Y-84729292D01*
X133564256Y-84725428D01*
X133572539Y-84722362D01*
X133581082Y-84720123D01*
X133589804Y-84718732D01*
X133598620Y-84718202D01*
X133607446Y-84718539D01*
X133607446Y-84718539D01*
G37*
D21*
X133516927Y-85347516D03*
D16*
G36*
X131309313Y-86646902D02*
G01*
X131318063Y-86648103D01*
X131326654Y-86650156D01*
X131335001Y-86653040D01*
X131343026Y-86656729D01*
X131350651Y-86661187D01*
X131357802Y-86666370D01*
X131364411Y-86672230D01*
X131370413Y-86678709D01*
X131833220Y-87230261D01*
X131838558Y-87237297D01*
X131843181Y-87244823D01*
X131847045Y-87252766D01*
X131850111Y-87261048D01*
X131852350Y-87269592D01*
X131853741Y-87278314D01*
X131854271Y-87287130D01*
X131853934Y-87295956D01*
X131852733Y-87304706D01*
X131850680Y-87313297D01*
X131847796Y-87321644D01*
X131844107Y-87329669D01*
X131839649Y-87337294D01*
X131834466Y-87344445D01*
X131828606Y-87351054D01*
X131822127Y-87357056D01*
X131193970Y-87884142D01*
X131186934Y-87889480D01*
X131179408Y-87894103D01*
X131171465Y-87897967D01*
X131163182Y-87901033D01*
X131154639Y-87903272D01*
X131145917Y-87904663D01*
X131137101Y-87905193D01*
X131128275Y-87904856D01*
X131119525Y-87903655D01*
X131110934Y-87901602D01*
X131102587Y-87898718D01*
X131094562Y-87895029D01*
X131086937Y-87890571D01*
X131079786Y-87885388D01*
X131073177Y-87879528D01*
X131067175Y-87873049D01*
X130604368Y-87321497D01*
X130599030Y-87314461D01*
X130594407Y-87306935D01*
X130590543Y-87298992D01*
X130587477Y-87290710D01*
X130585238Y-87282166D01*
X130583847Y-87273444D01*
X130583317Y-87264628D01*
X130583654Y-87255802D01*
X130584855Y-87247052D01*
X130586908Y-87238461D01*
X130589792Y-87230114D01*
X130593481Y-87222089D01*
X130597939Y-87214464D01*
X130603122Y-87207313D01*
X130608982Y-87200704D01*
X130615461Y-87194702D01*
X131243618Y-86667616D01*
X131250654Y-86662278D01*
X131258180Y-86657655D01*
X131266123Y-86653791D01*
X131274406Y-86650725D01*
X131282949Y-86648486D01*
X131291671Y-86647095D01*
X131300487Y-86646565D01*
X131309313Y-86646902D01*
X131309313Y-86646902D01*
G37*
D21*
X131218794Y-87275879D03*
D16*
G36*
X141428904Y-85734750D02*
G01*
X141434719Y-85735677D01*
X141440414Y-85737170D01*
X141445936Y-85739214D01*
X141451231Y-85741789D01*
X141456248Y-85744871D01*
X141460939Y-85748430D01*
X141981849Y-86185525D01*
X141986169Y-86189527D01*
X141990075Y-86193933D01*
X141993531Y-86198700D01*
X141996503Y-86203783D01*
X141998962Y-86209133D01*
X142000885Y-86214698D01*
X142002253Y-86220425D01*
X142003054Y-86226259D01*
X142003278Y-86232142D01*
X142002925Y-86238020D01*
X142001998Y-86243835D01*
X142000505Y-86249530D01*
X141998461Y-86255052D01*
X141995886Y-86260347D01*
X141992804Y-86265364D01*
X141989245Y-86270055D01*
X141680707Y-86637756D01*
X141676705Y-86642076D01*
X141672299Y-86645982D01*
X141667532Y-86649438D01*
X141662449Y-86652410D01*
X141657099Y-86654869D01*
X141651534Y-86656792D01*
X141645807Y-86658160D01*
X141639973Y-86658961D01*
X141634089Y-86659185D01*
X141628212Y-86658832D01*
X141622397Y-86657905D01*
X141616702Y-86656412D01*
X141611180Y-86654368D01*
X141605885Y-86651793D01*
X141600868Y-86648711D01*
X141596177Y-86645152D01*
X141075267Y-86208057D01*
X141070947Y-86204055D01*
X141067041Y-86199649D01*
X141063585Y-86194882D01*
X141060613Y-86189799D01*
X141058154Y-86184449D01*
X141056231Y-86178884D01*
X141054863Y-86173157D01*
X141054062Y-86167323D01*
X141053838Y-86161440D01*
X141054191Y-86155562D01*
X141055118Y-86149747D01*
X141056611Y-86144052D01*
X141058655Y-86138530D01*
X141061230Y-86133235D01*
X141064312Y-86128218D01*
X141067871Y-86123527D01*
X141376409Y-85755826D01*
X141380411Y-85751506D01*
X141384817Y-85747600D01*
X141389584Y-85744144D01*
X141394667Y-85741172D01*
X141400017Y-85738713D01*
X141405582Y-85736790D01*
X141411309Y-85735422D01*
X141417143Y-85734621D01*
X141423027Y-85734397D01*
X141428904Y-85734750D01*
X141428904Y-85734750D01*
G37*
D20*
X141528558Y-86196791D03*
D16*
G36*
X142508329Y-86647095D02*
G01*
X142517051Y-86648486D01*
X142525595Y-86650725D01*
X142533877Y-86653791D01*
X142541820Y-86657655D01*
X142549346Y-86662278D01*
X142556382Y-86667616D01*
X143184539Y-87194702D01*
X143191018Y-87200704D01*
X143196878Y-87207313D01*
X143202061Y-87214464D01*
X143206519Y-87222089D01*
X143210208Y-87230114D01*
X143213092Y-87238461D01*
X143215145Y-87247052D01*
X143216346Y-87255802D01*
X143216683Y-87264628D01*
X143216153Y-87273444D01*
X143214762Y-87282166D01*
X143212523Y-87290709D01*
X143209457Y-87298992D01*
X143205593Y-87306935D01*
X143200970Y-87314461D01*
X143195632Y-87321497D01*
X142732825Y-87873049D01*
X142726823Y-87879528D01*
X142720214Y-87885388D01*
X142713063Y-87890571D01*
X142705438Y-87895029D01*
X142697413Y-87898718D01*
X142689066Y-87901602D01*
X142680475Y-87903655D01*
X142671725Y-87904856D01*
X142662899Y-87905193D01*
X142654083Y-87904663D01*
X142645361Y-87903272D01*
X142636817Y-87901033D01*
X142628535Y-87897967D01*
X142620592Y-87894103D01*
X142613066Y-87889480D01*
X142606030Y-87884142D01*
X141977873Y-87357056D01*
X141971394Y-87351054D01*
X141965534Y-87344445D01*
X141960351Y-87337294D01*
X141955893Y-87329669D01*
X141952204Y-87321644D01*
X141949320Y-87313297D01*
X141947267Y-87304706D01*
X141946066Y-87295956D01*
X141945729Y-87287130D01*
X141946259Y-87278314D01*
X141947650Y-87269592D01*
X141949889Y-87261049D01*
X141952955Y-87252766D01*
X141956819Y-87244823D01*
X141961442Y-87237297D01*
X141966780Y-87230261D01*
X142429587Y-86678709D01*
X142435589Y-86672230D01*
X142442198Y-86666370D01*
X142449349Y-86661187D01*
X142456974Y-86656729D01*
X142464999Y-86653040D01*
X142473346Y-86650156D01*
X142481937Y-86648103D01*
X142490687Y-86646902D01*
X142499513Y-86646565D01*
X142508329Y-86647095D01*
X142508329Y-86647095D01*
G37*
D21*
X142581206Y-87275879D03*
D16*
G36*
X140210196Y-84718732D02*
G01*
X140218918Y-84720123D01*
X140227462Y-84722362D01*
X140235744Y-84725428D01*
X140243687Y-84729292D01*
X140251213Y-84733915D01*
X140258249Y-84739253D01*
X140886406Y-85266339D01*
X140892885Y-85272341D01*
X140898745Y-85278950D01*
X140903928Y-85286101D01*
X140908386Y-85293726D01*
X140912075Y-85301751D01*
X140914959Y-85310098D01*
X140917012Y-85318689D01*
X140918213Y-85327439D01*
X140918550Y-85336265D01*
X140918020Y-85345081D01*
X140916629Y-85353803D01*
X140914390Y-85362346D01*
X140911324Y-85370629D01*
X140907460Y-85378572D01*
X140902837Y-85386098D01*
X140897499Y-85393134D01*
X140434692Y-85944686D01*
X140428690Y-85951165D01*
X140422081Y-85957025D01*
X140414930Y-85962208D01*
X140407305Y-85966666D01*
X140399280Y-85970355D01*
X140390933Y-85973239D01*
X140382342Y-85975292D01*
X140373592Y-85976493D01*
X140364766Y-85976830D01*
X140355950Y-85976300D01*
X140347228Y-85974909D01*
X140338684Y-85972670D01*
X140330402Y-85969604D01*
X140322459Y-85965740D01*
X140314933Y-85961117D01*
X140307897Y-85955779D01*
X139679740Y-85428693D01*
X139673261Y-85422691D01*
X139667401Y-85416082D01*
X139662218Y-85408931D01*
X139657760Y-85401306D01*
X139654071Y-85393281D01*
X139651187Y-85384934D01*
X139649134Y-85376343D01*
X139647933Y-85367593D01*
X139647596Y-85358767D01*
X139648126Y-85349951D01*
X139649517Y-85341229D01*
X139651756Y-85332686D01*
X139654822Y-85324403D01*
X139658686Y-85316460D01*
X139663309Y-85308934D01*
X139668647Y-85301898D01*
X140131454Y-84750346D01*
X140137456Y-84743867D01*
X140144065Y-84738007D01*
X140151216Y-84732824D01*
X140158841Y-84728366D01*
X140166866Y-84724677D01*
X140175213Y-84721793D01*
X140183804Y-84719740D01*
X140192554Y-84718539D01*
X140201380Y-84718202D01*
X140210196Y-84718732D01*
X140210196Y-84718732D01*
G37*
D21*
X140283073Y-85347516D03*
D16*
G36*
X123145881Y-143400289D02*
G01*
X123151705Y-143401153D01*
X123157417Y-143402584D01*
X123162961Y-143404567D01*
X123168284Y-143407085D01*
X123173334Y-143410112D01*
X123178064Y-143413619D01*
X123182426Y-143417574D01*
X123186381Y-143421936D01*
X123189888Y-143426666D01*
X123192915Y-143431716D01*
X123195433Y-143437039D01*
X123197416Y-143442583D01*
X123198847Y-143448295D01*
X123199711Y-143454119D01*
X123200000Y-143460000D01*
X123200000Y-143940000D01*
X123199711Y-143945881D01*
X123198847Y-143951705D01*
X123197416Y-143957417D01*
X123195433Y-143962961D01*
X123192915Y-143968284D01*
X123189888Y-143973334D01*
X123186381Y-143978064D01*
X123182426Y-143982426D01*
X123178064Y-143986381D01*
X123173334Y-143989888D01*
X123168284Y-143992915D01*
X123162961Y-143995433D01*
X123157417Y-143997416D01*
X123151705Y-143998847D01*
X123145881Y-143999711D01*
X123140000Y-144000000D01*
X122460000Y-144000000D01*
X122454119Y-143999711D01*
X122448295Y-143998847D01*
X122442583Y-143997416D01*
X122437039Y-143995433D01*
X122431716Y-143992915D01*
X122426666Y-143989888D01*
X122421936Y-143986381D01*
X122417574Y-143982426D01*
X122413619Y-143978064D01*
X122410112Y-143973334D01*
X122407085Y-143968284D01*
X122404567Y-143962961D01*
X122402584Y-143957417D01*
X122401153Y-143951705D01*
X122400289Y-143945881D01*
X122400000Y-143940000D01*
X122400000Y-143460000D01*
X122400289Y-143454119D01*
X122401153Y-143448295D01*
X122402584Y-143442583D01*
X122404567Y-143437039D01*
X122407085Y-143431716D01*
X122410112Y-143426666D01*
X122413619Y-143421936D01*
X122417574Y-143417574D01*
X122421936Y-143413619D01*
X122426666Y-143410112D01*
X122431716Y-143407085D01*
X122437039Y-143404567D01*
X122442583Y-143402584D01*
X122448295Y-143401153D01*
X122454119Y-143400289D01*
X122460000Y-143400000D01*
X123140000Y-143400000D01*
X123145881Y-143400289D01*
X123145881Y-143400289D01*
G37*
D20*
X122800000Y-143700000D03*
D16*
G36*
X121718822Y-143100433D02*
G01*
X121727558Y-143101729D01*
X121736126Y-143103875D01*
X121744442Y-143106851D01*
X121752426Y-143110627D01*
X121760001Y-143115168D01*
X121767095Y-143120429D01*
X121773640Y-143126360D01*
X121779571Y-143132905D01*
X121784832Y-143139999D01*
X121789373Y-143147574D01*
X121793149Y-143155558D01*
X121796125Y-143163874D01*
X121798271Y-143172442D01*
X121799567Y-143181178D01*
X121800000Y-143190000D01*
X121800000Y-143910000D01*
X121799567Y-143918822D01*
X121798271Y-143927558D01*
X121796125Y-143936126D01*
X121793149Y-143944442D01*
X121789373Y-143952426D01*
X121784832Y-143960001D01*
X121779571Y-143967095D01*
X121773640Y-143973640D01*
X121767095Y-143979571D01*
X121760001Y-143984832D01*
X121752426Y-143989373D01*
X121744442Y-143993149D01*
X121736126Y-143996125D01*
X121727558Y-143998271D01*
X121718822Y-143999567D01*
X121710000Y-144000000D01*
X120890000Y-144000000D01*
X120881178Y-143999567D01*
X120872442Y-143998271D01*
X120863874Y-143996125D01*
X120855558Y-143993149D01*
X120847574Y-143989373D01*
X120839999Y-143984832D01*
X120832905Y-143979571D01*
X120826360Y-143973640D01*
X120820429Y-143967095D01*
X120815168Y-143960001D01*
X120810627Y-143952426D01*
X120806851Y-143944442D01*
X120803875Y-143936126D01*
X120801729Y-143927558D01*
X120800433Y-143918822D01*
X120800000Y-143910000D01*
X120800000Y-143190000D01*
X120800433Y-143181178D01*
X120801729Y-143172442D01*
X120803875Y-143163874D01*
X120806851Y-143155558D01*
X120810627Y-143147574D01*
X120815168Y-143139999D01*
X120820429Y-143132905D01*
X120826360Y-143126360D01*
X120832905Y-143120429D01*
X120839999Y-143115168D01*
X120847574Y-143110627D01*
X120855558Y-143106851D01*
X120863874Y-143103875D01*
X120872442Y-143101729D01*
X120881178Y-143100433D01*
X120890000Y-143100000D01*
X121710000Y-143100000D01*
X121718822Y-143100433D01*
X121718822Y-143100433D01*
G37*
D21*
X121300000Y-143550000D03*
D16*
G36*
X124718822Y-143100433D02*
G01*
X124727558Y-143101729D01*
X124736126Y-143103875D01*
X124744442Y-143106851D01*
X124752426Y-143110627D01*
X124760001Y-143115168D01*
X124767095Y-143120429D01*
X124773640Y-143126360D01*
X124779571Y-143132905D01*
X124784832Y-143139999D01*
X124789373Y-143147574D01*
X124793149Y-143155558D01*
X124796125Y-143163874D01*
X124798271Y-143172442D01*
X124799567Y-143181178D01*
X124800000Y-143190000D01*
X124800000Y-143910000D01*
X124799567Y-143918822D01*
X124798271Y-143927558D01*
X124796125Y-143936126D01*
X124793149Y-143944442D01*
X124789373Y-143952426D01*
X124784832Y-143960001D01*
X124779571Y-143967095D01*
X124773640Y-143973640D01*
X124767095Y-143979571D01*
X124760001Y-143984832D01*
X124752426Y-143989373D01*
X124744442Y-143993149D01*
X124736126Y-143996125D01*
X124727558Y-143998271D01*
X124718822Y-143999567D01*
X124710000Y-144000000D01*
X123890000Y-144000000D01*
X123881178Y-143999567D01*
X123872442Y-143998271D01*
X123863874Y-143996125D01*
X123855558Y-143993149D01*
X123847574Y-143989373D01*
X123839999Y-143984832D01*
X123832905Y-143979571D01*
X123826360Y-143973640D01*
X123820429Y-143967095D01*
X123815168Y-143960001D01*
X123810627Y-143952426D01*
X123806851Y-143944442D01*
X123803875Y-143936126D01*
X123801729Y-143927558D01*
X123800433Y-143918822D01*
X123800000Y-143910000D01*
X123800000Y-143190000D01*
X123800433Y-143181178D01*
X123801729Y-143172442D01*
X123803875Y-143163874D01*
X123806851Y-143155558D01*
X123810627Y-143147574D01*
X123815168Y-143139999D01*
X123820429Y-143132905D01*
X123826360Y-143126360D01*
X123832905Y-143120429D01*
X123839999Y-143115168D01*
X123847574Y-143110627D01*
X123855558Y-143106851D01*
X123863874Y-143103875D01*
X123872442Y-143101729D01*
X123881178Y-143100433D01*
X123890000Y-143100000D01*
X124710000Y-143100000D01*
X124718822Y-143100433D01*
X124718822Y-143100433D01*
G37*
D21*
X124300000Y-143550000D03*
D16*
G36*
X117209313Y-130046902D02*
G01*
X117218063Y-130048103D01*
X117226654Y-130050156D01*
X117235001Y-130053040D01*
X117243026Y-130056729D01*
X117250651Y-130061187D01*
X117257802Y-130066370D01*
X117264411Y-130072230D01*
X117270413Y-130078709D01*
X117733220Y-130630261D01*
X117738558Y-130637297D01*
X117743181Y-130644823D01*
X117747045Y-130652766D01*
X117750111Y-130661048D01*
X117752350Y-130669592D01*
X117753741Y-130678314D01*
X117754271Y-130687130D01*
X117753934Y-130695956D01*
X117752733Y-130704706D01*
X117750680Y-130713297D01*
X117747796Y-130721644D01*
X117744107Y-130729669D01*
X117739649Y-130737294D01*
X117734466Y-130744445D01*
X117728606Y-130751054D01*
X117722127Y-130757056D01*
X117093970Y-131284142D01*
X117086934Y-131289480D01*
X117079408Y-131294103D01*
X117071465Y-131297967D01*
X117063182Y-131301033D01*
X117054639Y-131303272D01*
X117045917Y-131304663D01*
X117037101Y-131305193D01*
X117028275Y-131304856D01*
X117019525Y-131303655D01*
X117010934Y-131301602D01*
X117002587Y-131298718D01*
X116994562Y-131295029D01*
X116986937Y-131290571D01*
X116979786Y-131285388D01*
X116973177Y-131279528D01*
X116967175Y-131273049D01*
X116504368Y-130721497D01*
X116499030Y-130714461D01*
X116494407Y-130706935D01*
X116490543Y-130698992D01*
X116487477Y-130690710D01*
X116485238Y-130682166D01*
X116483847Y-130673444D01*
X116483317Y-130664628D01*
X116483654Y-130655802D01*
X116484855Y-130647052D01*
X116486908Y-130638461D01*
X116489792Y-130630114D01*
X116493481Y-130622089D01*
X116497939Y-130614464D01*
X116503122Y-130607313D01*
X116508982Y-130600704D01*
X116515461Y-130594702D01*
X117143618Y-130067616D01*
X117150654Y-130062278D01*
X117158180Y-130057655D01*
X117166123Y-130053791D01*
X117174406Y-130050725D01*
X117182949Y-130048486D01*
X117191671Y-130047095D01*
X117200487Y-130046565D01*
X117209313Y-130046902D01*
X117209313Y-130046902D01*
G37*
D21*
X117118794Y-130675879D03*
D16*
G36*
X119507446Y-128118539D02*
G01*
X119516196Y-128119740D01*
X119524787Y-128121793D01*
X119533134Y-128124677D01*
X119541159Y-128128366D01*
X119548784Y-128132824D01*
X119555935Y-128138007D01*
X119562544Y-128143867D01*
X119568546Y-128150346D01*
X120031353Y-128701898D01*
X120036691Y-128708934D01*
X120041314Y-128716460D01*
X120045178Y-128724403D01*
X120048244Y-128732685D01*
X120050483Y-128741229D01*
X120051874Y-128749951D01*
X120052404Y-128758767D01*
X120052067Y-128767593D01*
X120050866Y-128776343D01*
X120048813Y-128784934D01*
X120045929Y-128793281D01*
X120042240Y-128801306D01*
X120037782Y-128808931D01*
X120032599Y-128816082D01*
X120026739Y-128822691D01*
X120020260Y-128828693D01*
X119392103Y-129355779D01*
X119385067Y-129361117D01*
X119377541Y-129365740D01*
X119369598Y-129369604D01*
X119361315Y-129372670D01*
X119352772Y-129374909D01*
X119344050Y-129376300D01*
X119335234Y-129376830D01*
X119326408Y-129376493D01*
X119317658Y-129375292D01*
X119309067Y-129373239D01*
X119300720Y-129370355D01*
X119292695Y-129366666D01*
X119285070Y-129362208D01*
X119277919Y-129357025D01*
X119271310Y-129351165D01*
X119265308Y-129344686D01*
X118802501Y-128793134D01*
X118797163Y-128786098D01*
X118792540Y-128778572D01*
X118788676Y-128770629D01*
X118785610Y-128762347D01*
X118783371Y-128753803D01*
X118781980Y-128745081D01*
X118781450Y-128736265D01*
X118781787Y-128727439D01*
X118782988Y-128718689D01*
X118785041Y-128710098D01*
X118787925Y-128701751D01*
X118791614Y-128693726D01*
X118796072Y-128686101D01*
X118801255Y-128678950D01*
X118807115Y-128672341D01*
X118813594Y-128666339D01*
X119441751Y-128139253D01*
X119448787Y-128133915D01*
X119456313Y-128129292D01*
X119464256Y-128125428D01*
X119472539Y-128122362D01*
X119481082Y-128120123D01*
X119489804Y-128118732D01*
X119498620Y-128118202D01*
X119507446Y-128118539D01*
X119507446Y-128118539D01*
G37*
D21*
X119416927Y-128747516D03*
D16*
G36*
X118282857Y-129134621D02*
G01*
X118288691Y-129135422D01*
X118294418Y-129136790D01*
X118299983Y-129138713D01*
X118305333Y-129141172D01*
X118310416Y-129144144D01*
X118315183Y-129147600D01*
X118319589Y-129151506D01*
X118323591Y-129155826D01*
X118632129Y-129523527D01*
X118635688Y-129528218D01*
X118638770Y-129533235D01*
X118641345Y-129538530D01*
X118643389Y-129544052D01*
X118644882Y-129549747D01*
X118645809Y-129555562D01*
X118646162Y-129561439D01*
X118645938Y-129567323D01*
X118645137Y-129573157D01*
X118643769Y-129578884D01*
X118641846Y-129584449D01*
X118639387Y-129589799D01*
X118636415Y-129594882D01*
X118632959Y-129599649D01*
X118629053Y-129604055D01*
X118624733Y-129608057D01*
X118103823Y-130045152D01*
X118099132Y-130048711D01*
X118094115Y-130051793D01*
X118088820Y-130054368D01*
X118083298Y-130056412D01*
X118077603Y-130057905D01*
X118071788Y-130058832D01*
X118065910Y-130059185D01*
X118060027Y-130058961D01*
X118054193Y-130058160D01*
X118048466Y-130056792D01*
X118042901Y-130054869D01*
X118037551Y-130052410D01*
X118032468Y-130049438D01*
X118027701Y-130045982D01*
X118023295Y-130042076D01*
X118019293Y-130037756D01*
X117710755Y-129670055D01*
X117707196Y-129665364D01*
X117704114Y-129660347D01*
X117701539Y-129655052D01*
X117699495Y-129649530D01*
X117698002Y-129643835D01*
X117697075Y-129638020D01*
X117696722Y-129632143D01*
X117696946Y-129626259D01*
X117697747Y-129620425D01*
X117699115Y-129614698D01*
X117701038Y-129609133D01*
X117703497Y-129603783D01*
X117706469Y-129598700D01*
X117709925Y-129593933D01*
X117713831Y-129589527D01*
X117718151Y-129585525D01*
X118239061Y-129148430D01*
X118243752Y-129144871D01*
X118248769Y-129141789D01*
X118254064Y-129139214D01*
X118259586Y-129137170D01*
X118265281Y-129135677D01*
X118271096Y-129134750D01*
X118276974Y-129134397D01*
X118282857Y-129134621D01*
X118282857Y-129134621D01*
G37*
D20*
X118171442Y-129596791D03*
D16*
G36*
X127528904Y-129134750D02*
G01*
X127534719Y-129135677D01*
X127540414Y-129137170D01*
X127545936Y-129139214D01*
X127551231Y-129141789D01*
X127556248Y-129144871D01*
X127560939Y-129148430D01*
X128081849Y-129585525D01*
X128086169Y-129589527D01*
X128090075Y-129593933D01*
X128093531Y-129598700D01*
X128096503Y-129603783D01*
X128098962Y-129609133D01*
X128100885Y-129614698D01*
X128102253Y-129620425D01*
X128103054Y-129626259D01*
X128103278Y-129632142D01*
X128102925Y-129638020D01*
X128101998Y-129643835D01*
X128100505Y-129649530D01*
X128098461Y-129655052D01*
X128095886Y-129660347D01*
X128092804Y-129665364D01*
X128089245Y-129670055D01*
X127780707Y-130037756D01*
X127776705Y-130042076D01*
X127772299Y-130045982D01*
X127767532Y-130049438D01*
X127762449Y-130052410D01*
X127757099Y-130054869D01*
X127751534Y-130056792D01*
X127745807Y-130058160D01*
X127739973Y-130058961D01*
X127734089Y-130059185D01*
X127728212Y-130058832D01*
X127722397Y-130057905D01*
X127716702Y-130056412D01*
X127711180Y-130054368D01*
X127705885Y-130051793D01*
X127700868Y-130048711D01*
X127696177Y-130045152D01*
X127175267Y-129608057D01*
X127170947Y-129604055D01*
X127167041Y-129599649D01*
X127163585Y-129594882D01*
X127160613Y-129589799D01*
X127158154Y-129584449D01*
X127156231Y-129578884D01*
X127154863Y-129573157D01*
X127154062Y-129567323D01*
X127153838Y-129561440D01*
X127154191Y-129555562D01*
X127155118Y-129549747D01*
X127156611Y-129544052D01*
X127158655Y-129538530D01*
X127161230Y-129533235D01*
X127164312Y-129528218D01*
X127167871Y-129523527D01*
X127476409Y-129155826D01*
X127480411Y-129151506D01*
X127484817Y-129147600D01*
X127489584Y-129144144D01*
X127494667Y-129141172D01*
X127500017Y-129138713D01*
X127505582Y-129136790D01*
X127511309Y-129135422D01*
X127517143Y-129134621D01*
X127523027Y-129134397D01*
X127528904Y-129134750D01*
X127528904Y-129134750D01*
G37*
D20*
X127628558Y-129596791D03*
D16*
G36*
X128608329Y-130047095D02*
G01*
X128617051Y-130048486D01*
X128625595Y-130050725D01*
X128633877Y-130053791D01*
X128641820Y-130057655D01*
X128649346Y-130062278D01*
X128656382Y-130067616D01*
X129284539Y-130594702D01*
X129291018Y-130600704D01*
X129296878Y-130607313D01*
X129302061Y-130614464D01*
X129306519Y-130622089D01*
X129310208Y-130630114D01*
X129313092Y-130638461D01*
X129315145Y-130647052D01*
X129316346Y-130655802D01*
X129316683Y-130664628D01*
X129316153Y-130673444D01*
X129314762Y-130682166D01*
X129312523Y-130690709D01*
X129309457Y-130698992D01*
X129305593Y-130706935D01*
X129300970Y-130714461D01*
X129295632Y-130721497D01*
X128832825Y-131273049D01*
X128826823Y-131279528D01*
X128820214Y-131285388D01*
X128813063Y-131290571D01*
X128805438Y-131295029D01*
X128797413Y-131298718D01*
X128789066Y-131301602D01*
X128780475Y-131303655D01*
X128771725Y-131304856D01*
X128762899Y-131305193D01*
X128754083Y-131304663D01*
X128745361Y-131303272D01*
X128736817Y-131301033D01*
X128728535Y-131297967D01*
X128720592Y-131294103D01*
X128713066Y-131289480D01*
X128706030Y-131284142D01*
X128077873Y-130757056D01*
X128071394Y-130751054D01*
X128065534Y-130744445D01*
X128060351Y-130737294D01*
X128055893Y-130729669D01*
X128052204Y-130721644D01*
X128049320Y-130713297D01*
X128047267Y-130704706D01*
X128046066Y-130695956D01*
X128045729Y-130687130D01*
X128046259Y-130678314D01*
X128047650Y-130669592D01*
X128049889Y-130661049D01*
X128052955Y-130652766D01*
X128056819Y-130644823D01*
X128061442Y-130637297D01*
X128066780Y-130630261D01*
X128529587Y-130078709D01*
X128535589Y-130072230D01*
X128542198Y-130066370D01*
X128549349Y-130061187D01*
X128556974Y-130056729D01*
X128564999Y-130053040D01*
X128573346Y-130050156D01*
X128581937Y-130048103D01*
X128590687Y-130046902D01*
X128599513Y-130046565D01*
X128608329Y-130047095D01*
X128608329Y-130047095D01*
G37*
D21*
X128681206Y-130675879D03*
D16*
G36*
X126310196Y-128118732D02*
G01*
X126318918Y-128120123D01*
X126327462Y-128122362D01*
X126335744Y-128125428D01*
X126343687Y-128129292D01*
X126351213Y-128133915D01*
X126358249Y-128139253D01*
X126986406Y-128666339D01*
X126992885Y-128672341D01*
X126998745Y-128678950D01*
X127003928Y-128686101D01*
X127008386Y-128693726D01*
X127012075Y-128701751D01*
X127014959Y-128710098D01*
X127017012Y-128718689D01*
X127018213Y-128727439D01*
X127018550Y-128736265D01*
X127018020Y-128745081D01*
X127016629Y-128753803D01*
X127014390Y-128762346D01*
X127011324Y-128770629D01*
X127007460Y-128778572D01*
X127002837Y-128786098D01*
X126997499Y-128793134D01*
X126534692Y-129344686D01*
X126528690Y-129351165D01*
X126522081Y-129357025D01*
X126514930Y-129362208D01*
X126507305Y-129366666D01*
X126499280Y-129370355D01*
X126490933Y-129373239D01*
X126482342Y-129375292D01*
X126473592Y-129376493D01*
X126464766Y-129376830D01*
X126455950Y-129376300D01*
X126447228Y-129374909D01*
X126438684Y-129372670D01*
X126430402Y-129369604D01*
X126422459Y-129365740D01*
X126414933Y-129361117D01*
X126407897Y-129355779D01*
X125779740Y-128828693D01*
X125773261Y-128822691D01*
X125767401Y-128816082D01*
X125762218Y-128808931D01*
X125757760Y-128801306D01*
X125754071Y-128793281D01*
X125751187Y-128784934D01*
X125749134Y-128776343D01*
X125747933Y-128767593D01*
X125747596Y-128758767D01*
X125748126Y-128749951D01*
X125749517Y-128741229D01*
X125751756Y-128732686D01*
X125754822Y-128724403D01*
X125758686Y-128716460D01*
X125763309Y-128708934D01*
X125768647Y-128701898D01*
X126231454Y-128150346D01*
X126237456Y-128143867D01*
X126244065Y-128138007D01*
X126251216Y-128132824D01*
X126258841Y-128128366D01*
X126266866Y-128124677D01*
X126275213Y-128121793D01*
X126283804Y-128119740D01*
X126292554Y-128118539D01*
X126301380Y-128118202D01*
X126310196Y-128118732D01*
X126310196Y-128118732D01*
G37*
D21*
X126383073Y-128747516D03*
D16*
G36*
X77545881Y-143400289D02*
G01*
X77551705Y-143401153D01*
X77557417Y-143402584D01*
X77562961Y-143404567D01*
X77568284Y-143407085D01*
X77573334Y-143410112D01*
X77578064Y-143413619D01*
X77582426Y-143417574D01*
X77586381Y-143421936D01*
X77589888Y-143426666D01*
X77592915Y-143431716D01*
X77595433Y-143437039D01*
X77597416Y-143442583D01*
X77598847Y-143448295D01*
X77599711Y-143454119D01*
X77600000Y-143460000D01*
X77600000Y-143940000D01*
X77599711Y-143945881D01*
X77598847Y-143951705D01*
X77597416Y-143957417D01*
X77595433Y-143962961D01*
X77592915Y-143968284D01*
X77589888Y-143973334D01*
X77586381Y-143978064D01*
X77582426Y-143982426D01*
X77578064Y-143986381D01*
X77573334Y-143989888D01*
X77568284Y-143992915D01*
X77562961Y-143995433D01*
X77557417Y-143997416D01*
X77551705Y-143998847D01*
X77545881Y-143999711D01*
X77540000Y-144000000D01*
X76860000Y-144000000D01*
X76854119Y-143999711D01*
X76848295Y-143998847D01*
X76842583Y-143997416D01*
X76837039Y-143995433D01*
X76831716Y-143992915D01*
X76826666Y-143989888D01*
X76821936Y-143986381D01*
X76817574Y-143982426D01*
X76813619Y-143978064D01*
X76810112Y-143973334D01*
X76807085Y-143968284D01*
X76804567Y-143962961D01*
X76802584Y-143957417D01*
X76801153Y-143951705D01*
X76800289Y-143945881D01*
X76800000Y-143940000D01*
X76800000Y-143460000D01*
X76800289Y-143454119D01*
X76801153Y-143448295D01*
X76802584Y-143442583D01*
X76804567Y-143437039D01*
X76807085Y-143431716D01*
X76810112Y-143426666D01*
X76813619Y-143421936D01*
X76817574Y-143417574D01*
X76821936Y-143413619D01*
X76826666Y-143410112D01*
X76831716Y-143407085D01*
X76837039Y-143404567D01*
X76842583Y-143402584D01*
X76848295Y-143401153D01*
X76854119Y-143400289D01*
X76860000Y-143400000D01*
X77540000Y-143400000D01*
X77545881Y-143400289D01*
X77545881Y-143400289D01*
G37*
D20*
X77200000Y-143700000D03*
D16*
G36*
X76118822Y-143100433D02*
G01*
X76127558Y-143101729D01*
X76136126Y-143103875D01*
X76144442Y-143106851D01*
X76152426Y-143110627D01*
X76160001Y-143115168D01*
X76167095Y-143120429D01*
X76173640Y-143126360D01*
X76179571Y-143132905D01*
X76184832Y-143139999D01*
X76189373Y-143147574D01*
X76193149Y-143155558D01*
X76196125Y-143163874D01*
X76198271Y-143172442D01*
X76199567Y-143181178D01*
X76200000Y-143190000D01*
X76200000Y-143910000D01*
X76199567Y-143918822D01*
X76198271Y-143927558D01*
X76196125Y-143936126D01*
X76193149Y-143944442D01*
X76189373Y-143952426D01*
X76184832Y-143960001D01*
X76179571Y-143967095D01*
X76173640Y-143973640D01*
X76167095Y-143979571D01*
X76160001Y-143984832D01*
X76152426Y-143989373D01*
X76144442Y-143993149D01*
X76136126Y-143996125D01*
X76127558Y-143998271D01*
X76118822Y-143999567D01*
X76110000Y-144000000D01*
X75290000Y-144000000D01*
X75281178Y-143999567D01*
X75272442Y-143998271D01*
X75263874Y-143996125D01*
X75255558Y-143993149D01*
X75247574Y-143989373D01*
X75239999Y-143984832D01*
X75232905Y-143979571D01*
X75226360Y-143973640D01*
X75220429Y-143967095D01*
X75215168Y-143960001D01*
X75210627Y-143952426D01*
X75206851Y-143944442D01*
X75203875Y-143936126D01*
X75201729Y-143927558D01*
X75200433Y-143918822D01*
X75200000Y-143910000D01*
X75200000Y-143190000D01*
X75200433Y-143181178D01*
X75201729Y-143172442D01*
X75203875Y-143163874D01*
X75206851Y-143155558D01*
X75210627Y-143147574D01*
X75215168Y-143139999D01*
X75220429Y-143132905D01*
X75226360Y-143126360D01*
X75232905Y-143120429D01*
X75239999Y-143115168D01*
X75247574Y-143110627D01*
X75255558Y-143106851D01*
X75263874Y-143103875D01*
X75272442Y-143101729D01*
X75281178Y-143100433D01*
X75290000Y-143100000D01*
X76110000Y-143100000D01*
X76118822Y-143100433D01*
X76118822Y-143100433D01*
G37*
D21*
X75700000Y-143550000D03*
D16*
G36*
X79118822Y-143100433D02*
G01*
X79127558Y-143101729D01*
X79136126Y-143103875D01*
X79144442Y-143106851D01*
X79152426Y-143110627D01*
X79160001Y-143115168D01*
X79167095Y-143120429D01*
X79173640Y-143126360D01*
X79179571Y-143132905D01*
X79184832Y-143139999D01*
X79189373Y-143147574D01*
X79193149Y-143155558D01*
X79196125Y-143163874D01*
X79198271Y-143172442D01*
X79199567Y-143181178D01*
X79200000Y-143190000D01*
X79200000Y-143910000D01*
X79199567Y-143918822D01*
X79198271Y-143927558D01*
X79196125Y-143936126D01*
X79193149Y-143944442D01*
X79189373Y-143952426D01*
X79184832Y-143960001D01*
X79179571Y-143967095D01*
X79173640Y-143973640D01*
X79167095Y-143979571D01*
X79160001Y-143984832D01*
X79152426Y-143989373D01*
X79144442Y-143993149D01*
X79136126Y-143996125D01*
X79127558Y-143998271D01*
X79118822Y-143999567D01*
X79110000Y-144000000D01*
X78290000Y-144000000D01*
X78281178Y-143999567D01*
X78272442Y-143998271D01*
X78263874Y-143996125D01*
X78255558Y-143993149D01*
X78247574Y-143989373D01*
X78239999Y-143984832D01*
X78232905Y-143979571D01*
X78226360Y-143973640D01*
X78220429Y-143967095D01*
X78215168Y-143960001D01*
X78210627Y-143952426D01*
X78206851Y-143944442D01*
X78203875Y-143936126D01*
X78201729Y-143927558D01*
X78200433Y-143918822D01*
X78200000Y-143910000D01*
X78200000Y-143190000D01*
X78200433Y-143181178D01*
X78201729Y-143172442D01*
X78203875Y-143163874D01*
X78206851Y-143155558D01*
X78210627Y-143147574D01*
X78215168Y-143139999D01*
X78220429Y-143132905D01*
X78226360Y-143126360D01*
X78232905Y-143120429D01*
X78239999Y-143115168D01*
X78247574Y-143110627D01*
X78255558Y-143106851D01*
X78263874Y-143103875D01*
X78272442Y-143101729D01*
X78281178Y-143100433D01*
X78290000Y-143100000D01*
X79110000Y-143100000D01*
X79118822Y-143100433D01*
X79118822Y-143100433D01*
G37*
D21*
X78700000Y-143550000D03*
D16*
G36*
X72682857Y-129134621D02*
G01*
X72688691Y-129135422D01*
X72694418Y-129136790D01*
X72699983Y-129138713D01*
X72705333Y-129141172D01*
X72710416Y-129144144D01*
X72715183Y-129147600D01*
X72719589Y-129151506D01*
X72723591Y-129155826D01*
X73032129Y-129523527D01*
X73035688Y-129528218D01*
X73038770Y-129533235D01*
X73041345Y-129538530D01*
X73043389Y-129544052D01*
X73044882Y-129549747D01*
X73045809Y-129555562D01*
X73046162Y-129561439D01*
X73045938Y-129567323D01*
X73045137Y-129573157D01*
X73043769Y-129578884D01*
X73041846Y-129584449D01*
X73039387Y-129589799D01*
X73036415Y-129594882D01*
X73032959Y-129599649D01*
X73029053Y-129604055D01*
X73024733Y-129608057D01*
X72503823Y-130045152D01*
X72499132Y-130048711D01*
X72494115Y-130051793D01*
X72488820Y-130054368D01*
X72483298Y-130056412D01*
X72477603Y-130057905D01*
X72471788Y-130058832D01*
X72465910Y-130059185D01*
X72460027Y-130058961D01*
X72454193Y-130058160D01*
X72448466Y-130056792D01*
X72442901Y-130054869D01*
X72437551Y-130052410D01*
X72432468Y-130049438D01*
X72427701Y-130045982D01*
X72423295Y-130042076D01*
X72419293Y-130037756D01*
X72110755Y-129670055D01*
X72107196Y-129665364D01*
X72104114Y-129660347D01*
X72101539Y-129655052D01*
X72099495Y-129649530D01*
X72098002Y-129643835D01*
X72097075Y-129638020D01*
X72096722Y-129632143D01*
X72096946Y-129626259D01*
X72097747Y-129620425D01*
X72099115Y-129614698D01*
X72101038Y-129609133D01*
X72103497Y-129603783D01*
X72106469Y-129598700D01*
X72109925Y-129593933D01*
X72113831Y-129589527D01*
X72118151Y-129585525D01*
X72639061Y-129148430D01*
X72643752Y-129144871D01*
X72648769Y-129141789D01*
X72654064Y-129139214D01*
X72659586Y-129137170D01*
X72665281Y-129135677D01*
X72671096Y-129134750D01*
X72676974Y-129134397D01*
X72682857Y-129134621D01*
X72682857Y-129134621D01*
G37*
D20*
X72571442Y-129596791D03*
D16*
G36*
X73907446Y-128118539D02*
G01*
X73916196Y-128119740D01*
X73924787Y-128121793D01*
X73933134Y-128124677D01*
X73941159Y-128128366D01*
X73948784Y-128132824D01*
X73955935Y-128138007D01*
X73962544Y-128143867D01*
X73968546Y-128150346D01*
X74431353Y-128701898D01*
X74436691Y-128708934D01*
X74441314Y-128716460D01*
X74445178Y-128724403D01*
X74448244Y-128732685D01*
X74450483Y-128741229D01*
X74451874Y-128749951D01*
X74452404Y-128758767D01*
X74452067Y-128767593D01*
X74450866Y-128776343D01*
X74448813Y-128784934D01*
X74445929Y-128793281D01*
X74442240Y-128801306D01*
X74437782Y-128808931D01*
X74432599Y-128816082D01*
X74426739Y-128822691D01*
X74420260Y-128828693D01*
X73792103Y-129355779D01*
X73785067Y-129361117D01*
X73777541Y-129365740D01*
X73769598Y-129369604D01*
X73761315Y-129372670D01*
X73752772Y-129374909D01*
X73744050Y-129376300D01*
X73735234Y-129376830D01*
X73726408Y-129376493D01*
X73717658Y-129375292D01*
X73709067Y-129373239D01*
X73700720Y-129370355D01*
X73692695Y-129366666D01*
X73685070Y-129362208D01*
X73677919Y-129357025D01*
X73671310Y-129351165D01*
X73665308Y-129344686D01*
X73202501Y-128793134D01*
X73197163Y-128786098D01*
X73192540Y-128778572D01*
X73188676Y-128770629D01*
X73185610Y-128762347D01*
X73183371Y-128753803D01*
X73181980Y-128745081D01*
X73181450Y-128736265D01*
X73181787Y-128727439D01*
X73182988Y-128718689D01*
X73185041Y-128710098D01*
X73187925Y-128701751D01*
X73191614Y-128693726D01*
X73196072Y-128686101D01*
X73201255Y-128678950D01*
X73207115Y-128672341D01*
X73213594Y-128666339D01*
X73841751Y-128139253D01*
X73848787Y-128133915D01*
X73856313Y-128129292D01*
X73864256Y-128125428D01*
X73872539Y-128122362D01*
X73881082Y-128120123D01*
X73889804Y-128118732D01*
X73898620Y-128118202D01*
X73907446Y-128118539D01*
X73907446Y-128118539D01*
G37*
D21*
X73816927Y-128747516D03*
D16*
G36*
X71609313Y-130046902D02*
G01*
X71618063Y-130048103D01*
X71626654Y-130050156D01*
X71635001Y-130053040D01*
X71643026Y-130056729D01*
X71650651Y-130061187D01*
X71657802Y-130066370D01*
X71664411Y-130072230D01*
X71670413Y-130078709D01*
X72133220Y-130630261D01*
X72138558Y-130637297D01*
X72143181Y-130644823D01*
X72147045Y-130652766D01*
X72150111Y-130661048D01*
X72152350Y-130669592D01*
X72153741Y-130678314D01*
X72154271Y-130687130D01*
X72153934Y-130695956D01*
X72152733Y-130704706D01*
X72150680Y-130713297D01*
X72147796Y-130721644D01*
X72144107Y-130729669D01*
X72139649Y-130737294D01*
X72134466Y-130744445D01*
X72128606Y-130751054D01*
X72122127Y-130757056D01*
X71493970Y-131284142D01*
X71486934Y-131289480D01*
X71479408Y-131294103D01*
X71471465Y-131297967D01*
X71463182Y-131301033D01*
X71454639Y-131303272D01*
X71445917Y-131304663D01*
X71437101Y-131305193D01*
X71428275Y-131304856D01*
X71419525Y-131303655D01*
X71410934Y-131301602D01*
X71402587Y-131298718D01*
X71394562Y-131295029D01*
X71386937Y-131290571D01*
X71379786Y-131285388D01*
X71373177Y-131279528D01*
X71367175Y-131273049D01*
X70904368Y-130721497D01*
X70899030Y-130714461D01*
X70894407Y-130706935D01*
X70890543Y-130698992D01*
X70887477Y-130690710D01*
X70885238Y-130682166D01*
X70883847Y-130673444D01*
X70883317Y-130664628D01*
X70883654Y-130655802D01*
X70884855Y-130647052D01*
X70886908Y-130638461D01*
X70889792Y-130630114D01*
X70893481Y-130622089D01*
X70897939Y-130614464D01*
X70903122Y-130607313D01*
X70908982Y-130600704D01*
X70915461Y-130594702D01*
X71543618Y-130067616D01*
X71550654Y-130062278D01*
X71558180Y-130057655D01*
X71566123Y-130053791D01*
X71574406Y-130050725D01*
X71582949Y-130048486D01*
X71591671Y-130047095D01*
X71600487Y-130046565D01*
X71609313Y-130046902D01*
X71609313Y-130046902D01*
G37*
D21*
X71518794Y-130675879D03*
D16*
G36*
X81728904Y-129134750D02*
G01*
X81734719Y-129135677D01*
X81740414Y-129137170D01*
X81745936Y-129139214D01*
X81751231Y-129141789D01*
X81756248Y-129144871D01*
X81760939Y-129148430D01*
X82281849Y-129585525D01*
X82286169Y-129589527D01*
X82290075Y-129593933D01*
X82293531Y-129598700D01*
X82296503Y-129603783D01*
X82298962Y-129609133D01*
X82300885Y-129614698D01*
X82302253Y-129620425D01*
X82303054Y-129626259D01*
X82303278Y-129632142D01*
X82302925Y-129638020D01*
X82301998Y-129643835D01*
X82300505Y-129649530D01*
X82298461Y-129655052D01*
X82295886Y-129660347D01*
X82292804Y-129665364D01*
X82289245Y-129670055D01*
X81980707Y-130037756D01*
X81976705Y-130042076D01*
X81972299Y-130045982D01*
X81967532Y-130049438D01*
X81962449Y-130052410D01*
X81957099Y-130054869D01*
X81951534Y-130056792D01*
X81945807Y-130058160D01*
X81939973Y-130058961D01*
X81934089Y-130059185D01*
X81928212Y-130058832D01*
X81922397Y-130057905D01*
X81916702Y-130056412D01*
X81911180Y-130054368D01*
X81905885Y-130051793D01*
X81900868Y-130048711D01*
X81896177Y-130045152D01*
X81375267Y-129608057D01*
X81370947Y-129604055D01*
X81367041Y-129599649D01*
X81363585Y-129594882D01*
X81360613Y-129589799D01*
X81358154Y-129584449D01*
X81356231Y-129578884D01*
X81354863Y-129573157D01*
X81354062Y-129567323D01*
X81353838Y-129561440D01*
X81354191Y-129555562D01*
X81355118Y-129549747D01*
X81356611Y-129544052D01*
X81358655Y-129538530D01*
X81361230Y-129533235D01*
X81364312Y-129528218D01*
X81367871Y-129523527D01*
X81676409Y-129155826D01*
X81680411Y-129151506D01*
X81684817Y-129147600D01*
X81689584Y-129144144D01*
X81694667Y-129141172D01*
X81700017Y-129138713D01*
X81705582Y-129136790D01*
X81711309Y-129135422D01*
X81717143Y-129134621D01*
X81723027Y-129134397D01*
X81728904Y-129134750D01*
X81728904Y-129134750D01*
G37*
D20*
X81828558Y-129596791D03*
D16*
G36*
X82808329Y-130047095D02*
G01*
X82817051Y-130048486D01*
X82825595Y-130050725D01*
X82833877Y-130053791D01*
X82841820Y-130057655D01*
X82849346Y-130062278D01*
X82856382Y-130067616D01*
X83484539Y-130594702D01*
X83491018Y-130600704D01*
X83496878Y-130607313D01*
X83502061Y-130614464D01*
X83506519Y-130622089D01*
X83510208Y-130630114D01*
X83513092Y-130638461D01*
X83515145Y-130647052D01*
X83516346Y-130655802D01*
X83516683Y-130664628D01*
X83516153Y-130673444D01*
X83514762Y-130682166D01*
X83512523Y-130690709D01*
X83509457Y-130698992D01*
X83505593Y-130706935D01*
X83500970Y-130714461D01*
X83495632Y-130721497D01*
X83032825Y-131273049D01*
X83026823Y-131279528D01*
X83020214Y-131285388D01*
X83013063Y-131290571D01*
X83005438Y-131295029D01*
X82997413Y-131298718D01*
X82989066Y-131301602D01*
X82980475Y-131303655D01*
X82971725Y-131304856D01*
X82962899Y-131305193D01*
X82954083Y-131304663D01*
X82945361Y-131303272D01*
X82936817Y-131301033D01*
X82928535Y-131297967D01*
X82920592Y-131294103D01*
X82913066Y-131289480D01*
X82906030Y-131284142D01*
X82277873Y-130757056D01*
X82271394Y-130751054D01*
X82265534Y-130744445D01*
X82260351Y-130737294D01*
X82255893Y-130729669D01*
X82252204Y-130721644D01*
X82249320Y-130713297D01*
X82247267Y-130704706D01*
X82246066Y-130695956D01*
X82245729Y-130687130D01*
X82246259Y-130678314D01*
X82247650Y-130669592D01*
X82249889Y-130661049D01*
X82252955Y-130652766D01*
X82256819Y-130644823D01*
X82261442Y-130637297D01*
X82266780Y-130630261D01*
X82729587Y-130078709D01*
X82735589Y-130072230D01*
X82742198Y-130066370D01*
X82749349Y-130061187D01*
X82756974Y-130056729D01*
X82764999Y-130053040D01*
X82773346Y-130050156D01*
X82781937Y-130048103D01*
X82790687Y-130046902D01*
X82799513Y-130046565D01*
X82808329Y-130047095D01*
X82808329Y-130047095D01*
G37*
D21*
X82881206Y-130675879D03*
D16*
G36*
X80510196Y-128118732D02*
G01*
X80518918Y-128120123D01*
X80527462Y-128122362D01*
X80535744Y-128125428D01*
X80543687Y-128129292D01*
X80551213Y-128133915D01*
X80558249Y-128139253D01*
X81186406Y-128666339D01*
X81192885Y-128672341D01*
X81198745Y-128678950D01*
X81203928Y-128686101D01*
X81208386Y-128693726D01*
X81212075Y-128701751D01*
X81214959Y-128710098D01*
X81217012Y-128718689D01*
X81218213Y-128727439D01*
X81218550Y-128736265D01*
X81218020Y-128745081D01*
X81216629Y-128753803D01*
X81214390Y-128762346D01*
X81211324Y-128770629D01*
X81207460Y-128778572D01*
X81202837Y-128786098D01*
X81197499Y-128793134D01*
X80734692Y-129344686D01*
X80728690Y-129351165D01*
X80722081Y-129357025D01*
X80714930Y-129362208D01*
X80707305Y-129366666D01*
X80699280Y-129370355D01*
X80690933Y-129373239D01*
X80682342Y-129375292D01*
X80673592Y-129376493D01*
X80664766Y-129376830D01*
X80655950Y-129376300D01*
X80647228Y-129374909D01*
X80638684Y-129372670D01*
X80630402Y-129369604D01*
X80622459Y-129365740D01*
X80614933Y-129361117D01*
X80607897Y-129355779D01*
X79979740Y-128828693D01*
X79973261Y-128822691D01*
X79967401Y-128816082D01*
X79962218Y-128808931D01*
X79957760Y-128801306D01*
X79954071Y-128793281D01*
X79951187Y-128784934D01*
X79949134Y-128776343D01*
X79947933Y-128767593D01*
X79947596Y-128758767D01*
X79948126Y-128749951D01*
X79949517Y-128741229D01*
X79951756Y-128732686D01*
X79954822Y-128724403D01*
X79958686Y-128716460D01*
X79963309Y-128708934D01*
X79968647Y-128701898D01*
X80431454Y-128150346D01*
X80437456Y-128143867D01*
X80444065Y-128138007D01*
X80451216Y-128132824D01*
X80458841Y-128128366D01*
X80466866Y-128124677D01*
X80475213Y-128121793D01*
X80483804Y-128119740D01*
X80492554Y-128118539D01*
X80501380Y-128118202D01*
X80510196Y-128118732D01*
X80510196Y-128118732D01*
G37*
D21*
X80583073Y-128747516D03*
D16*
G36*
X63445881Y-100000289D02*
G01*
X63451705Y-100001153D01*
X63457417Y-100002584D01*
X63462961Y-100004567D01*
X63468284Y-100007085D01*
X63473334Y-100010112D01*
X63478064Y-100013619D01*
X63482426Y-100017574D01*
X63486381Y-100021936D01*
X63489888Y-100026666D01*
X63492915Y-100031716D01*
X63495433Y-100037039D01*
X63497416Y-100042583D01*
X63498847Y-100048295D01*
X63499711Y-100054119D01*
X63500000Y-100060000D01*
X63500000Y-100540000D01*
X63499711Y-100545881D01*
X63498847Y-100551705D01*
X63497416Y-100557417D01*
X63495433Y-100562961D01*
X63492915Y-100568284D01*
X63489888Y-100573334D01*
X63486381Y-100578064D01*
X63482426Y-100582426D01*
X63478064Y-100586381D01*
X63473334Y-100589888D01*
X63468284Y-100592915D01*
X63462961Y-100595433D01*
X63457417Y-100597416D01*
X63451705Y-100598847D01*
X63445881Y-100599711D01*
X63440000Y-100600000D01*
X62760000Y-100600000D01*
X62754119Y-100599711D01*
X62748295Y-100598847D01*
X62742583Y-100597416D01*
X62737039Y-100595433D01*
X62731716Y-100592915D01*
X62726666Y-100589888D01*
X62721936Y-100586381D01*
X62717574Y-100582426D01*
X62713619Y-100578064D01*
X62710112Y-100573334D01*
X62707085Y-100568284D01*
X62704567Y-100562961D01*
X62702584Y-100557417D01*
X62701153Y-100551705D01*
X62700289Y-100545881D01*
X62700000Y-100540000D01*
X62700000Y-100060000D01*
X62700289Y-100054119D01*
X62701153Y-100048295D01*
X62702584Y-100042583D01*
X62704567Y-100037039D01*
X62707085Y-100031716D01*
X62710112Y-100026666D01*
X62713619Y-100021936D01*
X62717574Y-100017574D01*
X62721936Y-100013619D01*
X62726666Y-100010112D01*
X62731716Y-100007085D01*
X62737039Y-100004567D01*
X62742583Y-100002584D01*
X62748295Y-100001153D01*
X62754119Y-100000289D01*
X62760000Y-100000000D01*
X63440000Y-100000000D01*
X63445881Y-100000289D01*
X63445881Y-100000289D01*
G37*
D20*
X63100000Y-100300000D03*
D16*
G36*
X62018822Y-99700433D02*
G01*
X62027558Y-99701729D01*
X62036126Y-99703875D01*
X62044442Y-99706851D01*
X62052426Y-99710627D01*
X62060001Y-99715168D01*
X62067095Y-99720429D01*
X62073640Y-99726360D01*
X62079571Y-99732905D01*
X62084832Y-99739999D01*
X62089373Y-99747574D01*
X62093149Y-99755558D01*
X62096125Y-99763874D01*
X62098271Y-99772442D01*
X62099567Y-99781178D01*
X62100000Y-99790000D01*
X62100000Y-100510000D01*
X62099567Y-100518822D01*
X62098271Y-100527558D01*
X62096125Y-100536126D01*
X62093149Y-100544442D01*
X62089373Y-100552426D01*
X62084832Y-100560001D01*
X62079571Y-100567095D01*
X62073640Y-100573640D01*
X62067095Y-100579571D01*
X62060001Y-100584832D01*
X62052426Y-100589373D01*
X62044442Y-100593149D01*
X62036126Y-100596125D01*
X62027558Y-100598271D01*
X62018822Y-100599567D01*
X62010000Y-100600000D01*
X61190000Y-100600000D01*
X61181178Y-100599567D01*
X61172442Y-100598271D01*
X61163874Y-100596125D01*
X61155558Y-100593149D01*
X61147574Y-100589373D01*
X61139999Y-100584832D01*
X61132905Y-100579571D01*
X61126360Y-100573640D01*
X61120429Y-100567095D01*
X61115168Y-100560001D01*
X61110627Y-100552426D01*
X61106851Y-100544442D01*
X61103875Y-100536126D01*
X61101729Y-100527558D01*
X61100433Y-100518822D01*
X61100000Y-100510000D01*
X61100000Y-99790000D01*
X61100433Y-99781178D01*
X61101729Y-99772442D01*
X61103875Y-99763874D01*
X61106851Y-99755558D01*
X61110627Y-99747574D01*
X61115168Y-99739999D01*
X61120429Y-99732905D01*
X61126360Y-99726360D01*
X61132905Y-99720429D01*
X61139999Y-99715168D01*
X61147574Y-99710627D01*
X61155558Y-99706851D01*
X61163874Y-99703875D01*
X61172442Y-99701729D01*
X61181178Y-99700433D01*
X61190000Y-99700000D01*
X62010000Y-99700000D01*
X62018822Y-99700433D01*
X62018822Y-99700433D01*
G37*
D21*
X61600000Y-100150000D03*
D16*
G36*
X65018822Y-99700433D02*
G01*
X65027558Y-99701729D01*
X65036126Y-99703875D01*
X65044442Y-99706851D01*
X65052426Y-99710627D01*
X65060001Y-99715168D01*
X65067095Y-99720429D01*
X65073640Y-99726360D01*
X65079571Y-99732905D01*
X65084832Y-99739999D01*
X65089373Y-99747574D01*
X65093149Y-99755558D01*
X65096125Y-99763874D01*
X65098271Y-99772442D01*
X65099567Y-99781178D01*
X65100000Y-99790000D01*
X65100000Y-100510000D01*
X65099567Y-100518822D01*
X65098271Y-100527558D01*
X65096125Y-100536126D01*
X65093149Y-100544442D01*
X65089373Y-100552426D01*
X65084832Y-100560001D01*
X65079571Y-100567095D01*
X65073640Y-100573640D01*
X65067095Y-100579571D01*
X65060001Y-100584832D01*
X65052426Y-100589373D01*
X65044442Y-100593149D01*
X65036126Y-100596125D01*
X65027558Y-100598271D01*
X65018822Y-100599567D01*
X65010000Y-100600000D01*
X64190000Y-100600000D01*
X64181178Y-100599567D01*
X64172442Y-100598271D01*
X64163874Y-100596125D01*
X64155558Y-100593149D01*
X64147574Y-100589373D01*
X64139999Y-100584832D01*
X64132905Y-100579571D01*
X64126360Y-100573640D01*
X64120429Y-100567095D01*
X64115168Y-100560001D01*
X64110627Y-100552426D01*
X64106851Y-100544442D01*
X64103875Y-100536126D01*
X64101729Y-100527558D01*
X64100433Y-100518822D01*
X64100000Y-100510000D01*
X64100000Y-99790000D01*
X64100433Y-99781178D01*
X64101729Y-99772442D01*
X64103875Y-99763874D01*
X64106851Y-99755558D01*
X64110627Y-99747574D01*
X64115168Y-99739999D01*
X64120429Y-99732905D01*
X64126360Y-99726360D01*
X64132905Y-99720429D01*
X64139999Y-99715168D01*
X64147574Y-99710627D01*
X64155558Y-99706851D01*
X64163874Y-99703875D01*
X64172442Y-99701729D01*
X64181178Y-99700433D01*
X64190000Y-99700000D01*
X65010000Y-99700000D01*
X65018822Y-99700433D01*
X65018822Y-99700433D01*
G37*
D21*
X64600000Y-100150000D03*
D16*
G36*
X58582857Y-85734621D02*
G01*
X58588691Y-85735422D01*
X58594418Y-85736790D01*
X58599983Y-85738713D01*
X58605333Y-85741172D01*
X58610416Y-85744144D01*
X58615183Y-85747600D01*
X58619589Y-85751506D01*
X58623591Y-85755826D01*
X58932129Y-86123527D01*
X58935688Y-86128218D01*
X58938770Y-86133235D01*
X58941345Y-86138530D01*
X58943389Y-86144052D01*
X58944882Y-86149747D01*
X58945809Y-86155562D01*
X58946162Y-86161439D01*
X58945938Y-86167323D01*
X58945137Y-86173157D01*
X58943769Y-86178884D01*
X58941846Y-86184449D01*
X58939387Y-86189799D01*
X58936415Y-86194882D01*
X58932959Y-86199649D01*
X58929053Y-86204055D01*
X58924733Y-86208057D01*
X58403823Y-86645152D01*
X58399132Y-86648711D01*
X58394115Y-86651793D01*
X58388820Y-86654368D01*
X58383298Y-86656412D01*
X58377603Y-86657905D01*
X58371788Y-86658832D01*
X58365910Y-86659185D01*
X58360027Y-86658961D01*
X58354193Y-86658160D01*
X58348466Y-86656792D01*
X58342901Y-86654869D01*
X58337551Y-86652410D01*
X58332468Y-86649438D01*
X58327701Y-86645982D01*
X58323295Y-86642076D01*
X58319293Y-86637756D01*
X58010755Y-86270055D01*
X58007196Y-86265364D01*
X58004114Y-86260347D01*
X58001539Y-86255052D01*
X57999495Y-86249530D01*
X57998002Y-86243835D01*
X57997075Y-86238020D01*
X57996722Y-86232143D01*
X57996946Y-86226259D01*
X57997747Y-86220425D01*
X57999115Y-86214698D01*
X58001038Y-86209133D01*
X58003497Y-86203783D01*
X58006469Y-86198700D01*
X58009925Y-86193933D01*
X58013831Y-86189527D01*
X58018151Y-86185525D01*
X58539061Y-85748430D01*
X58543752Y-85744871D01*
X58548769Y-85741789D01*
X58554064Y-85739214D01*
X58559586Y-85737170D01*
X58565281Y-85735677D01*
X58571096Y-85734750D01*
X58576974Y-85734397D01*
X58582857Y-85734621D01*
X58582857Y-85734621D01*
G37*
D20*
X58471442Y-86196791D03*
D16*
G36*
X59807446Y-84718539D02*
G01*
X59816196Y-84719740D01*
X59824787Y-84721793D01*
X59833134Y-84724677D01*
X59841159Y-84728366D01*
X59848784Y-84732824D01*
X59855935Y-84738007D01*
X59862544Y-84743867D01*
X59868546Y-84750346D01*
X60331353Y-85301898D01*
X60336691Y-85308934D01*
X60341314Y-85316460D01*
X60345178Y-85324403D01*
X60348244Y-85332685D01*
X60350483Y-85341229D01*
X60351874Y-85349951D01*
X60352404Y-85358767D01*
X60352067Y-85367593D01*
X60350866Y-85376343D01*
X60348813Y-85384934D01*
X60345929Y-85393281D01*
X60342240Y-85401306D01*
X60337782Y-85408931D01*
X60332599Y-85416082D01*
X60326739Y-85422691D01*
X60320260Y-85428693D01*
X59692103Y-85955779D01*
X59685067Y-85961117D01*
X59677541Y-85965740D01*
X59669598Y-85969604D01*
X59661315Y-85972670D01*
X59652772Y-85974909D01*
X59644050Y-85976300D01*
X59635234Y-85976830D01*
X59626408Y-85976493D01*
X59617658Y-85975292D01*
X59609067Y-85973239D01*
X59600720Y-85970355D01*
X59592695Y-85966666D01*
X59585070Y-85962208D01*
X59577919Y-85957025D01*
X59571310Y-85951165D01*
X59565308Y-85944686D01*
X59102501Y-85393134D01*
X59097163Y-85386098D01*
X59092540Y-85378572D01*
X59088676Y-85370629D01*
X59085610Y-85362347D01*
X59083371Y-85353803D01*
X59081980Y-85345081D01*
X59081450Y-85336265D01*
X59081787Y-85327439D01*
X59082988Y-85318689D01*
X59085041Y-85310098D01*
X59087925Y-85301751D01*
X59091614Y-85293726D01*
X59096072Y-85286101D01*
X59101255Y-85278950D01*
X59107115Y-85272341D01*
X59113594Y-85266339D01*
X59741751Y-84739253D01*
X59748787Y-84733915D01*
X59756313Y-84729292D01*
X59764256Y-84725428D01*
X59772539Y-84722362D01*
X59781082Y-84720123D01*
X59789804Y-84718732D01*
X59798620Y-84718202D01*
X59807446Y-84718539D01*
X59807446Y-84718539D01*
G37*
D21*
X59716927Y-85347516D03*
D16*
G36*
X57509313Y-86646902D02*
G01*
X57518063Y-86648103D01*
X57526654Y-86650156D01*
X57535001Y-86653040D01*
X57543026Y-86656729D01*
X57550651Y-86661187D01*
X57557802Y-86666370D01*
X57564411Y-86672230D01*
X57570413Y-86678709D01*
X58033220Y-87230261D01*
X58038558Y-87237297D01*
X58043181Y-87244823D01*
X58047045Y-87252766D01*
X58050111Y-87261048D01*
X58052350Y-87269592D01*
X58053741Y-87278314D01*
X58054271Y-87287130D01*
X58053934Y-87295956D01*
X58052733Y-87304706D01*
X58050680Y-87313297D01*
X58047796Y-87321644D01*
X58044107Y-87329669D01*
X58039649Y-87337294D01*
X58034466Y-87344445D01*
X58028606Y-87351054D01*
X58022127Y-87357056D01*
X57393970Y-87884142D01*
X57386934Y-87889480D01*
X57379408Y-87894103D01*
X57371465Y-87897967D01*
X57363182Y-87901033D01*
X57354639Y-87903272D01*
X57345917Y-87904663D01*
X57337101Y-87905193D01*
X57328275Y-87904856D01*
X57319525Y-87903655D01*
X57310934Y-87901602D01*
X57302587Y-87898718D01*
X57294562Y-87895029D01*
X57286937Y-87890571D01*
X57279786Y-87885388D01*
X57273177Y-87879528D01*
X57267175Y-87873049D01*
X56804368Y-87321497D01*
X56799030Y-87314461D01*
X56794407Y-87306935D01*
X56790543Y-87298992D01*
X56787477Y-87290710D01*
X56785238Y-87282166D01*
X56783847Y-87273444D01*
X56783317Y-87264628D01*
X56783654Y-87255802D01*
X56784855Y-87247052D01*
X56786908Y-87238461D01*
X56789792Y-87230114D01*
X56793481Y-87222089D01*
X56797939Y-87214464D01*
X56803122Y-87207313D01*
X56808982Y-87200704D01*
X56815461Y-87194702D01*
X57443618Y-86667616D01*
X57450654Y-86662278D01*
X57458180Y-86657655D01*
X57466123Y-86653791D01*
X57474406Y-86650725D01*
X57482949Y-86648486D01*
X57491671Y-86647095D01*
X57500487Y-86646565D01*
X57509313Y-86646902D01*
X57509313Y-86646902D01*
G37*
D21*
X57418794Y-87275879D03*
D16*
G36*
X67628904Y-85734750D02*
G01*
X67634719Y-85735677D01*
X67640414Y-85737170D01*
X67645936Y-85739214D01*
X67651231Y-85741789D01*
X67656248Y-85744871D01*
X67660939Y-85748430D01*
X68181849Y-86185525D01*
X68186169Y-86189527D01*
X68190075Y-86193933D01*
X68193531Y-86198700D01*
X68196503Y-86203783D01*
X68198962Y-86209133D01*
X68200885Y-86214698D01*
X68202253Y-86220425D01*
X68203054Y-86226259D01*
X68203278Y-86232142D01*
X68202925Y-86238020D01*
X68201998Y-86243835D01*
X68200505Y-86249530D01*
X68198461Y-86255052D01*
X68195886Y-86260347D01*
X68192804Y-86265364D01*
X68189245Y-86270055D01*
X67880707Y-86637756D01*
X67876705Y-86642076D01*
X67872299Y-86645982D01*
X67867532Y-86649438D01*
X67862449Y-86652410D01*
X67857099Y-86654869D01*
X67851534Y-86656792D01*
X67845807Y-86658160D01*
X67839973Y-86658961D01*
X67834089Y-86659185D01*
X67828212Y-86658832D01*
X67822397Y-86657905D01*
X67816702Y-86656412D01*
X67811180Y-86654368D01*
X67805885Y-86651793D01*
X67800868Y-86648711D01*
X67796177Y-86645152D01*
X67275267Y-86208057D01*
X67270947Y-86204055D01*
X67267041Y-86199649D01*
X67263585Y-86194882D01*
X67260613Y-86189799D01*
X67258154Y-86184449D01*
X67256231Y-86178884D01*
X67254863Y-86173157D01*
X67254062Y-86167323D01*
X67253838Y-86161440D01*
X67254191Y-86155562D01*
X67255118Y-86149747D01*
X67256611Y-86144052D01*
X67258655Y-86138530D01*
X67261230Y-86133235D01*
X67264312Y-86128218D01*
X67267871Y-86123527D01*
X67576409Y-85755826D01*
X67580411Y-85751506D01*
X67584817Y-85747600D01*
X67589584Y-85744144D01*
X67594667Y-85741172D01*
X67600017Y-85738713D01*
X67605582Y-85736790D01*
X67611309Y-85735422D01*
X67617143Y-85734621D01*
X67623027Y-85734397D01*
X67628904Y-85734750D01*
X67628904Y-85734750D01*
G37*
D20*
X67728558Y-86196791D03*
D16*
G36*
X68708329Y-86647095D02*
G01*
X68717051Y-86648486D01*
X68725595Y-86650725D01*
X68733877Y-86653791D01*
X68741820Y-86657655D01*
X68749346Y-86662278D01*
X68756382Y-86667616D01*
X69384539Y-87194702D01*
X69391018Y-87200704D01*
X69396878Y-87207313D01*
X69402061Y-87214464D01*
X69406519Y-87222089D01*
X69410208Y-87230114D01*
X69413092Y-87238461D01*
X69415145Y-87247052D01*
X69416346Y-87255802D01*
X69416683Y-87264628D01*
X69416153Y-87273444D01*
X69414762Y-87282166D01*
X69412523Y-87290709D01*
X69409457Y-87298992D01*
X69405593Y-87306935D01*
X69400970Y-87314461D01*
X69395632Y-87321497D01*
X68932825Y-87873049D01*
X68926823Y-87879528D01*
X68920214Y-87885388D01*
X68913063Y-87890571D01*
X68905438Y-87895029D01*
X68897413Y-87898718D01*
X68889066Y-87901602D01*
X68880475Y-87903655D01*
X68871725Y-87904856D01*
X68862899Y-87905193D01*
X68854083Y-87904663D01*
X68845361Y-87903272D01*
X68836817Y-87901033D01*
X68828535Y-87897967D01*
X68820592Y-87894103D01*
X68813066Y-87889480D01*
X68806030Y-87884142D01*
X68177873Y-87357056D01*
X68171394Y-87351054D01*
X68165534Y-87344445D01*
X68160351Y-87337294D01*
X68155893Y-87329669D01*
X68152204Y-87321644D01*
X68149320Y-87313297D01*
X68147267Y-87304706D01*
X68146066Y-87295956D01*
X68145729Y-87287130D01*
X68146259Y-87278314D01*
X68147650Y-87269592D01*
X68149889Y-87261049D01*
X68152955Y-87252766D01*
X68156819Y-87244823D01*
X68161442Y-87237297D01*
X68166780Y-87230261D01*
X68629587Y-86678709D01*
X68635589Y-86672230D01*
X68642198Y-86666370D01*
X68649349Y-86661187D01*
X68656974Y-86656729D01*
X68664999Y-86653040D01*
X68673346Y-86650156D01*
X68681937Y-86648103D01*
X68690687Y-86646902D01*
X68699513Y-86646565D01*
X68708329Y-86647095D01*
X68708329Y-86647095D01*
G37*
D21*
X68781206Y-87275879D03*
D16*
G36*
X66410196Y-84718732D02*
G01*
X66418918Y-84720123D01*
X66427462Y-84722362D01*
X66435744Y-84725428D01*
X66443687Y-84729292D01*
X66451213Y-84733915D01*
X66458249Y-84739253D01*
X67086406Y-85266339D01*
X67092885Y-85272341D01*
X67098745Y-85278950D01*
X67103928Y-85286101D01*
X67108386Y-85293726D01*
X67112075Y-85301751D01*
X67114959Y-85310098D01*
X67117012Y-85318689D01*
X67118213Y-85327439D01*
X67118550Y-85336265D01*
X67118020Y-85345081D01*
X67116629Y-85353803D01*
X67114390Y-85362346D01*
X67111324Y-85370629D01*
X67107460Y-85378572D01*
X67102837Y-85386098D01*
X67097499Y-85393134D01*
X66634692Y-85944686D01*
X66628690Y-85951165D01*
X66622081Y-85957025D01*
X66614930Y-85962208D01*
X66607305Y-85966666D01*
X66599280Y-85970355D01*
X66590933Y-85973239D01*
X66582342Y-85975292D01*
X66573592Y-85976493D01*
X66564766Y-85976830D01*
X66555950Y-85976300D01*
X66547228Y-85974909D01*
X66538684Y-85972670D01*
X66530402Y-85969604D01*
X66522459Y-85965740D01*
X66514933Y-85961117D01*
X66507897Y-85955779D01*
X65879740Y-85428693D01*
X65873261Y-85422691D01*
X65867401Y-85416082D01*
X65862218Y-85408931D01*
X65857760Y-85401306D01*
X65854071Y-85393281D01*
X65851187Y-85384934D01*
X65849134Y-85376343D01*
X65847933Y-85367593D01*
X65847596Y-85358767D01*
X65848126Y-85349951D01*
X65849517Y-85341229D01*
X65851756Y-85332686D01*
X65854822Y-85324403D01*
X65858686Y-85316460D01*
X65863309Y-85308934D01*
X65868647Y-85301898D01*
X66331454Y-84750346D01*
X66337456Y-84743867D01*
X66344065Y-84738007D01*
X66351216Y-84732824D01*
X66358841Y-84728366D01*
X66366866Y-84724677D01*
X66375213Y-84721793D01*
X66383804Y-84719740D01*
X66392554Y-84718539D01*
X66401380Y-84718202D01*
X66410196Y-84718732D01*
X66410196Y-84718732D01*
G37*
D21*
X66483073Y-85347516D03*
D16*
G36*
X100345881Y-73150289D02*
G01*
X100351705Y-73151153D01*
X100357417Y-73152584D01*
X100362961Y-73154567D01*
X100368284Y-73157085D01*
X100373334Y-73160112D01*
X100378064Y-73163619D01*
X100382426Y-73167574D01*
X100386381Y-73171936D01*
X100389888Y-73176666D01*
X100392915Y-73181716D01*
X100395433Y-73187039D01*
X100397416Y-73192583D01*
X100398847Y-73198295D01*
X100399711Y-73204119D01*
X100400000Y-73210000D01*
X100400000Y-73690000D01*
X100399711Y-73695881D01*
X100398847Y-73701705D01*
X100397416Y-73707417D01*
X100395433Y-73712961D01*
X100392915Y-73718284D01*
X100389888Y-73723334D01*
X100386381Y-73728064D01*
X100382426Y-73732426D01*
X100378064Y-73736381D01*
X100373334Y-73739888D01*
X100368284Y-73742915D01*
X100362961Y-73745433D01*
X100357417Y-73747416D01*
X100351705Y-73748847D01*
X100345881Y-73749711D01*
X100340000Y-73750000D01*
X99660000Y-73750000D01*
X99654119Y-73749711D01*
X99648295Y-73748847D01*
X99642583Y-73747416D01*
X99637039Y-73745433D01*
X99631716Y-73742915D01*
X99626666Y-73739888D01*
X99621936Y-73736381D01*
X99617574Y-73732426D01*
X99613619Y-73728064D01*
X99610112Y-73723334D01*
X99607085Y-73718284D01*
X99604567Y-73712961D01*
X99602584Y-73707417D01*
X99601153Y-73701705D01*
X99600289Y-73695881D01*
X99600000Y-73690000D01*
X99600000Y-73210000D01*
X99600289Y-73204119D01*
X99601153Y-73198295D01*
X99602584Y-73192583D01*
X99604567Y-73187039D01*
X99607085Y-73181716D01*
X99610112Y-73176666D01*
X99613619Y-73171936D01*
X99617574Y-73167574D01*
X99621936Y-73163619D01*
X99626666Y-73160112D01*
X99631716Y-73157085D01*
X99637039Y-73154567D01*
X99642583Y-73152584D01*
X99648295Y-73151153D01*
X99654119Y-73150289D01*
X99660000Y-73150000D01*
X100340000Y-73150000D01*
X100345881Y-73150289D01*
X100345881Y-73150289D01*
G37*
D20*
X100000000Y-73450000D03*
D16*
G36*
X98918822Y-72850433D02*
G01*
X98927558Y-72851729D01*
X98936126Y-72853875D01*
X98944442Y-72856851D01*
X98952426Y-72860627D01*
X98960001Y-72865168D01*
X98967095Y-72870429D01*
X98973640Y-72876360D01*
X98979571Y-72882905D01*
X98984832Y-72889999D01*
X98989373Y-72897574D01*
X98993149Y-72905558D01*
X98996125Y-72913874D01*
X98998271Y-72922442D01*
X98999567Y-72931178D01*
X99000000Y-72940000D01*
X99000000Y-73660000D01*
X98999567Y-73668822D01*
X98998271Y-73677558D01*
X98996125Y-73686126D01*
X98993149Y-73694442D01*
X98989373Y-73702426D01*
X98984832Y-73710001D01*
X98979571Y-73717095D01*
X98973640Y-73723640D01*
X98967095Y-73729571D01*
X98960001Y-73734832D01*
X98952426Y-73739373D01*
X98944442Y-73743149D01*
X98936126Y-73746125D01*
X98927558Y-73748271D01*
X98918822Y-73749567D01*
X98910000Y-73750000D01*
X98090000Y-73750000D01*
X98081178Y-73749567D01*
X98072442Y-73748271D01*
X98063874Y-73746125D01*
X98055558Y-73743149D01*
X98047574Y-73739373D01*
X98039999Y-73734832D01*
X98032905Y-73729571D01*
X98026360Y-73723640D01*
X98020429Y-73717095D01*
X98015168Y-73710001D01*
X98010627Y-73702426D01*
X98006851Y-73694442D01*
X98003875Y-73686126D01*
X98001729Y-73677558D01*
X98000433Y-73668822D01*
X98000000Y-73660000D01*
X98000000Y-72940000D01*
X98000433Y-72931178D01*
X98001729Y-72922442D01*
X98003875Y-72913874D01*
X98006851Y-72905558D01*
X98010627Y-72897574D01*
X98015168Y-72889999D01*
X98020429Y-72882905D01*
X98026360Y-72876360D01*
X98032905Y-72870429D01*
X98039999Y-72865168D01*
X98047574Y-72860627D01*
X98055558Y-72856851D01*
X98063874Y-72853875D01*
X98072442Y-72851729D01*
X98081178Y-72850433D01*
X98090000Y-72850000D01*
X98910000Y-72850000D01*
X98918822Y-72850433D01*
X98918822Y-72850433D01*
G37*
D21*
X98500000Y-73300000D03*
D16*
G36*
X101918822Y-72850433D02*
G01*
X101927558Y-72851729D01*
X101936126Y-72853875D01*
X101944442Y-72856851D01*
X101952426Y-72860627D01*
X101960001Y-72865168D01*
X101967095Y-72870429D01*
X101973640Y-72876360D01*
X101979571Y-72882905D01*
X101984832Y-72889999D01*
X101989373Y-72897574D01*
X101993149Y-72905558D01*
X101996125Y-72913874D01*
X101998271Y-72922442D01*
X101999567Y-72931178D01*
X102000000Y-72940000D01*
X102000000Y-73660000D01*
X101999567Y-73668822D01*
X101998271Y-73677558D01*
X101996125Y-73686126D01*
X101993149Y-73694442D01*
X101989373Y-73702426D01*
X101984832Y-73710001D01*
X101979571Y-73717095D01*
X101973640Y-73723640D01*
X101967095Y-73729571D01*
X101960001Y-73734832D01*
X101952426Y-73739373D01*
X101944442Y-73743149D01*
X101936126Y-73746125D01*
X101927558Y-73748271D01*
X101918822Y-73749567D01*
X101910000Y-73750000D01*
X101090000Y-73750000D01*
X101081178Y-73749567D01*
X101072442Y-73748271D01*
X101063874Y-73746125D01*
X101055558Y-73743149D01*
X101047574Y-73739373D01*
X101039999Y-73734832D01*
X101032905Y-73729571D01*
X101026360Y-73723640D01*
X101020429Y-73717095D01*
X101015168Y-73710001D01*
X101010627Y-73702426D01*
X101006851Y-73694442D01*
X101003875Y-73686126D01*
X101001729Y-73677558D01*
X101000433Y-73668822D01*
X101000000Y-73660000D01*
X101000000Y-72940000D01*
X101000433Y-72931178D01*
X101001729Y-72922442D01*
X101003875Y-72913874D01*
X101006851Y-72905558D01*
X101010627Y-72897574D01*
X101015168Y-72889999D01*
X101020429Y-72882905D01*
X101026360Y-72876360D01*
X101032905Y-72870429D01*
X101039999Y-72865168D01*
X101047574Y-72860627D01*
X101055558Y-72856851D01*
X101063874Y-72853875D01*
X101072442Y-72851729D01*
X101081178Y-72850433D01*
X101090000Y-72850000D01*
X101910000Y-72850000D01*
X101918822Y-72850433D01*
X101918822Y-72850433D01*
G37*
D21*
X101500000Y-73300000D03*
D16*
G36*
X95482857Y-58884621D02*
G01*
X95488691Y-58885422D01*
X95494418Y-58886790D01*
X95499983Y-58888713D01*
X95505333Y-58891172D01*
X95510416Y-58894144D01*
X95515183Y-58897600D01*
X95519589Y-58901506D01*
X95523591Y-58905826D01*
X95832129Y-59273527D01*
X95835688Y-59278218D01*
X95838770Y-59283235D01*
X95841345Y-59288530D01*
X95843389Y-59294052D01*
X95844882Y-59299747D01*
X95845809Y-59305562D01*
X95846162Y-59311439D01*
X95845938Y-59317323D01*
X95845137Y-59323157D01*
X95843769Y-59328884D01*
X95841846Y-59334449D01*
X95839387Y-59339799D01*
X95836415Y-59344882D01*
X95832959Y-59349649D01*
X95829053Y-59354055D01*
X95824733Y-59358057D01*
X95303823Y-59795152D01*
X95299132Y-59798711D01*
X95294115Y-59801793D01*
X95288820Y-59804368D01*
X95283298Y-59806412D01*
X95277603Y-59807905D01*
X95271788Y-59808832D01*
X95265910Y-59809185D01*
X95260027Y-59808961D01*
X95254193Y-59808160D01*
X95248466Y-59806792D01*
X95242901Y-59804869D01*
X95237551Y-59802410D01*
X95232468Y-59799438D01*
X95227701Y-59795982D01*
X95223295Y-59792076D01*
X95219293Y-59787756D01*
X94910755Y-59420055D01*
X94907196Y-59415364D01*
X94904114Y-59410347D01*
X94901539Y-59405052D01*
X94899495Y-59399530D01*
X94898002Y-59393835D01*
X94897075Y-59388020D01*
X94896722Y-59382143D01*
X94896946Y-59376259D01*
X94897747Y-59370425D01*
X94899115Y-59364698D01*
X94901038Y-59359133D01*
X94903497Y-59353783D01*
X94906469Y-59348700D01*
X94909925Y-59343933D01*
X94913831Y-59339527D01*
X94918151Y-59335525D01*
X95439061Y-58898430D01*
X95443752Y-58894871D01*
X95448769Y-58891789D01*
X95454064Y-58889214D01*
X95459586Y-58887170D01*
X95465281Y-58885677D01*
X95471096Y-58884750D01*
X95476974Y-58884397D01*
X95482857Y-58884621D01*
X95482857Y-58884621D01*
G37*
D20*
X95371442Y-59346791D03*
D16*
G36*
X96707446Y-57868539D02*
G01*
X96716196Y-57869740D01*
X96724787Y-57871793D01*
X96733134Y-57874677D01*
X96741159Y-57878366D01*
X96748784Y-57882824D01*
X96755935Y-57888007D01*
X96762544Y-57893867D01*
X96768546Y-57900346D01*
X97231353Y-58451898D01*
X97236691Y-58458934D01*
X97241314Y-58466460D01*
X97245178Y-58474403D01*
X97248244Y-58482685D01*
X97250483Y-58491229D01*
X97251874Y-58499951D01*
X97252404Y-58508767D01*
X97252067Y-58517593D01*
X97250866Y-58526343D01*
X97248813Y-58534934D01*
X97245929Y-58543281D01*
X97242240Y-58551306D01*
X97237782Y-58558931D01*
X97232599Y-58566082D01*
X97226739Y-58572691D01*
X97220260Y-58578693D01*
X96592103Y-59105779D01*
X96585067Y-59111117D01*
X96577541Y-59115740D01*
X96569598Y-59119604D01*
X96561315Y-59122670D01*
X96552772Y-59124909D01*
X96544050Y-59126300D01*
X96535234Y-59126830D01*
X96526408Y-59126493D01*
X96517658Y-59125292D01*
X96509067Y-59123239D01*
X96500720Y-59120355D01*
X96492695Y-59116666D01*
X96485070Y-59112208D01*
X96477919Y-59107025D01*
X96471310Y-59101165D01*
X96465308Y-59094686D01*
X96002501Y-58543134D01*
X95997163Y-58536098D01*
X95992540Y-58528572D01*
X95988676Y-58520629D01*
X95985610Y-58512347D01*
X95983371Y-58503803D01*
X95981980Y-58495081D01*
X95981450Y-58486265D01*
X95981787Y-58477439D01*
X95982988Y-58468689D01*
X95985041Y-58460098D01*
X95987925Y-58451751D01*
X95991614Y-58443726D01*
X95996072Y-58436101D01*
X96001255Y-58428950D01*
X96007115Y-58422341D01*
X96013594Y-58416339D01*
X96641751Y-57889253D01*
X96648787Y-57883915D01*
X96656313Y-57879292D01*
X96664256Y-57875428D01*
X96672539Y-57872362D01*
X96681082Y-57870123D01*
X96689804Y-57868732D01*
X96698620Y-57868202D01*
X96707446Y-57868539D01*
X96707446Y-57868539D01*
G37*
D21*
X96616927Y-58497516D03*
D16*
G36*
X94409313Y-59796902D02*
G01*
X94418063Y-59798103D01*
X94426654Y-59800156D01*
X94435001Y-59803040D01*
X94443026Y-59806729D01*
X94450651Y-59811187D01*
X94457802Y-59816370D01*
X94464411Y-59822230D01*
X94470413Y-59828709D01*
X94933220Y-60380261D01*
X94938558Y-60387297D01*
X94943181Y-60394823D01*
X94947045Y-60402766D01*
X94950111Y-60411048D01*
X94952350Y-60419592D01*
X94953741Y-60428314D01*
X94954271Y-60437130D01*
X94953934Y-60445956D01*
X94952733Y-60454706D01*
X94950680Y-60463297D01*
X94947796Y-60471644D01*
X94944107Y-60479669D01*
X94939649Y-60487294D01*
X94934466Y-60494445D01*
X94928606Y-60501054D01*
X94922127Y-60507056D01*
X94293970Y-61034142D01*
X94286934Y-61039480D01*
X94279408Y-61044103D01*
X94271465Y-61047967D01*
X94263182Y-61051033D01*
X94254639Y-61053272D01*
X94245917Y-61054663D01*
X94237101Y-61055193D01*
X94228275Y-61054856D01*
X94219525Y-61053655D01*
X94210934Y-61051602D01*
X94202587Y-61048718D01*
X94194562Y-61045029D01*
X94186937Y-61040571D01*
X94179786Y-61035388D01*
X94173177Y-61029528D01*
X94167175Y-61023049D01*
X93704368Y-60471497D01*
X93699030Y-60464461D01*
X93694407Y-60456935D01*
X93690543Y-60448992D01*
X93687477Y-60440710D01*
X93685238Y-60432166D01*
X93683847Y-60423444D01*
X93683317Y-60414628D01*
X93683654Y-60405802D01*
X93684855Y-60397052D01*
X93686908Y-60388461D01*
X93689792Y-60380114D01*
X93693481Y-60372089D01*
X93697939Y-60364464D01*
X93703122Y-60357313D01*
X93708982Y-60350704D01*
X93715461Y-60344702D01*
X94343618Y-59817616D01*
X94350654Y-59812278D01*
X94358180Y-59807655D01*
X94366123Y-59803791D01*
X94374406Y-59800725D01*
X94382949Y-59798486D01*
X94391671Y-59797095D01*
X94400487Y-59796565D01*
X94409313Y-59796902D01*
X94409313Y-59796902D01*
G37*
D21*
X94318794Y-60425879D03*
D16*
G36*
X104528904Y-58884750D02*
G01*
X104534719Y-58885677D01*
X104540414Y-58887170D01*
X104545936Y-58889214D01*
X104551231Y-58891789D01*
X104556248Y-58894871D01*
X104560939Y-58898430D01*
X105081849Y-59335525D01*
X105086169Y-59339527D01*
X105090075Y-59343933D01*
X105093531Y-59348700D01*
X105096503Y-59353783D01*
X105098962Y-59359133D01*
X105100885Y-59364698D01*
X105102253Y-59370425D01*
X105103054Y-59376259D01*
X105103278Y-59382142D01*
X105102925Y-59388020D01*
X105101998Y-59393835D01*
X105100505Y-59399530D01*
X105098461Y-59405052D01*
X105095886Y-59410347D01*
X105092804Y-59415364D01*
X105089245Y-59420055D01*
X104780707Y-59787756D01*
X104776705Y-59792076D01*
X104772299Y-59795982D01*
X104767532Y-59799438D01*
X104762449Y-59802410D01*
X104757099Y-59804869D01*
X104751534Y-59806792D01*
X104745807Y-59808160D01*
X104739973Y-59808961D01*
X104734089Y-59809185D01*
X104728212Y-59808832D01*
X104722397Y-59807905D01*
X104716702Y-59806412D01*
X104711180Y-59804368D01*
X104705885Y-59801793D01*
X104700868Y-59798711D01*
X104696177Y-59795152D01*
X104175267Y-59358057D01*
X104170947Y-59354055D01*
X104167041Y-59349649D01*
X104163585Y-59344882D01*
X104160613Y-59339799D01*
X104158154Y-59334449D01*
X104156231Y-59328884D01*
X104154863Y-59323157D01*
X104154062Y-59317323D01*
X104153838Y-59311440D01*
X104154191Y-59305562D01*
X104155118Y-59299747D01*
X104156611Y-59294052D01*
X104158655Y-59288530D01*
X104161230Y-59283235D01*
X104164312Y-59278218D01*
X104167871Y-59273527D01*
X104476409Y-58905826D01*
X104480411Y-58901506D01*
X104484817Y-58897600D01*
X104489584Y-58894144D01*
X104494667Y-58891172D01*
X104500017Y-58888713D01*
X104505582Y-58886790D01*
X104511309Y-58885422D01*
X104517143Y-58884621D01*
X104523027Y-58884397D01*
X104528904Y-58884750D01*
X104528904Y-58884750D01*
G37*
D20*
X104628558Y-59346791D03*
D16*
G36*
X105608329Y-59797095D02*
G01*
X105617051Y-59798486D01*
X105625595Y-59800725D01*
X105633877Y-59803791D01*
X105641820Y-59807655D01*
X105649346Y-59812278D01*
X105656382Y-59817616D01*
X106284539Y-60344702D01*
X106291018Y-60350704D01*
X106296878Y-60357313D01*
X106302061Y-60364464D01*
X106306519Y-60372089D01*
X106310208Y-60380114D01*
X106313092Y-60388461D01*
X106315145Y-60397052D01*
X106316346Y-60405802D01*
X106316683Y-60414628D01*
X106316153Y-60423444D01*
X106314762Y-60432166D01*
X106312523Y-60440709D01*
X106309457Y-60448992D01*
X106305593Y-60456935D01*
X106300970Y-60464461D01*
X106295632Y-60471497D01*
X105832825Y-61023049D01*
X105826823Y-61029528D01*
X105820214Y-61035388D01*
X105813063Y-61040571D01*
X105805438Y-61045029D01*
X105797413Y-61048718D01*
X105789066Y-61051602D01*
X105780475Y-61053655D01*
X105771725Y-61054856D01*
X105762899Y-61055193D01*
X105754083Y-61054663D01*
X105745361Y-61053272D01*
X105736817Y-61051033D01*
X105728535Y-61047967D01*
X105720592Y-61044103D01*
X105713066Y-61039480D01*
X105706030Y-61034142D01*
X105077873Y-60507056D01*
X105071394Y-60501054D01*
X105065534Y-60494445D01*
X105060351Y-60487294D01*
X105055893Y-60479669D01*
X105052204Y-60471644D01*
X105049320Y-60463297D01*
X105047267Y-60454706D01*
X105046066Y-60445956D01*
X105045729Y-60437130D01*
X105046259Y-60428314D01*
X105047650Y-60419592D01*
X105049889Y-60411049D01*
X105052955Y-60402766D01*
X105056819Y-60394823D01*
X105061442Y-60387297D01*
X105066780Y-60380261D01*
X105529587Y-59828709D01*
X105535589Y-59822230D01*
X105542198Y-59816370D01*
X105549349Y-59811187D01*
X105556974Y-59806729D01*
X105564999Y-59803040D01*
X105573346Y-59800156D01*
X105581937Y-59798103D01*
X105590687Y-59796902D01*
X105599513Y-59796565D01*
X105608329Y-59797095D01*
X105608329Y-59797095D01*
G37*
D21*
X105681206Y-60425879D03*
D16*
G36*
X103310196Y-57868732D02*
G01*
X103318918Y-57870123D01*
X103327462Y-57872362D01*
X103335744Y-57875428D01*
X103343687Y-57879292D01*
X103351213Y-57883915D01*
X103358249Y-57889253D01*
X103986406Y-58416339D01*
X103992885Y-58422341D01*
X103998745Y-58428950D01*
X104003928Y-58436101D01*
X104008386Y-58443726D01*
X104012075Y-58451751D01*
X104014959Y-58460098D01*
X104017012Y-58468689D01*
X104018213Y-58477439D01*
X104018550Y-58486265D01*
X104018020Y-58495081D01*
X104016629Y-58503803D01*
X104014390Y-58512346D01*
X104011324Y-58520629D01*
X104007460Y-58528572D01*
X104002837Y-58536098D01*
X103997499Y-58543134D01*
X103534692Y-59094686D01*
X103528690Y-59101165D01*
X103522081Y-59107025D01*
X103514930Y-59112208D01*
X103507305Y-59116666D01*
X103499280Y-59120355D01*
X103490933Y-59123239D01*
X103482342Y-59125292D01*
X103473592Y-59126493D01*
X103464766Y-59126830D01*
X103455950Y-59126300D01*
X103447228Y-59124909D01*
X103438684Y-59122670D01*
X103430402Y-59119604D01*
X103422459Y-59115740D01*
X103414933Y-59111117D01*
X103407897Y-59105779D01*
X102779740Y-58578693D01*
X102773261Y-58572691D01*
X102767401Y-58566082D01*
X102762218Y-58558931D01*
X102757760Y-58551306D01*
X102754071Y-58543281D01*
X102751187Y-58534934D01*
X102749134Y-58526343D01*
X102747933Y-58517593D01*
X102747596Y-58508767D01*
X102748126Y-58499951D01*
X102749517Y-58491229D01*
X102751756Y-58482686D01*
X102754822Y-58474403D01*
X102758686Y-58466460D01*
X102763309Y-58458934D01*
X102768647Y-58451898D01*
X103231454Y-57900346D01*
X103237456Y-57893867D01*
X103244065Y-57888007D01*
X103251216Y-57882824D01*
X103258841Y-57878366D01*
X103266866Y-57874677D01*
X103275213Y-57871793D01*
X103283804Y-57869740D01*
X103292554Y-57868539D01*
X103301380Y-57868202D01*
X103310196Y-57868732D01*
X103310196Y-57868732D01*
G37*
D21*
X103383073Y-58497516D03*
D16*
G36*
X89474505Y-152251204D02*
G01*
X89498773Y-152254804D01*
X89522572Y-152260765D01*
X89545671Y-152269030D01*
X89567850Y-152279520D01*
X89588893Y-152292132D01*
X89608599Y-152306747D01*
X89626777Y-152323223D01*
X89643253Y-152341401D01*
X89657868Y-152361107D01*
X89670480Y-152382150D01*
X89680970Y-152404329D01*
X89689235Y-152427428D01*
X89695196Y-152451227D01*
X89698796Y-152475495D01*
X89700000Y-152499999D01*
X89700000Y-153150001D01*
X89698796Y-153174505D01*
X89695196Y-153198773D01*
X89689235Y-153222572D01*
X89680970Y-153245671D01*
X89670480Y-153267850D01*
X89657868Y-153288893D01*
X89643253Y-153308599D01*
X89626777Y-153326777D01*
X89608599Y-153343253D01*
X89588893Y-153357868D01*
X89567850Y-153370480D01*
X89545671Y-153380970D01*
X89522572Y-153389235D01*
X89498773Y-153395196D01*
X89474505Y-153398796D01*
X89450001Y-153400000D01*
X88549999Y-153400000D01*
X88525495Y-153398796D01*
X88501227Y-153395196D01*
X88477428Y-153389235D01*
X88454329Y-153380970D01*
X88432150Y-153370480D01*
X88411107Y-153357868D01*
X88391401Y-153343253D01*
X88373223Y-153326777D01*
X88356747Y-153308599D01*
X88342132Y-153288893D01*
X88329520Y-153267850D01*
X88319030Y-153245671D01*
X88310765Y-153222572D01*
X88304804Y-153198773D01*
X88301204Y-153174505D01*
X88300000Y-153150001D01*
X88300000Y-152499999D01*
X88301204Y-152475495D01*
X88304804Y-152451227D01*
X88310765Y-152427428D01*
X88319030Y-152404329D01*
X88329520Y-152382150D01*
X88342132Y-152361107D01*
X88356747Y-152341401D01*
X88373223Y-152323223D01*
X88391401Y-152306747D01*
X88411107Y-152292132D01*
X88432150Y-152279520D01*
X88454329Y-152269030D01*
X88477428Y-152260765D01*
X88501227Y-152254804D01*
X88525495Y-152251204D01*
X88549999Y-152250000D01*
X89450001Y-152250000D01*
X89474505Y-152251204D01*
X89474505Y-152251204D01*
G37*
D18*
X89000000Y-152825000D03*
D16*
G36*
X89474505Y-150201204D02*
G01*
X89498773Y-150204804D01*
X89522572Y-150210765D01*
X89545671Y-150219030D01*
X89567850Y-150229520D01*
X89588893Y-150242132D01*
X89608599Y-150256747D01*
X89626777Y-150273223D01*
X89643253Y-150291401D01*
X89657868Y-150311107D01*
X89670480Y-150332150D01*
X89680970Y-150354329D01*
X89689235Y-150377428D01*
X89695196Y-150401227D01*
X89698796Y-150425495D01*
X89700000Y-150449999D01*
X89700000Y-151100001D01*
X89698796Y-151124505D01*
X89695196Y-151148773D01*
X89689235Y-151172572D01*
X89680970Y-151195671D01*
X89670480Y-151217850D01*
X89657868Y-151238893D01*
X89643253Y-151258599D01*
X89626777Y-151276777D01*
X89608599Y-151293253D01*
X89588893Y-151307868D01*
X89567850Y-151320480D01*
X89545671Y-151330970D01*
X89522572Y-151339235D01*
X89498773Y-151345196D01*
X89474505Y-151348796D01*
X89450001Y-151350000D01*
X88549999Y-151350000D01*
X88525495Y-151348796D01*
X88501227Y-151345196D01*
X88477428Y-151339235D01*
X88454329Y-151330970D01*
X88432150Y-151320480D01*
X88411107Y-151307868D01*
X88391401Y-151293253D01*
X88373223Y-151276777D01*
X88356747Y-151258599D01*
X88342132Y-151238893D01*
X88329520Y-151217850D01*
X88319030Y-151195671D01*
X88310765Y-151172572D01*
X88304804Y-151148773D01*
X88301204Y-151124505D01*
X88300000Y-151100001D01*
X88300000Y-150449999D01*
X88301204Y-150425495D01*
X88304804Y-150401227D01*
X88310765Y-150377428D01*
X88319030Y-150354329D01*
X88329520Y-150332150D01*
X88342132Y-150311107D01*
X88356747Y-150291401D01*
X88373223Y-150273223D01*
X88391401Y-150256747D01*
X88411107Y-150242132D01*
X88432150Y-150229520D01*
X88454329Y-150219030D01*
X88477428Y-150210765D01*
X88501227Y-150204804D01*
X88525495Y-150201204D01*
X88549999Y-150200000D01*
X89450001Y-150200000D01*
X89474505Y-150201204D01*
X89474505Y-150201204D01*
G37*
D18*
X89000000Y-150775000D03*
D16*
G36*
X89474505Y-144001204D02*
G01*
X89498773Y-144004804D01*
X89522572Y-144010765D01*
X89545671Y-144019030D01*
X89567850Y-144029520D01*
X89588893Y-144042132D01*
X89608599Y-144056747D01*
X89626777Y-144073223D01*
X89643253Y-144091401D01*
X89657868Y-144111107D01*
X89670480Y-144132150D01*
X89680970Y-144154329D01*
X89689235Y-144177428D01*
X89695196Y-144201227D01*
X89698796Y-144225495D01*
X89700000Y-144249999D01*
X89700000Y-144900001D01*
X89698796Y-144924505D01*
X89695196Y-144948773D01*
X89689235Y-144972572D01*
X89680970Y-144995671D01*
X89670480Y-145017850D01*
X89657868Y-145038893D01*
X89643253Y-145058599D01*
X89626777Y-145076777D01*
X89608599Y-145093253D01*
X89588893Y-145107868D01*
X89567850Y-145120480D01*
X89545671Y-145130970D01*
X89522572Y-145139235D01*
X89498773Y-145145196D01*
X89474505Y-145148796D01*
X89450001Y-145150000D01*
X88549999Y-145150000D01*
X88525495Y-145148796D01*
X88501227Y-145145196D01*
X88477428Y-145139235D01*
X88454329Y-145130970D01*
X88432150Y-145120480D01*
X88411107Y-145107868D01*
X88391401Y-145093253D01*
X88373223Y-145076777D01*
X88356747Y-145058599D01*
X88342132Y-145038893D01*
X88329520Y-145017850D01*
X88319030Y-144995671D01*
X88310765Y-144972572D01*
X88304804Y-144948773D01*
X88301204Y-144924505D01*
X88300000Y-144900001D01*
X88300000Y-144249999D01*
X88301204Y-144225495D01*
X88304804Y-144201227D01*
X88310765Y-144177428D01*
X88319030Y-144154329D01*
X88329520Y-144132150D01*
X88342132Y-144111107D01*
X88356747Y-144091401D01*
X88373223Y-144073223D01*
X88391401Y-144056747D01*
X88411107Y-144042132D01*
X88432150Y-144029520D01*
X88454329Y-144019030D01*
X88477428Y-144010765D01*
X88501227Y-144004804D01*
X88525495Y-144001204D01*
X88549999Y-144000000D01*
X89450001Y-144000000D01*
X89474505Y-144001204D01*
X89474505Y-144001204D01*
G37*
D18*
X89000000Y-144575000D03*
D16*
G36*
X89474505Y-146051204D02*
G01*
X89498773Y-146054804D01*
X89522572Y-146060765D01*
X89545671Y-146069030D01*
X89567850Y-146079520D01*
X89588893Y-146092132D01*
X89608599Y-146106747D01*
X89626777Y-146123223D01*
X89643253Y-146141401D01*
X89657868Y-146161107D01*
X89670480Y-146182150D01*
X89680970Y-146204329D01*
X89689235Y-146227428D01*
X89695196Y-146251227D01*
X89698796Y-146275495D01*
X89700000Y-146299999D01*
X89700000Y-146950001D01*
X89698796Y-146974505D01*
X89695196Y-146998773D01*
X89689235Y-147022572D01*
X89680970Y-147045671D01*
X89670480Y-147067850D01*
X89657868Y-147088893D01*
X89643253Y-147108599D01*
X89626777Y-147126777D01*
X89608599Y-147143253D01*
X89588893Y-147157868D01*
X89567850Y-147170480D01*
X89545671Y-147180970D01*
X89522572Y-147189235D01*
X89498773Y-147195196D01*
X89474505Y-147198796D01*
X89450001Y-147200000D01*
X88549999Y-147200000D01*
X88525495Y-147198796D01*
X88501227Y-147195196D01*
X88477428Y-147189235D01*
X88454329Y-147180970D01*
X88432150Y-147170480D01*
X88411107Y-147157868D01*
X88391401Y-147143253D01*
X88373223Y-147126777D01*
X88356747Y-147108599D01*
X88342132Y-147088893D01*
X88329520Y-147067850D01*
X88319030Y-147045671D01*
X88310765Y-147022572D01*
X88304804Y-146998773D01*
X88301204Y-146974505D01*
X88300000Y-146950001D01*
X88300000Y-146299999D01*
X88301204Y-146275495D01*
X88304804Y-146251227D01*
X88310765Y-146227428D01*
X88319030Y-146204329D01*
X88329520Y-146182150D01*
X88342132Y-146161107D01*
X88356747Y-146141401D01*
X88373223Y-146123223D01*
X88391401Y-146106747D01*
X88411107Y-146092132D01*
X88432150Y-146079520D01*
X88454329Y-146069030D01*
X88477428Y-146060765D01*
X88501227Y-146054804D01*
X88525495Y-146051204D01*
X88549999Y-146050000D01*
X89450001Y-146050000D01*
X89474505Y-146051204D01*
X89474505Y-146051204D01*
G37*
D18*
X89000000Y-146625000D03*
D16*
G36*
X111724505Y-146151204D02*
G01*
X111748773Y-146154804D01*
X111772572Y-146160765D01*
X111795671Y-146169030D01*
X111817850Y-146179520D01*
X111838893Y-146192132D01*
X111858599Y-146206747D01*
X111876777Y-146223223D01*
X111893253Y-146241401D01*
X111907868Y-146261107D01*
X111920480Y-146282150D01*
X111930970Y-146304329D01*
X111939235Y-146327428D01*
X111945196Y-146351227D01*
X111948796Y-146375495D01*
X111950000Y-146399999D01*
X111950000Y-147050001D01*
X111948796Y-147074505D01*
X111945196Y-147098773D01*
X111939235Y-147122572D01*
X111930970Y-147145671D01*
X111920480Y-147167850D01*
X111907868Y-147188893D01*
X111893253Y-147208599D01*
X111876777Y-147226777D01*
X111858599Y-147243253D01*
X111838893Y-147257868D01*
X111817850Y-147270480D01*
X111795671Y-147280970D01*
X111772572Y-147289235D01*
X111748773Y-147295196D01*
X111724505Y-147298796D01*
X111700001Y-147300000D01*
X110799999Y-147300000D01*
X110775495Y-147298796D01*
X110751227Y-147295196D01*
X110727428Y-147289235D01*
X110704329Y-147280970D01*
X110682150Y-147270480D01*
X110661107Y-147257868D01*
X110641401Y-147243253D01*
X110623223Y-147226777D01*
X110606747Y-147208599D01*
X110592132Y-147188893D01*
X110579520Y-147167850D01*
X110569030Y-147145671D01*
X110560765Y-147122572D01*
X110554804Y-147098773D01*
X110551204Y-147074505D01*
X110550000Y-147050001D01*
X110550000Y-146399999D01*
X110551204Y-146375495D01*
X110554804Y-146351227D01*
X110560765Y-146327428D01*
X110569030Y-146304329D01*
X110579520Y-146282150D01*
X110592132Y-146261107D01*
X110606747Y-146241401D01*
X110623223Y-146223223D01*
X110641401Y-146206747D01*
X110661107Y-146192132D01*
X110682150Y-146179520D01*
X110704329Y-146169030D01*
X110727428Y-146160765D01*
X110751227Y-146154804D01*
X110775495Y-146151204D01*
X110799999Y-146150000D01*
X111700001Y-146150000D01*
X111724505Y-146151204D01*
X111724505Y-146151204D01*
G37*
D18*
X111250000Y-146725000D03*
D16*
G36*
X111724505Y-148201204D02*
G01*
X111748773Y-148204804D01*
X111772572Y-148210765D01*
X111795671Y-148219030D01*
X111817850Y-148229520D01*
X111838893Y-148242132D01*
X111858599Y-148256747D01*
X111876777Y-148273223D01*
X111893253Y-148291401D01*
X111907868Y-148311107D01*
X111920480Y-148332150D01*
X111930970Y-148354329D01*
X111939235Y-148377428D01*
X111945196Y-148401227D01*
X111948796Y-148425495D01*
X111950000Y-148449999D01*
X111950000Y-149100001D01*
X111948796Y-149124505D01*
X111945196Y-149148773D01*
X111939235Y-149172572D01*
X111930970Y-149195671D01*
X111920480Y-149217850D01*
X111907868Y-149238893D01*
X111893253Y-149258599D01*
X111876777Y-149276777D01*
X111858599Y-149293253D01*
X111838893Y-149307868D01*
X111817850Y-149320480D01*
X111795671Y-149330970D01*
X111772572Y-149339235D01*
X111748773Y-149345196D01*
X111724505Y-149348796D01*
X111700001Y-149350000D01*
X110799999Y-149350000D01*
X110775495Y-149348796D01*
X110751227Y-149345196D01*
X110727428Y-149339235D01*
X110704329Y-149330970D01*
X110682150Y-149320480D01*
X110661107Y-149307868D01*
X110641401Y-149293253D01*
X110623223Y-149276777D01*
X110606747Y-149258599D01*
X110592132Y-149238893D01*
X110579520Y-149217850D01*
X110569030Y-149195671D01*
X110560765Y-149172572D01*
X110554804Y-149148773D01*
X110551204Y-149124505D01*
X110550000Y-149100001D01*
X110550000Y-148449999D01*
X110551204Y-148425495D01*
X110554804Y-148401227D01*
X110560765Y-148377428D01*
X110569030Y-148354329D01*
X110579520Y-148332150D01*
X110592132Y-148311107D01*
X110606747Y-148291401D01*
X110623223Y-148273223D01*
X110641401Y-148256747D01*
X110661107Y-148242132D01*
X110682150Y-148229520D01*
X110704329Y-148219030D01*
X110727428Y-148210765D01*
X110751227Y-148204804D01*
X110775495Y-148201204D01*
X110799999Y-148200000D01*
X111700001Y-148200000D01*
X111724505Y-148201204D01*
X111724505Y-148201204D01*
G37*
D18*
X111250000Y-148775000D03*
D16*
G36*
X111724505Y-154701204D02*
G01*
X111748773Y-154704804D01*
X111772572Y-154710765D01*
X111795671Y-154719030D01*
X111817850Y-154729520D01*
X111838893Y-154742132D01*
X111858599Y-154756747D01*
X111876777Y-154773223D01*
X111893253Y-154791401D01*
X111907868Y-154811107D01*
X111920480Y-154832150D01*
X111930970Y-154854329D01*
X111939235Y-154877428D01*
X111945196Y-154901227D01*
X111948796Y-154925495D01*
X111950000Y-154949999D01*
X111950000Y-155600001D01*
X111948796Y-155624505D01*
X111945196Y-155648773D01*
X111939235Y-155672572D01*
X111930970Y-155695671D01*
X111920480Y-155717850D01*
X111907868Y-155738893D01*
X111893253Y-155758599D01*
X111876777Y-155776777D01*
X111858599Y-155793253D01*
X111838893Y-155807868D01*
X111817850Y-155820480D01*
X111795671Y-155830970D01*
X111772572Y-155839235D01*
X111748773Y-155845196D01*
X111724505Y-155848796D01*
X111700001Y-155850000D01*
X110799999Y-155850000D01*
X110775495Y-155848796D01*
X110751227Y-155845196D01*
X110727428Y-155839235D01*
X110704329Y-155830970D01*
X110682150Y-155820480D01*
X110661107Y-155807868D01*
X110641401Y-155793253D01*
X110623223Y-155776777D01*
X110606747Y-155758599D01*
X110592132Y-155738893D01*
X110579520Y-155717850D01*
X110569030Y-155695671D01*
X110560765Y-155672572D01*
X110554804Y-155648773D01*
X110551204Y-155624505D01*
X110550000Y-155600001D01*
X110550000Y-154949999D01*
X110551204Y-154925495D01*
X110554804Y-154901227D01*
X110560765Y-154877428D01*
X110569030Y-154854329D01*
X110579520Y-154832150D01*
X110592132Y-154811107D01*
X110606747Y-154791401D01*
X110623223Y-154773223D01*
X110641401Y-154756747D01*
X110661107Y-154742132D01*
X110682150Y-154729520D01*
X110704329Y-154719030D01*
X110727428Y-154710765D01*
X110751227Y-154704804D01*
X110775495Y-154701204D01*
X110799999Y-154700000D01*
X111700001Y-154700000D01*
X111724505Y-154701204D01*
X111724505Y-154701204D01*
G37*
D18*
X111250000Y-155275000D03*
D16*
G36*
X111724505Y-152651204D02*
G01*
X111748773Y-152654804D01*
X111772572Y-152660765D01*
X111795671Y-152669030D01*
X111817850Y-152679520D01*
X111838893Y-152692132D01*
X111858599Y-152706747D01*
X111876777Y-152723223D01*
X111893253Y-152741401D01*
X111907868Y-152761107D01*
X111920480Y-152782150D01*
X111930970Y-152804329D01*
X111939235Y-152827428D01*
X111945196Y-152851227D01*
X111948796Y-152875495D01*
X111950000Y-152899999D01*
X111950000Y-153550001D01*
X111948796Y-153574505D01*
X111945196Y-153598773D01*
X111939235Y-153622572D01*
X111930970Y-153645671D01*
X111920480Y-153667850D01*
X111907868Y-153688893D01*
X111893253Y-153708599D01*
X111876777Y-153726777D01*
X111858599Y-153743253D01*
X111838893Y-153757868D01*
X111817850Y-153770480D01*
X111795671Y-153780970D01*
X111772572Y-153789235D01*
X111748773Y-153795196D01*
X111724505Y-153798796D01*
X111700001Y-153800000D01*
X110799999Y-153800000D01*
X110775495Y-153798796D01*
X110751227Y-153795196D01*
X110727428Y-153789235D01*
X110704329Y-153780970D01*
X110682150Y-153770480D01*
X110661107Y-153757868D01*
X110641401Y-153743253D01*
X110623223Y-153726777D01*
X110606747Y-153708599D01*
X110592132Y-153688893D01*
X110579520Y-153667850D01*
X110569030Y-153645671D01*
X110560765Y-153622572D01*
X110554804Y-153598773D01*
X110551204Y-153574505D01*
X110550000Y-153550001D01*
X110550000Y-152899999D01*
X110551204Y-152875495D01*
X110554804Y-152851227D01*
X110560765Y-152827428D01*
X110569030Y-152804329D01*
X110579520Y-152782150D01*
X110592132Y-152761107D01*
X110606747Y-152741401D01*
X110623223Y-152723223D01*
X110641401Y-152706747D01*
X110661107Y-152692132D01*
X110682150Y-152679520D01*
X110704329Y-152669030D01*
X110727428Y-152660765D01*
X110751227Y-152654804D01*
X110775495Y-152651204D01*
X110799999Y-152650000D01*
X111700001Y-152650000D01*
X111724505Y-152651204D01*
X111724505Y-152651204D01*
G37*
D18*
X111250000Y-153225000D03*
D22*
X83000000Y-150600000D03*
X83000000Y-149650000D03*
X83000000Y-148700000D03*
X85700000Y-148700000D03*
X85700000Y-150600000D03*
M02*
