M48
; DRILL file {KiCad 5.1.2} date Mon 29 Jul 2019 04:25:43 AM PDT
; FORMAT={-:-/ absolute / inch / decimal}
; #@! TF.CreationDate,2019-07-29T04:25:43-07:00
; #@! TF.GenerationSoftware,Kicad,Pcbnew,5.1.2
; #@! TF.FileFunction,Plated,1,2,PTH
FMAT,2
INCH
T1C0.0118
T2C0.0197
T3C0.0217
T4C0.0400
T5C0.0402
T6C0.1575
%
G90
G05
T1
X2.2362Y-6.6004
X2.2717Y-6.7028
X2.2756Y-6.6004
X3.2116Y-4.249
X3.2126Y-4.1506
X3.2126Y-4.0551
X3.2205Y-3.4646
X3.2205Y-4.3425
X3.2825Y-4.0768
X3.2825Y-4.1516
X3.2835Y-3.5669
X3.311Y-4.0984
X3.3228Y-4.3081
X3.3622Y-3.9213
X3.4134Y-4.2205
X3.4262Y-4.249
X3.4311Y-4.3435
X3.4646Y-3.4646
X3.4685Y-4.0984
X3.4762Y-4.3081
X3.4882Y-3.8839
X3.5335Y-4.0551
X3.5354Y-4.2205
X3.5363Y-3.5678
X3.5394Y-3.8839
X3.5394Y-3.9213
X3.8976Y-5.2303
X3.937Y-3.937
X3.937Y-4.3012
X3.937Y-5.7559
X3.9764Y-5.2303
X4.3465Y-4.0157
X4.3504Y-4.3012
X4.378Y-4.061
X4.3873Y-3.9075
X4.3996Y-4.1929
X4.4331Y-3.3327
X4.439Y-4.2126
X4.4587Y-4.2421
X4.4783Y-4.3632
X4.5Y-4.3829
X4.5179Y-3.9075
X4.5179Y-4.0384
X4.5187Y-4.3947
X4.5413Y-4.5138
X4.5531Y-4.061
X4.562Y-4.4705
X4.5856Y-4.1388
X4.5866Y-4.0384
X4.6102Y-4.189
X4.6348Y-4.0148
X4.6348Y-4.1388
X4.6348Y-4.5138
X4.6517Y-3.5099
X4.6575Y-3.9821
X4.6575Y-4.1388
X4.6575Y-4.4695
X4.6752Y-4.2126
X4.6801Y-4.3947
X4.6811Y-4.3376
X4.6811Y-4.3652
X4.6811Y-4.2421
X4.685Y-4.3012
X5.3799Y-4.2421
X5.4902Y-6.6909
X5.5367Y-6.6909
T4
X5.5717Y-6.6437
X5.5717Y-6.7437
X5.6717Y-6.6437
X5.6717Y-6.7437
X5.7717Y-6.6437
X5.7717Y-6.7437
X2.1071Y-6.6437
X2.1071Y-6.7437
X2.2071Y-6.6437
X2.2071Y-6.7437
X2.3071Y-6.6437
X2.3071Y-6.7437
X6.674Y-3.3366
X6.674Y-3.4366
X6.774Y-3.3366
X6.774Y-3.4366
X6.874Y-3.3366
X6.874Y-3.4366
X3.8394Y-1.1319
X3.8394Y-1.2319
X3.9394Y-1.1319
X3.9394Y-1.2319
X4.0394Y-1.1319
X4.0394Y-1.2319
X1.0047Y-3.3366
X1.0047Y-3.4366
X1.1047Y-3.3366
X1.1047Y-3.4366
X1.2047Y-3.3366
X1.2047Y-3.4366
T5
X2.8681Y-3.9955
X2.8681Y-4.5856
T6
X3.937Y-0.6983
T2
G00X3.8091Y-6.2411
M15
G01X3.8091Y-6.2156
M16
G05
G00X4.0846Y-6.2411
M15
G01X4.0846Y-6.2156
M16
G05
T3
G00X3.8543Y-6.122
M15
G01X3.8425Y-6.122
M16
G05
G00X4.0512Y-6.122
M15
G01X4.0394Y-6.122
M16
G05
T0
M30
