G04 #@! TF.GenerationSoftware,KiCad,Pcbnew,5.1.3-ffb9f22~84~ubuntu16.04.1*
G04 #@! TF.CreationDate,2019-07-25T21:15:37-07:00*
G04 #@! TF.ProjectId,Star_Badge,53746172-5f42-4616-9467-652e6b696361,rev?*
G04 #@! TF.SameCoordinates,Original*
G04 #@! TF.FileFunction,Profile,NP*
%FSLAX46Y46*%
G04 Gerber Fmt 4.6, Leading zero omitted, Abs format (unit mm)*
G04 Created by KiCad (PCBNEW 5.1.3-ffb9f22~84~ubuntu16.04.1) date 2019-07-25 21:15:37*
%MOMM*%
%LPD*%
G04 APERTURE LIST*
%ADD10C,0.100000*%
G04 APERTURE END LIST*
D10*
X27002552Y-98945520D02*
X30994596Y-102958375D01*
X30994596Y-102958375D02*
X34859964Y-106859606D01*
X100038258Y-14223787D02*
X99942113Y-14223582D01*
X99942113Y-14223582D02*
X99845957Y-14227837D01*
X99845957Y-14227837D02*
X99749672Y-14236547D01*
X99749672Y-14236547D02*
X99653143Y-14249710D01*
X99653143Y-14249710D02*
X99556253Y-14267320D01*
X99556253Y-14267320D02*
X99458890Y-14289375D01*
X99458890Y-14289375D02*
X99262271Y-14346802D01*
X99262271Y-14346802D02*
X99062365Y-14421959D01*
X99062365Y-14421959D02*
X98858247Y-14514816D01*
X98858247Y-14514816D02*
X98648991Y-14625341D01*
X98648991Y-14625341D02*
X98433672Y-14753505D01*
X98433672Y-14753505D02*
X98341606Y-14814713D01*
X98341606Y-14814713D02*
X98248597Y-14884570D01*
X98248597Y-14884570D02*
X98153414Y-14965327D01*
X98153414Y-14965327D02*
X98054831Y-15059232D01*
X98054831Y-15059232D02*
X97951620Y-15168535D01*
X97951620Y-15168535D02*
X97842549Y-15295485D01*
X97842549Y-15295485D02*
X97726392Y-15442331D01*
X97726392Y-15442331D02*
X97601918Y-15611324D01*
X97601918Y-15611324D02*
X97467905Y-15804711D01*
X97467905Y-15804711D02*
X97323119Y-16024743D01*
X97323119Y-16024743D02*
X97166331Y-16273669D01*
X97166331Y-16273669D02*
X96996317Y-16553739D01*
X96996317Y-16553739D02*
X96811846Y-16867201D01*
X96811846Y-16867201D02*
X96611688Y-17216305D01*
X96611688Y-17216305D02*
X96159407Y-18030437D01*
X96159407Y-18030437D02*
X95629642Y-19014129D01*
X95629642Y-19014129D02*
X95012569Y-20185376D01*
X95012569Y-20185376D02*
X94298360Y-21562173D01*
X94298360Y-21562173D02*
X93477187Y-23162515D01*
X93477187Y-23162515D02*
X92539221Y-25004397D01*
X92539221Y-25004397D02*
X91474640Y-27105814D01*
X91474640Y-27105814D02*
X88926311Y-32159230D01*
X88926311Y-32159230D02*
X86006993Y-37946790D01*
X86006993Y-37946790D02*
X85014088Y-39906374D01*
X85014088Y-39906374D02*
X84524855Y-40862368D01*
X84524855Y-40862368D02*
X82348660Y-45020186D01*
X82348660Y-45020186D02*
X80732014Y-48109350D01*
X80732014Y-48109350D02*
X79256893Y-50919290D01*
X79256893Y-50919290D02*
X78036524Y-53246150D01*
X78036524Y-53246150D02*
X77032186Y-55174120D01*
X77032186Y-55174120D02*
X75911439Y-57331594D01*
X75911439Y-57331594D02*
X74989196Y-59081645D01*
X74989196Y-59081645D02*
X74588804Y-59827423D01*
X74588804Y-59827423D02*
X74221591Y-60499592D01*
X74221591Y-60499592D02*
X73882069Y-61107560D01*
X73882069Y-61107560D02*
X73564758Y-61660744D01*
X73564758Y-61660744D02*
X73264175Y-62168561D01*
X73264175Y-62168561D02*
X72974832Y-62640422D01*
X72974832Y-62640422D02*
X72691249Y-63085741D01*
X72691249Y-63085741D02*
X72407941Y-63513934D01*
X72407941Y-63513934D02*
X72119428Y-63934414D01*
X72119428Y-63934414D02*
X71820224Y-64356596D01*
X71820224Y-64356596D02*
X71504844Y-64789894D01*
X71504844Y-64789894D02*
X71167808Y-65243722D01*
X71167808Y-65243722D02*
X70981657Y-65488287D01*
X70981657Y-65488287D02*
X70797578Y-65720748D01*
X70797578Y-65720748D02*
X70613953Y-65941694D01*
X70613953Y-65941694D02*
X70429165Y-66151724D01*
X70429165Y-66151724D02*
X70241600Y-66351436D01*
X70241600Y-66351436D02*
X70049638Y-66541425D01*
X70049638Y-66541425D02*
X69851668Y-66722287D01*
X69851668Y-66722287D02*
X69646072Y-66894623D01*
X69646072Y-66894623D02*
X69431236Y-67059023D01*
X69431236Y-67059023D02*
X69205540Y-67216088D01*
X69205540Y-67216088D02*
X68967370Y-67366411D01*
X68967370Y-67366411D02*
X68715111Y-67510593D01*
X68715111Y-67510593D02*
X68447146Y-67649229D01*
X68447146Y-67649229D02*
X68161859Y-67782912D01*
X68161859Y-67782912D02*
X67857635Y-67912243D01*
X67857635Y-67912243D02*
X67532859Y-68037818D01*
X67532859Y-68037818D02*
X67185912Y-68160229D01*
X67185912Y-68160229D02*
X66815180Y-68280077D01*
X66815180Y-68280077D02*
X66419044Y-68397959D01*
X66419044Y-68397959D02*
X65995894Y-68514468D01*
X65995894Y-68514468D02*
X65544110Y-68630202D01*
X65544110Y-68630202D02*
X65062074Y-68745758D01*
X65062074Y-68745758D02*
X64548176Y-68861734D01*
X64548176Y-68861734D02*
X64000798Y-68978724D01*
X64000798Y-68978724D02*
X63418319Y-69097325D01*
X63418319Y-69097325D02*
X62799129Y-69218133D01*
X62799129Y-69218133D02*
X61444144Y-69468761D01*
X61444144Y-69468761D02*
X59922918Y-69735379D01*
X59922918Y-69735379D02*
X58222518Y-70022757D01*
X58222518Y-70022757D02*
X54071554Y-70718082D01*
X54071554Y-70718082D02*
X51356579Y-71178104D01*
X51356579Y-71178104D02*
X48570752Y-71653330D01*
X48570752Y-71653330D02*
X44249210Y-72384714D01*
X44249210Y-72384714D02*
X42270683Y-72716961D01*
X42270683Y-72716961D02*
X40444448Y-73019418D01*
X40444448Y-73019418D02*
X38642874Y-73312218D01*
X38642874Y-73312218D02*
X36738320Y-73615491D01*
X36738320Y-73615491D02*
X34603157Y-73949366D01*
X34603157Y-73949366D02*
X32109748Y-74333978D01*
X32109748Y-74333978D02*
X25537656Y-75335923D01*
X25537656Y-75335923D02*
X23765648Y-75609778D01*
X23765648Y-75609778D02*
X22153194Y-75866191D01*
X22153194Y-75866191D02*
X19494132Y-76295589D01*
X19494132Y-76295589D02*
X18481546Y-76460201D01*
X18481546Y-76460201D02*
X17455366Y-76632879D01*
X17455366Y-76632879D02*
X16445600Y-76808172D01*
X16445600Y-76808172D02*
X15482255Y-76980630D01*
X15482255Y-76980630D02*
X14595338Y-77144799D01*
X14595338Y-77144799D02*
X13814858Y-77295229D01*
X13814858Y-77295229D02*
X13170822Y-77426468D01*
X13170822Y-77426468D02*
X12693238Y-77533066D01*
X12693238Y-77533066D02*
X12457071Y-77593411D01*
X12457071Y-77593411D02*
X12234422Y-77657712D01*
X12234422Y-77657712D02*
X12024808Y-77726286D01*
X12024808Y-77726286D02*
X11827741Y-77799461D01*
X11827741Y-77799461D02*
X11642738Y-77877552D01*
X11642738Y-77877552D02*
X11469313Y-77960884D01*
X11469313Y-77960884D02*
X11306981Y-78049775D01*
X11306981Y-78049775D02*
X11155257Y-78144548D01*
X11155257Y-78144548D02*
X11013656Y-78245527D01*
X11013656Y-78245527D02*
X10881693Y-78353031D01*
X10881693Y-78353031D02*
X10758882Y-78467382D01*
X10758882Y-78467382D02*
X10644738Y-78588901D01*
X10644738Y-78588901D02*
X10538777Y-78717911D01*
X10538777Y-78717911D02*
X10440512Y-78854729D01*
X10440512Y-78854729D02*
X10349460Y-78999682D01*
X10349460Y-78999682D02*
X10265135Y-79153089D01*
X10265135Y-79153089D02*
X10205275Y-79283603D01*
X10205275Y-79283603D02*
X10153011Y-79426385D01*
X10153011Y-79426385D02*
X10108366Y-79579592D01*
X10108366Y-79579592D02*
X10071365Y-79741390D01*
X10071365Y-79741390D02*
X10042034Y-79909936D01*
X10042034Y-79909936D02*
X10020396Y-80083392D01*
X10020396Y-80083392D02*
X10006477Y-80259917D01*
X10006477Y-80259917D02*
X10000301Y-80437669D01*
X10000301Y-80437669D02*
X10001893Y-80614811D01*
X10001893Y-80614811D02*
X10011278Y-80789504D01*
X10011278Y-80789504D02*
X10028480Y-80959907D01*
X10028480Y-80959907D02*
X10053523Y-81124177D01*
X10053523Y-81124177D02*
X10086434Y-81280480D01*
X10086434Y-81280480D02*
X10127236Y-81426970D01*
X10127236Y-81426970D02*
X10175954Y-81561813D01*
X10175954Y-81561813D02*
X10232613Y-81683166D01*
X10232613Y-81683166D02*
X10282854Y-81772444D01*
X10282854Y-81772444D02*
X10343355Y-81869980D01*
X10343355Y-81869980D02*
X10415346Y-81977047D01*
X10415346Y-81977047D02*
X10500056Y-82094926D01*
X10500056Y-82094926D02*
X10712549Y-82368213D01*
X10712549Y-82368213D02*
X10990667Y-82700049D01*
X10990667Y-82700049D02*
X11344245Y-83100653D01*
X11344245Y-83100653D02*
X11783116Y-83580227D01*
X11783116Y-83580227D02*
X12317114Y-84148987D01*
X12317114Y-84148987D02*
X12956071Y-84817139D01*
X12956071Y-84817139D02*
X13709822Y-85594896D01*
X13709822Y-85594896D02*
X14588200Y-86492467D01*
X14588200Y-86492467D02*
X16758172Y-88687899D01*
X16758172Y-88687899D02*
X19544656Y-91485114D01*
X19544656Y-91485114D02*
X23026319Y-94965800D01*
X23026319Y-94965800D02*
X27002552Y-98945520D01*
X34859964Y-106859606D02*
X38456170Y-110504461D01*
X38456170Y-110504461D02*
X41640729Y-113748179D01*
X41640729Y-113748179D02*
X44271150Y-116446007D01*
X44271150Y-116446007D02*
X45334030Y-117544974D01*
X45334030Y-117544974D02*
X46204945Y-118453188D01*
X46204945Y-118453188D02*
X46866085Y-119152549D01*
X46866085Y-119152549D02*
X47299634Y-119624966D01*
X47299634Y-119624966D02*
X47794771Y-120184415D01*
X47794771Y-120184415D02*
X48240016Y-120693826D01*
X48240016Y-120693826D02*
X48638440Y-121157887D01*
X48638440Y-121157887D02*
X48993126Y-121581285D01*
X48993126Y-121581285D02*
X49307146Y-121968712D01*
X49307146Y-121968712D02*
X49583574Y-122324848D01*
X49583574Y-122324848D02*
X49825487Y-122654385D01*
X49825487Y-122654385D02*
X50035959Y-122962010D01*
X50035959Y-122962010D02*
X50218069Y-123252411D01*
X50218069Y-123252411D02*
X50374886Y-123530273D01*
X50374886Y-123530273D02*
X50509492Y-123800283D01*
X50506952Y-123800283D02*
X50622420Y-124067133D01*
X50622420Y-124067133D02*
X50721822Y-124335506D01*
X50721822Y-124335506D02*
X50808238Y-124610091D01*
X50808238Y-124610091D02*
X50884743Y-124895579D01*
X50884743Y-124895579D02*
X50954409Y-125196651D01*
X50954409Y-125196651D02*
X51007433Y-125455564D01*
X51007433Y-125455564D02*
X51054195Y-125714887D01*
X51054195Y-125714887D02*
X51094730Y-125976005D01*
X51094730Y-125976005D02*
X51129068Y-126240306D01*
X51129068Y-126240306D02*
X51157242Y-126509176D01*
X51157242Y-126509176D02*
X51179284Y-126784001D01*
X51179284Y-126784001D02*
X51195227Y-127066170D01*
X51195227Y-127066170D02*
X51205105Y-127357062D01*
X51205105Y-127357062D02*
X51208948Y-127658072D01*
X51208948Y-127658072D02*
X51206789Y-127970579D01*
X51206789Y-127970579D02*
X51198661Y-128295973D01*
X51198661Y-128295973D02*
X51184595Y-128635639D01*
X51184595Y-128635639D02*
X51164625Y-128990965D01*
X51164625Y-128990965D02*
X51138782Y-129363335D01*
X51138782Y-129363335D02*
X51069612Y-130164755D01*
X51069612Y-130164755D02*
X51001591Y-130851080D01*
X51001591Y-130851080D02*
X50930968Y-131503843D01*
X50930968Y-131503843D02*
X50850388Y-132177327D01*
X50850388Y-132177327D02*
X50752488Y-132925820D01*
X50752488Y-132925820D02*
X50629907Y-133803604D01*
X50629907Y-133803604D02*
X50475289Y-134864963D01*
X50477829Y-134864963D02*
X50043035Y-137755540D01*
X50043035Y-137755540D02*
X49636652Y-140477358D01*
X49636652Y-140477358D02*
X49134079Y-143898284D01*
X49134079Y-143898284D02*
X48409231Y-148830004D01*
X48409231Y-148830004D02*
X48111023Y-150858477D01*
X48111023Y-150858477D02*
X47930675Y-152100909D01*
X47930675Y-152100909D02*
X47716612Y-153525251D01*
X47716612Y-153525251D02*
X47465804Y-155150566D01*
X47465804Y-155150566D02*
X47175220Y-156995915D01*
X47175220Y-156995915D02*
X46841828Y-159080363D01*
X46841828Y-159080363D02*
X46462594Y-161422974D01*
X46462594Y-161422974D02*
X45554488Y-166958924D01*
X45554488Y-166958924D02*
X45173502Y-169277092D01*
X45173502Y-169277092D02*
X44832547Y-171376057D01*
X44832547Y-171376057D02*
X44530267Y-173267118D01*
X44530267Y-173267118D02*
X44265314Y-174961584D01*
X44265314Y-174961584D02*
X44036330Y-176470753D01*
X44036330Y-176470753D02*
X43841963Y-177805929D01*
X43841963Y-177805929D02*
X43680863Y-178978416D01*
X43680863Y-178978416D02*
X43551673Y-179999515D01*
X43551673Y-179999515D02*
X43453036Y-180880531D01*
X43453036Y-180880531D02*
X43414755Y-181272038D01*
X43414755Y-181272038D02*
X43383606Y-181632764D01*
X43383606Y-181632764D02*
X43359420Y-181964121D01*
X43359420Y-181964121D02*
X43342027Y-182267518D01*
X43342027Y-182267518D02*
X43331257Y-182544375D01*
X43331257Y-182544375D02*
X43326945Y-182796098D01*
X43326945Y-182796098D02*
X43328917Y-183024102D01*
X43328917Y-183024102D02*
X43337006Y-183229803D01*
X43337006Y-183229803D02*
X43351044Y-183414610D01*
X43351044Y-183414610D02*
X43370858Y-183579939D01*
X43370858Y-183579939D02*
X43396281Y-183727200D01*
X43396281Y-183727200D02*
X43427148Y-183857806D01*
X43427148Y-183857806D02*
X43463281Y-183973173D01*
X43463281Y-183973173D02*
X43504519Y-184074711D01*
X43504519Y-184074711D02*
X43574315Y-184216615D01*
X43574315Y-184216615D02*
X43651212Y-184354534D01*
X43651212Y-184354534D02*
X43734840Y-184488130D01*
X43734840Y-184488130D02*
X43824818Y-184617058D01*
X43824818Y-184617058D02*
X43920780Y-184740984D01*
X43920780Y-184740984D02*
X44022346Y-184859563D01*
X44022346Y-184859563D02*
X44129142Y-184972457D01*
X44129142Y-184972457D02*
X44240797Y-185079326D01*
X44240797Y-185079326D02*
X44356934Y-185179828D01*
X44356934Y-185179828D02*
X44477181Y-185273628D01*
X44477181Y-185273628D02*
X44601164Y-185360380D01*
X44601164Y-185360380D02*
X44728505Y-185439744D01*
X44728505Y-185439744D02*
X44858833Y-185511383D01*
X44858833Y-185511383D02*
X44991774Y-185574956D01*
X44991774Y-185574956D02*
X45126955Y-185630122D01*
X45126955Y-185630122D02*
X45263997Y-185676542D01*
X45263997Y-185676542D02*
X45390517Y-185711109D01*
X45390517Y-185711109D02*
X45519444Y-185738448D01*
X45519444Y-185738448D02*
X45651177Y-185758505D01*
X45651177Y-185758505D02*
X45786122Y-185771222D01*
X45786122Y-185771222D02*
X45924679Y-185776551D01*
X45924679Y-185776551D02*
X46067249Y-185774428D01*
X46067249Y-185774428D02*
X46214239Y-185764805D01*
X46214239Y-185764805D02*
X46366049Y-185747623D01*
X46366049Y-185747623D02*
X46523080Y-185722827D01*
X46523080Y-185722827D02*
X46685736Y-185690366D01*
X46685736Y-185690366D02*
X46854420Y-185650180D01*
X46854420Y-185650180D02*
X47029536Y-185602216D01*
X47029536Y-185602216D02*
X47211482Y-185546421D01*
X47211482Y-185546421D02*
X47400664Y-185482735D01*
X47400664Y-185482735D02*
X47597483Y-185411107D01*
X47597483Y-185411107D02*
X47802343Y-185331481D01*
X47802343Y-185331481D02*
X48122219Y-185193748D01*
X48122219Y-185193748D02*
X48596999Y-184975508D01*
X48596999Y-184975508D02*
X49212799Y-184683704D01*
X49212799Y-184683704D02*
X49955732Y-184325288D01*
X49955732Y-184325288D02*
X51767475Y-183436412D01*
X51767475Y-183436412D02*
X53921166Y-182364459D01*
X53921166Y-182364459D02*
X56305738Y-181165017D01*
X56305738Y-181165017D02*
X58810130Y-179893671D01*
X58810130Y-179893671D02*
X61323279Y-178606004D01*
X61323279Y-178606004D02*
X63734117Y-177357602D01*
X63734117Y-177357602D02*
X64884627Y-176764157D01*
X64884627Y-176764157D02*
X66426370Y-175978015D01*
X66426370Y-175978015D02*
X70435512Y-173951437D01*
X70435512Y-173951437D02*
X75265424Y-171525480D01*
X75265424Y-171525480D02*
X80419984Y-168947753D01*
X80419984Y-168947753D02*
X85403080Y-166465859D01*
X85403080Y-166465859D02*
X89718594Y-164327414D01*
X89718594Y-164327414D02*
X91470968Y-163464361D01*
X91470968Y-163464361D02*
X92870403Y-162780023D01*
X92870403Y-162780023D02*
X93854885Y-162305353D01*
X93854885Y-162305353D02*
X94172139Y-162156315D01*
X94172139Y-162156315D02*
X94362397Y-162071298D01*
X94362397Y-162071298D02*
X94749795Y-161914230D01*
X94749795Y-161914230D02*
X95141257Y-161763800D01*
X95141257Y-161763800D02*
X95534900Y-161620490D01*
X95534900Y-161620490D02*
X95928851Y-161484787D01*
X95928851Y-161484787D02*
X96321233Y-161357169D01*
X96321233Y-161357169D02*
X96710167Y-161238116D01*
X96710167Y-161238116D02*
X97093774Y-161128117D01*
X97093774Y-161128117D02*
X97470183Y-161027649D01*
X97470183Y-161027649D02*
X97837509Y-160937194D01*
X97837509Y-160937194D02*
X98193882Y-160857235D01*
X98193882Y-160857235D02*
X98537420Y-160788257D01*
X98537420Y-160788257D02*
X98866248Y-160730737D01*
X98866248Y-160730737D02*
X99178491Y-160685161D01*
X99178491Y-160685161D02*
X99472267Y-160652008D01*
X99472267Y-160652008D02*
X99745701Y-160631764D01*
X99745701Y-160631764D02*
X99996918Y-160624909D01*
X99996918Y-160624909D02*
X100255950Y-160632131D01*
X100255950Y-160632131D02*
X100538003Y-160653436D01*
X100538003Y-160653436D02*
X100841022Y-160688288D01*
X100841022Y-160688288D02*
X101162942Y-160736144D01*
X101162942Y-160736144D02*
X101501704Y-160796466D01*
X101501704Y-160796466D02*
X101855250Y-160868718D01*
X101855250Y-160868718D02*
X102221515Y-160952358D01*
X102221515Y-160952358D02*
X102598445Y-161046846D01*
X102598445Y-161046846D02*
X102983978Y-161151643D01*
X102983978Y-161151643D02*
X103376052Y-161266214D01*
X103376052Y-161266214D02*
X103772605Y-161390014D01*
X103772605Y-161390014D02*
X104171583Y-161522509D01*
X104171583Y-161522509D02*
X104570922Y-161663157D01*
X104570922Y-161663157D02*
X104968562Y-161811417D01*
X104968562Y-161811417D02*
X105362442Y-161966755D01*
X105362442Y-161966755D02*
X105750503Y-162128626D01*
X105750503Y-162128626D02*
X106249086Y-162359258D01*
X106249086Y-162359258D02*
X107161877Y-162798593D01*
X107161877Y-162798593D02*
X108436116Y-163420357D01*
X108436116Y-163420357D02*
X110019055Y-164198263D01*
X110019055Y-164198263D02*
X113900003Y-166117391D01*
X113900003Y-166117391D02*
X118382688Y-168345742D01*
X118382688Y-168345742D02*
X123045070Y-170673076D01*
X123045070Y-170673076D02*
X127465113Y-172889152D01*
X127465113Y-172889152D02*
X131220782Y-174783736D01*
X131220782Y-174783736D02*
X132717590Y-175544765D01*
X132717590Y-175544765D02*
X133890043Y-176146581D01*
X133890043Y-176146581D02*
X138838217Y-178702360D01*
X138838217Y-178702360D02*
X142297818Y-180477603D01*
X142297818Y-180477603D02*
X143693627Y-181186886D01*
X143693627Y-181186886D02*
X144986363Y-181838272D01*
X144986363Y-181838272D02*
X146265713Y-182477503D01*
X146265713Y-182477503D02*
X147621367Y-183150323D01*
X147621367Y-183150323D02*
X149297434Y-183977384D01*
X149297434Y-183977384D02*
X150603948Y-184612313D01*
X150603948Y-184612313D02*
X151137354Y-184865292D01*
X151137354Y-184865292D02*
X151600856Y-185079318D01*
X151600856Y-185079318D02*
X152001944Y-185257411D01*
X152001944Y-185257411D02*
X152348115Y-185402601D01*
X152348115Y-185402601D02*
X152646862Y-185517914D01*
X152646862Y-185517914D02*
X152905676Y-185606373D01*
X152905676Y-185606373D02*
X153132055Y-185671008D01*
X153132055Y-185671008D02*
X153333494Y-185714843D01*
X153333494Y-185714843D02*
X153517486Y-185740900D01*
X153517486Y-185740900D02*
X153691524Y-185752209D01*
X153691524Y-185752209D02*
X153863101Y-185751797D01*
X153863101Y-185751797D02*
X154039716Y-185742687D01*
X154039716Y-185742687D02*
X154202595Y-185728460D01*
X154202595Y-185728460D02*
X154360557Y-185708459D01*
X154360557Y-185708459D02*
X154513578Y-185682720D01*
X154513578Y-185682720D02*
X154661626Y-185651269D01*
X154661626Y-185651269D02*
X154804685Y-185614137D01*
X154804685Y-185614137D02*
X154942723Y-185571355D01*
X154942723Y-185571355D02*
X155075714Y-185522957D01*
X155075714Y-185522957D02*
X155203637Y-185468968D01*
X155203637Y-185468968D02*
X155326463Y-185409419D01*
X155326463Y-185409419D02*
X155444169Y-185344344D01*
X155444169Y-185344344D02*
X155556728Y-185273775D01*
X155556728Y-185273775D02*
X155664116Y-185197735D01*
X155664116Y-185197735D02*
X155766306Y-185116261D01*
X155766306Y-185116261D02*
X155863275Y-185029381D01*
X155863275Y-185029381D02*
X155954994Y-184937126D01*
X155954994Y-184937126D02*
X156041442Y-184839525D01*
X156041442Y-184839525D02*
X156122589Y-184736613D01*
X156122589Y-184736613D02*
X156198411Y-184628414D01*
X156198411Y-184628414D02*
X156268885Y-184514964D01*
X156268885Y-184514964D02*
X156333982Y-184396292D01*
X156333982Y-184396292D02*
X156393681Y-184272425D01*
X156393681Y-184272425D02*
X156447952Y-184143398D01*
X156447952Y-184143398D02*
X156496774Y-184009241D01*
X156496774Y-184009241D02*
X156540117Y-183869982D01*
X156540117Y-183869982D02*
X156577958Y-183725653D01*
X156577958Y-183725653D02*
X156610272Y-183576287D01*
X156610272Y-183576287D02*
X156637032Y-183421909D01*
X156637032Y-183421909D02*
X156658216Y-183262555D01*
X156658216Y-183262555D02*
X156673795Y-183098250D01*
X156673795Y-183098250D02*
X156683743Y-182929030D01*
X156683743Y-182929030D02*
X156688038Y-182754922D01*
X156688038Y-182754922D02*
X156686653Y-182575956D01*
X156686653Y-182575956D02*
X156669855Y-182249992D01*
X156669855Y-182249992D02*
X156632367Y-181810115D01*
X156632367Y-181810115D02*
X156574819Y-181260631D01*
X156574819Y-181260631D02*
X156497838Y-180605847D01*
X156497838Y-180605847D02*
X156402048Y-179850076D01*
X156402048Y-179850076D02*
X156288084Y-178997624D01*
X156288084Y-178997624D02*
X156156569Y-178052797D01*
X156156569Y-178052797D02*
X156008128Y-177019906D01*
X156008128Y-177019906D02*
X155662988Y-174707160D01*
X155662988Y-174707160D02*
X155257683Y-172093859D01*
X155257683Y-172093859D02*
X154797234Y-169214461D01*
X154797234Y-169214461D02*
X154286660Y-166103438D01*
X154286660Y-166103438D02*
X153793900Y-163124622D01*
X153793900Y-163124622D02*
X153364383Y-160497689D01*
X153364383Y-160497689D02*
X152977437Y-158089487D01*
X152977437Y-158089487D02*
X152612394Y-155766877D01*
X152612394Y-155766877D02*
X152248584Y-153396710D01*
X152248584Y-153396710D02*
X151865340Y-150845844D01*
X151865340Y-150845844D02*
X151441993Y-147981134D01*
X151441993Y-147981134D02*
X150957872Y-144669434D01*
X150957872Y-144669434D02*
X150314518Y-140289274D01*
X150314518Y-140289274D02*
X149707165Y-136208279D01*
X149707165Y-136208279D02*
X149533849Y-135038513D01*
X149533849Y-135038513D02*
X149379603Y-133958429D01*
X149379603Y-133958429D02*
X149244097Y-132962565D01*
X149244097Y-132962565D02*
X149126997Y-132045462D01*
X149126997Y-132045462D02*
X149027971Y-131201662D01*
X149027971Y-131201662D02*
X148946691Y-130425709D01*
X148946691Y-130425709D02*
X148882822Y-129712141D01*
X148882822Y-129712141D02*
X148836035Y-129055498D01*
X148836035Y-129055498D02*
X148805998Y-128450323D01*
X148805998Y-128450323D02*
X148792378Y-127891159D01*
X148792378Y-127891159D02*
X148794845Y-127372542D01*
X148794845Y-127372542D02*
X148813068Y-126889019D01*
X148813068Y-126889019D02*
X148827986Y-126658709D01*
X148827986Y-126658709D02*
X148846717Y-126435124D01*
X148846717Y-126435124D02*
X148869219Y-126217584D01*
X148869219Y-126217584D02*
X148895457Y-126005407D01*
X148895457Y-126005407D02*
X148925381Y-125797906D01*
X148925381Y-125797906D02*
X148958957Y-125594401D01*
X148958957Y-125594401D02*
X149036887Y-125196651D01*
X149036887Y-125196651D02*
X149108131Y-124891569D01*
X149108131Y-124891569D02*
X149188432Y-124599562D01*
X149188432Y-124599562D02*
X149280995Y-124315875D01*
X149280995Y-124315875D02*
X149389015Y-124035741D01*
X149389015Y-124035741D02*
X149449823Y-123895519D01*
X149449823Y-123895519D02*
X149515699Y-123754402D01*
X149515699Y-123754402D02*
X149587037Y-123611795D01*
X149587037Y-123611795D02*
X149664244Y-123467100D01*
X149664244Y-123467100D02*
X149837853Y-123169073D01*
X149837853Y-123169073D02*
X150039724Y-122855558D01*
X150039724Y-122855558D02*
X150273062Y-122521799D01*
X150273062Y-122521799D02*
X150541069Y-122163033D01*
X150541069Y-122163033D02*
X150846942Y-121774500D01*
X150846942Y-121774500D02*
X151193880Y-121351441D01*
X151193880Y-121351441D02*
X151585091Y-120889093D01*
X151585091Y-120889093D02*
X152023772Y-120382699D01*
X152023772Y-120382699D02*
X152513125Y-119827494D01*
X152513125Y-119827494D02*
X153056349Y-119218721D01*
X153056349Y-119218721D02*
X153477202Y-118763757D01*
X153477202Y-118763757D02*
X154133292Y-118074011D01*
X154133292Y-118074011D02*
X155005325Y-117169054D01*
X155005325Y-117169054D02*
X156073993Y-116068455D01*
X156073993Y-116068455D02*
X158724060Y-113358611D01*
X158724060Y-113358611D02*
X161929100Y-110101027D01*
X161929100Y-110101027D02*
X165534720Y-106452258D01*
X165534720Y-106452258D02*
X169386528Y-102568855D01*
X169386528Y-102568855D02*
X173330138Y-98607375D01*
X173330138Y-98607375D02*
X177211154Y-94724367D01*
X177211154Y-94724367D02*
X180922333Y-91014968D01*
X180922333Y-91014968D02*
X183821964Y-88102195D01*
X183821964Y-88102195D02*
X184999220Y-86910935D01*
X184999220Y-86910935D02*
X186011717Y-85878507D01*
X186011717Y-85878507D02*
X186872162Y-84991465D01*
X186872162Y-84991465D02*
X187593268Y-84236371D01*
X187593268Y-84236371D02*
X188187741Y-83599780D01*
X188187741Y-83599780D02*
X188668292Y-83068248D01*
X188668292Y-83068248D02*
X189047627Y-82628337D01*
X189047627Y-82628337D02*
X189203309Y-82438537D01*
X189203309Y-82438537D02*
X189338457Y-82266601D01*
X189338457Y-82266601D02*
X189454653Y-82110851D01*
X189454653Y-82110851D02*
X189553493Y-81969602D01*
X189553493Y-81969602D02*
X189636557Y-81841177D01*
X189636557Y-81841177D02*
X189705442Y-81723896D01*
X189705442Y-81723896D02*
X189761728Y-81616076D01*
X189761728Y-81616076D02*
X189807011Y-81516040D01*
X189807011Y-81516040D02*
X189842878Y-81422105D01*
X189842878Y-81422105D02*
X189870914Y-81332592D01*
X189870914Y-81332592D02*
X189905046Y-81201509D01*
X189905046Y-81201509D02*
X189933853Y-81070741D01*
X189933853Y-81070741D02*
X189957384Y-80940425D01*
X189957384Y-80940425D02*
X189975692Y-80810693D01*
X189975692Y-80810693D02*
X189988827Y-80681684D01*
X189988827Y-80681684D02*
X189996842Y-80553524D01*
X189996842Y-80553524D02*
X189999788Y-80426352D01*
X189999788Y-80426352D02*
X189997717Y-80300297D01*
X189997717Y-80300297D02*
X189990675Y-80175501D01*
X189990675Y-80175501D02*
X189978720Y-80052091D01*
X189978720Y-80052091D02*
X189961903Y-79930202D01*
X189961903Y-79930202D02*
X189940273Y-79809970D01*
X189940273Y-79809970D02*
X189913880Y-79691527D01*
X189913880Y-79691527D02*
X189882776Y-79575008D01*
X189882776Y-79575008D02*
X189847016Y-79460545D01*
X189847016Y-79460545D02*
X189806649Y-79348274D01*
X189806649Y-79348274D02*
X189761725Y-79238329D01*
X189761725Y-79238329D02*
X189712297Y-79130841D01*
X189712297Y-79130841D02*
X189658415Y-79025948D01*
X189658415Y-79025948D02*
X189600133Y-78923781D01*
X189600133Y-78923781D02*
X189537500Y-78824472D01*
X189537500Y-78824472D02*
X189470568Y-78728161D01*
X189470568Y-78728161D02*
X189399389Y-78634974D01*
X189399389Y-78634974D02*
X189324013Y-78545053D01*
X189324013Y-78545053D02*
X189244494Y-78458523D01*
X189244494Y-78458523D02*
X189160880Y-78375527D01*
X189160880Y-78375527D02*
X189073222Y-78296192D01*
X189073222Y-78296192D02*
X188981576Y-78220655D01*
X188981576Y-78220655D02*
X188885990Y-78149050D01*
X188885990Y-78149050D02*
X188786515Y-78081508D01*
X188786515Y-78081508D02*
X188683205Y-78018166D01*
X188683205Y-78018166D02*
X188576110Y-77959156D01*
X188576110Y-77959156D02*
X188471730Y-77908616D01*
X188471730Y-77908616D02*
X188349756Y-77857102D01*
X188349756Y-77857102D02*
X188208185Y-77804262D01*
X188208185Y-77804262D02*
X188045015Y-77749750D01*
X188045015Y-77749750D02*
X187858244Y-77693218D01*
X187858244Y-77693218D02*
X187645866Y-77634313D01*
X187645866Y-77634313D02*
X187136280Y-77507999D01*
X187136280Y-77507999D02*
X186500233Y-77368019D01*
X186500233Y-77368019D02*
X185721703Y-77211584D01*
X185721703Y-77211584D02*
X184784663Y-77035900D01*
X184784663Y-77035900D02*
X183673091Y-76838178D01*
X183673091Y-76838178D02*
X182370960Y-76615626D01*
X182370960Y-76615626D02*
X180862245Y-76365459D01*
X180862245Y-76365459D02*
X179130925Y-76084882D01*
X179130925Y-76084882D02*
X177160974Y-75771107D01*
X177160974Y-75771107D02*
X172441073Y-75032797D01*
X172441073Y-75032797D02*
X166574353Y-74128210D01*
X166574353Y-74128210D02*
X163819229Y-73698385D01*
X163819229Y-73698385D02*
X160749608Y-73208414D01*
X160749608Y-73208414D02*
X157739819Y-72718626D01*
X157739819Y-72718626D02*
X155164196Y-72289354D01*
X155164196Y-72289354D02*
X149464809Y-71326751D01*
X149464809Y-71326751D02*
X143366534Y-70302225D01*
X143366534Y-70302225D02*
X140452480Y-69809152D01*
X140452480Y-69809152D02*
X139221870Y-69595571D01*
X139221870Y-69595571D02*
X138126910Y-69400423D01*
X138126910Y-69400423D02*
X137156127Y-69221046D01*
X137156127Y-69221046D02*
X136298059Y-69054786D01*
X136298059Y-69054786D02*
X135541229Y-68898985D01*
X135541229Y-68898985D02*
X134874171Y-68750988D01*
X134874171Y-68750988D02*
X134285414Y-68608135D01*
X134285414Y-68608135D02*
X133763486Y-68467769D01*
X133763486Y-68467769D02*
X133296916Y-68327237D01*
X133296916Y-68327237D02*
X132874240Y-68183879D01*
X132874240Y-68183879D02*
X132483983Y-68035041D01*
X132483983Y-68035041D02*
X132114679Y-67878063D01*
X132114679Y-67878063D02*
X131754851Y-67710288D01*
X131754851Y-67710288D02*
X131393037Y-67529061D01*
X131393037Y-67529061D02*
X131135991Y-67391628D01*
X131135991Y-67391628D02*
X130892781Y-67250028D01*
X130892781Y-67250028D02*
X130660286Y-67100831D01*
X130660286Y-67100831D02*
X130435392Y-66940611D01*
X130435392Y-66940611D02*
X130214976Y-66765938D01*
X130214976Y-66765938D02*
X129995926Y-66573381D01*
X129995926Y-66573381D02*
X129775121Y-66359513D01*
X129775121Y-66359513D02*
X129549442Y-66120902D01*
X129549442Y-66120902D02*
X129315774Y-65854123D01*
X129315774Y-65854123D02*
X129070994Y-65555747D01*
X129070994Y-65555747D02*
X128811990Y-65222341D01*
X128811990Y-65222341D02*
X128535641Y-64850479D01*
X128535641Y-64850479D02*
X128238828Y-64436730D01*
X128238828Y-64436730D02*
X127918432Y-63977664D01*
X127918432Y-63977664D02*
X127571341Y-63469856D01*
X127571341Y-63469856D02*
X127194431Y-62909877D01*
X127194431Y-62909877D02*
X126866043Y-62408139D01*
X126866043Y-62408139D02*
X126538134Y-61880697D01*
X126538134Y-61880697D02*
X126188743Y-61287751D01*
X126188743Y-61287751D02*
X125795904Y-60589502D01*
X125795904Y-60589502D02*
X125337657Y-59746149D01*
X125337657Y-59746149D02*
X124792034Y-58717895D01*
X124792034Y-58717895D02*
X124137072Y-57464935D01*
X124137072Y-57464935D02*
X123350807Y-55947477D01*
X123350807Y-55947477D02*
X122456577Y-54225481D01*
X122456577Y-54225481D02*
X121499274Y-52393791D01*
X121499274Y-52393791D02*
X117935118Y-45600615D01*
X117935118Y-45600615D02*
X116579127Y-42989506D01*
X116579127Y-42989506D02*
X115958563Y-41800305D01*
X115958563Y-41800305D02*
X115753591Y-41416518D01*
X115753591Y-41416518D02*
X115659148Y-41249321D01*
X115659148Y-41249321D02*
X115359016Y-40670026D01*
X115359016Y-40670026D02*
X114593962Y-39164224D01*
X114593962Y-39164224D02*
X112131923Y-34286921D01*
X112131923Y-34286921D02*
X109300653Y-28672282D01*
X109300653Y-28672282D02*
X108115049Y-26330227D01*
X108115049Y-26330227D02*
X107069091Y-24272869D01*
X107069091Y-24272869D02*
X106152498Y-22481098D01*
X106152498Y-22481098D02*
X105354994Y-20935806D01*
X105354994Y-20935806D02*
X104666299Y-19617881D01*
X104666299Y-19617881D02*
X104076130Y-18508216D01*
X104076130Y-18508216D02*
X103574209Y-17587701D01*
X103574209Y-17587701D02*
X103150257Y-16837226D01*
X103150257Y-16837226D02*
X102964307Y-16519781D01*
X102964307Y-16519781D02*
X102793994Y-16237681D01*
X102793994Y-16237681D02*
X102638033Y-15988536D01*
X102638033Y-15988536D02*
X102495138Y-15769957D01*
X102495138Y-15769957D02*
X102364026Y-15579557D01*
X102364026Y-15579557D02*
X102243410Y-15414945D01*
X102243410Y-15414945D02*
X102132008Y-15273735D01*
X102132008Y-15273735D02*
X102028531Y-15153536D01*
X102028531Y-15153536D02*
X101931698Y-15051960D01*
X101931698Y-15051960D02*
X101840221Y-14966619D01*
X101840221Y-14966619D02*
X101752817Y-14895123D01*
X101752817Y-14895123D02*
X101668201Y-14835085D01*
X101668201Y-14835085D02*
X101446950Y-14695878D01*
X101446950Y-14695878D02*
X101232549Y-14574660D01*
X101232549Y-14574660D02*
X101024074Y-14471408D01*
X101024074Y-14471408D02*
X100820601Y-14386098D01*
X100820601Y-14386098D02*
X100621205Y-14318705D01*
X100621205Y-14318705D02*
X100424964Y-14269205D01*
X100424964Y-14269205D02*
X100327739Y-14251157D01*
X100327739Y-14251157D02*
X100230956Y-14237574D01*
X100230956Y-14237574D02*
X100134501Y-14228451D01*
X100134501Y-14228451D02*
X100038258Y-14223787D01*
X100038258Y-14223787D02*
X100038258Y-14223787D01*
X100038258Y-14223787D02*
X100038258Y-14223787D01*
M02*
