M48
; DRILL file {KiCad 5.1.3-ffb9f22~84~ubuntu16.04.1} date Thu 25 Jul 2019 09:10:36 PM PDT
; FORMAT={2:4/ absolute / inch / suppress trailing zeros}
; #@! TF.CreationDate,2019-07-25T21:10:36-07:00
; #@! TF.GenerationSoftware,Kicad,Pcbnew,5.1.3-ffb9f22~84~ubuntu16.04.1
FMAT,2
INCH,LZ
T1C0.0118
T2C0.0197
T3C0.0217
T4C0.0400
T5C0.0402
T6C0.1575
%
G90
G05
T1
X022362Y-066004
X022717Y-067028
X022756Y-066004
X032116Y-04249
X032126Y-041506
X032126Y-040551
X032205Y-034646
X032205Y-043425
X032825Y-040768
X032825Y-041516
X032835Y-035669
X03311Y-040984
X033228Y-043081
X033622Y-039213
X034134Y-042205
X034262Y-04249
X034311Y-043435
X034646Y-034646
X034685Y-040984
X034762Y-043081
X034882Y-038839
X035335Y-040551
X035354Y-042205
X035363Y-035678
X035394Y-038839
X035394Y-039213
X038976Y-052303
X03937Y-03937
X03937Y-043012
X03937Y-057559
X039764Y-052303
X043465Y-040157
X043504Y-043012
X04378Y-04061
X043873Y-039075
X043996Y-041929
X044331Y-033327
X04439Y-042126
X044587Y-042421
X044783Y-043632
X045Y-043829
X045179Y-039075
X045179Y-040384
X045187Y-043947
X045413Y-045138
X045531Y-04061
X04562Y-044705
X045856Y-041388
X045866Y-040384
X046102Y-04189
X046348Y-040148
X046348Y-041388
X046348Y-045138
X046517Y-035099
X046575Y-039821
X046575Y-041388
X046575Y-044695
X046752Y-042126
X046801Y-043947
X046811Y-043376
X046811Y-043652
X046811Y-042421
X04685Y-043012
X053799Y-042421
X054902Y-066909
X055367Y-066909
T4
X055717Y-066437
X055717Y-067437
X056717Y-066437
X056717Y-067437
X057717Y-066437
X057717Y-067437
X010047Y-033366
X010047Y-034366
X011047Y-033366
X011047Y-034366
X012047Y-033366
X012047Y-034366
X06674Y-033366
X06674Y-034366
X06774Y-033366
X06774Y-034366
X06874Y-033366
X06874Y-034366
X038394Y-011319
X038394Y-012319
X039394Y-011319
X039394Y-012319
X040394Y-011319
X040394Y-012319
X021071Y-066437
X021071Y-067437
X022071Y-066437
X022071Y-067437
X023071Y-066437
X023071Y-067437
T5
X028681Y-039955
X028681Y-045856
T6
X03937Y-006983
T2
G00X038091Y-062411
M15
G01X038091Y-062156
M16
G05
G00X040846Y-062411
M15
G01X040846Y-062156
M16
G05
T3
G00X038543Y-06122
M15
G01X038425Y-06122
M16
G05
G00X040512Y-06122
M15
G01X040394Y-06122
M16
G05
T0
M30
